<svg width="752" height="752" viewBox="0 0 752 752" fill="none" xmlns="http://www.w3.org/2000/svg">
<rect width="752" height="752" fill="#F8F8F8"/>
<path d="M0.26336 62.5002C57.4935 70.0299 114.111 104.664 154.216 153.749C194.321 202.835 216.563 265.179 216.049 327.066C215.536 388.954 192.309 445.315 151.478 483.752C110.648 522.189 57.4928 538.53 0.26265 531L0.262961 298.676L0.26336 62.5002Z" fill="#FBEFEB" fill-opacity="0.54"/>
<path d="M203.119 314.738H206.839L212.474 328.94L218.166 314.738H221.942L214.954 331.814L222.619 349.905L237.103 314.456H241.386L224.422 354.47H220.928L212.531 334.688L204.077 354.47H200.639L183.732 314.456H187.959L202.499 349.905L210.107 331.814L203.119 314.738ZM251.243 354.47V314.456H255.188V354.47H251.243ZM292.837 321.951C292.274 321.313 291.616 320.749 290.865 320.261C290.113 319.735 289.268 319.284 288.329 318.908C287.389 318.532 286.375 318.232 285.285 318.006C284.233 317.781 283.106 317.668 281.904 317.668C278.41 317.668 275.836 318.344 274.183 319.697C272.567 321.012 271.76 322.816 271.76 325.107C271.76 326.685 272.135 327.925 272.887 328.827C273.676 329.729 274.897 330.461 276.55 331.025C278.203 331.589 280.307 332.171 282.862 332.772C285.717 333.373 288.178 334.087 290.245 334.914C292.311 335.74 293.908 336.867 295.035 338.295C296.162 339.685 296.726 341.583 296.726 343.987C296.726 345.828 296.369 347.425 295.655 348.778C294.941 350.13 293.946 351.257 292.668 352.159C291.391 353.061 289.869 353.737 288.103 354.188C286.337 354.601 284.402 354.808 282.298 354.808C280.232 354.808 278.241 354.601 276.324 354.188C274.446 353.737 272.661 353.098 270.97 352.272C269.28 351.408 267.702 350.318 266.236 349.003L268.209 345.791C268.923 346.542 269.768 347.256 270.745 347.932C271.76 348.571 272.868 349.153 274.07 349.679C275.31 350.205 276.625 350.619 278.015 350.919C279.443 351.182 280.908 351.314 282.411 351.314C285.605 351.314 288.084 350.731 289.85 349.567C291.654 348.402 292.555 346.674 292.555 344.382C292.555 342.729 292.105 341.414 291.203 340.437C290.301 339.422 288.949 338.596 287.145 337.957C285.342 337.318 283.125 336.698 280.495 336.097C277.715 335.458 275.366 334.745 273.45 333.956C271.534 333.167 270.088 332.133 269.111 330.856C268.171 329.541 267.702 327.813 267.702 325.671C267.702 323.191 268.303 321.106 269.505 319.415C270.745 317.687 272.436 316.391 274.577 315.527C276.719 314.625 279.18 314.174 281.96 314.174C283.726 314.174 285.36 314.362 286.863 314.738C288.404 315.076 289.813 315.583 291.09 316.259C292.405 316.936 293.626 317.781 294.753 318.795L292.837 321.951ZM339.469 314.456V354.47H335.58V335.759H311.854V354.47H307.909V314.456H311.854V332.265H335.58V314.456H339.469ZM399.499 354.47L379.548 333.448C377.933 331.72 376.637 330.255 375.66 329.052C374.683 327.813 373.988 326.704 373.574 325.727C373.161 324.713 372.954 323.717 372.954 322.74C372.954 321.087 373.387 319.603 374.251 318.288C375.152 316.973 376.355 315.921 377.858 315.132C379.398 314.343 381.108 313.949 382.986 313.949C384.752 313.949 386.33 314.287 387.72 314.963C389.148 315.602 390.275 316.522 391.102 317.725C391.928 318.889 392.342 320.261 392.342 321.839C392.342 323.529 391.853 325.051 390.876 326.404C389.937 327.719 388.697 328.958 387.157 330.123C385.654 331.25 383.982 332.396 382.141 333.561C380.6 334.613 379.173 335.684 377.858 336.773C376.58 337.825 375.566 338.953 374.814 340.155C374.063 341.357 373.687 342.729 373.687 344.269C373.687 345.922 374.157 347.331 375.096 348.496C376.035 349.623 377.219 350.487 378.647 351.088C380.112 351.652 381.615 351.934 383.155 351.934C385.184 351.934 387.044 351.483 388.735 350.581C390.463 349.642 391.966 348.364 393.243 346.749C394.521 345.096 395.498 343.217 396.174 341.113C396.888 339.009 397.245 336.773 397.245 334.406H400.513C400.513 337.262 400.063 339.948 399.161 342.466C398.259 344.945 397 347.124 395.385 349.003C393.807 350.882 391.928 352.366 389.749 353.455C387.607 354.507 385.278 355.033 382.761 355.033C380.431 355.033 378.29 354.582 376.336 353.681C374.382 352.741 372.823 351.464 371.658 349.848C370.531 348.233 369.968 346.335 369.968 344.156C369.968 342.127 370.437 340.362 371.376 338.859C372.353 337.318 373.593 335.947 375.096 334.745C376.637 333.505 378.252 332.34 379.943 331.25C381.671 330.123 383.193 329.09 384.508 328.151C385.86 327.174 386.912 326.197 387.664 325.22C388.415 324.206 388.791 323.116 388.791 321.951C388.791 320.486 388.246 319.284 387.157 318.344C386.067 317.405 384.677 316.936 382.986 316.936C381.746 316.936 380.638 317.199 379.661 317.725C378.684 318.251 377.914 318.946 377.35 319.81C376.787 320.674 376.505 321.613 376.505 322.628C376.505 323.266 376.655 323.943 376.956 324.657C377.256 325.333 377.839 326.197 378.703 327.249C379.567 328.263 380.807 329.616 382.423 331.307L404.571 354.47H399.499ZM462.838 344.156C462.838 346.148 462.331 347.932 461.316 349.51C460.302 351.051 458.93 352.272 457.202 353.173C455.511 354.038 453.652 354.47 451.623 354.47H432.743V314.456H452.017C453.896 314.456 455.511 314.963 456.864 315.977C458.254 316.954 459.306 318.232 460.02 319.81C460.771 321.35 461.147 322.966 461.147 324.657C461.147 326.648 460.64 328.489 459.625 330.18C458.611 331.87 457.202 333.129 455.399 333.956C457.691 334.632 459.494 335.89 460.809 337.732C462.162 339.573 462.838 341.714 462.838 344.156ZM458.893 343.48C458.893 342.127 458.592 340.888 457.991 339.76C457.39 338.596 456.563 337.656 455.511 336.942C454.497 336.229 453.332 335.872 452.017 335.872H436.688V351.032H451.623C452.975 351.032 454.196 350.675 455.286 349.961C456.376 349.247 457.24 348.327 457.878 347.2C458.555 346.035 458.893 344.795 458.893 343.48ZM436.688 317.894V332.659H450.439C451.754 332.659 452.919 332.321 453.933 331.645C454.948 330.931 455.756 330.011 456.357 328.883C456.958 327.756 457.258 326.554 457.258 325.276C457.258 323.924 456.977 322.703 456.413 321.613C455.85 320.486 455.079 319.584 454.102 318.908C453.126 318.232 452.017 317.894 450.777 317.894H436.688ZM490.792 354.752C487.636 354.752 484.968 354.188 482.789 353.061C480.61 351.934 478.882 350.431 477.604 348.552C476.327 346.636 475.388 344.476 474.787 342.071C474.223 339.666 473.941 337.187 473.941 334.632V314.456H477.83V334.632C477.83 336.698 478.037 338.727 478.45 340.718C478.901 342.71 479.615 344.494 480.591 346.072C481.568 347.65 482.883 348.909 484.536 349.848C486.19 350.75 488.256 351.201 490.736 351.201C493.291 351.201 495.395 350.731 497.048 349.792C498.739 348.815 500.054 347.538 500.993 345.96C501.97 344.382 502.665 342.616 503.078 340.662C503.491 338.671 503.698 336.661 503.698 334.632V314.456H507.643V334.632C507.643 337.299 507.342 339.854 506.741 342.296C506.14 344.739 505.163 346.88 503.811 348.721C502.496 350.562 500.767 352.028 498.626 353.117C496.484 354.207 493.873 354.752 490.792 354.752ZM521.5 314.456L534.575 335.984L547.763 314.456H552.046L536.548 339.591V354.47H532.603V339.479L517.161 314.456H521.5Z" fill="#9B4A27"/>
<path d="M399.134 219.66L383.35 220.019" stroke="#D1978A" stroke-width="0.918875" stroke-miterlimit="10" stroke-linecap="round"/>
<path d="M338.55 223.438C338.407 237.247 338.263 251.058 338.117 264.871C338.116 264.982 338.137 265.093 338.179 265.196C338.221 265.3 338.283 265.394 338.361 265.473C338.439 265.553 338.532 265.616 338.635 265.659C338.738 265.702 338.848 265.725 338.96 265.725L346.109 265.752" stroke="#D1978A" stroke-width="1.22517" stroke-miterlimit="10"/>
<path d="M344.676 265.134C344.337 265.136 344.064 265.411 344.066 265.75C344.068 266.088 344.344 266.361 344.682 266.359L344.676 265.134ZM398.086 265.474L398.089 264.861L398.083 264.862L398.086 265.474ZM398.969 264.592L398.357 264.589L398.357 264.593L398.969 264.592ZM399.745 220.234C399.746 219.896 399.473 219.62 399.135 219.619C398.796 219.618 398.521 219.891 398.52 220.229L399.745 220.234ZM344.682 266.359L398.089 266.087L398.083 264.862L344.676 265.134L344.682 266.359ZM398.084 266.087C398.281 266.087 398.476 266.049 398.658 265.974L398.191 264.841C398.159 264.855 398.124 264.862 398.089 264.862L398.084 266.087ZM398.658 265.974C398.84 265.899 399.005 265.789 399.144 265.65L398.279 264.783C398.254 264.808 398.224 264.828 398.191 264.841L398.658 265.974ZM399.144 265.65C399.284 265.511 399.394 265.346 399.469 265.164L398.337 264.696C398.323 264.729 398.303 264.758 398.279 264.783L399.144 265.65ZM399.469 265.164C399.544 264.982 399.583 264.787 399.582 264.59L398.357 264.593C398.357 264.629 398.35 264.664 398.337 264.696L399.469 265.164ZM399.582 264.594L399.745 220.234L398.52 220.229L398.357 264.589L399.582 264.594Z" fill="#D1978A"/>
<path d="M353.984 221.209C353.288 225.629 352.796 233.633 356.766 241.791C358.643 245.621 361.383 251.214 366.442 252.112C374.146 253.478 380.762 242.799 381.337 241.881C386.707 233.003 384.411 223.361 383.701 220.747" stroke="#D1978A" stroke-width="1.22517" stroke-miterlimit="10" stroke-linecap="round"/>
<path opacity="0.49" d="M356.976 221.998C361.237 222.041 364.726 218.623 364.769 214.363C364.813 210.102 361.394 206.613 357.134 206.57C352.874 206.526 349.385 209.945 349.341 214.205C349.298 218.465 352.716 221.954 356.976 221.998Z" fill="#FFE0D9"/>
<path opacity="0.49" d="M382.206 213.683C388.36 213.745 393.399 208.808 393.462 202.654C393.525 196.5 388.587 191.461 382.433 191.398C376.28 191.335 371.24 196.273 371.177 202.427C371.114 208.58 376.052 213.62 382.206 213.683Z" fill="#FFE0D9"/>
<path opacity="0.49" d="M343.684 221.377C346.209 221.402 348.276 219.377 348.302 216.852C348.328 214.327 346.302 212.26 343.777 212.234C341.253 212.208 339.185 214.234 339.159 216.759C339.134 219.283 341.159 221.351 343.684 221.377Z" fill="#FFE0D9"/>
<path opacity="0.49" d="M370.679 223.281C373.677 223.312 376.132 220.906 376.163 217.908C376.193 214.91 373.788 212.455 370.79 212.425C367.792 212.394 365.337 214.799 365.306 217.797C365.275 220.795 367.681 223.251 370.679 223.281Z" fill="#FFE0D9"/>
<path opacity="0.49" d="M338.215 212.663C342.475 212.706 345.964 209.288 346.007 205.028C346.051 200.767 342.632 197.278 338.372 197.235C334.112 197.192 330.623 200.61 330.579 204.87C330.536 209.13 333.954 212.619 338.215 212.663Z" fill="#FFE0D9"/>
<path d="M371.63 220.303L371.355 220.3" stroke="#C6896D" stroke-width="0.918875" stroke-miterlimit="10"/>
<path d="M352.208 220.619L351.385 220.61" stroke="#C6896D" stroke-width="0.918875" stroke-miterlimit="10"/>
<path d="M362.993 220.42L361.095 220.452" stroke="#C6896D" stroke-width="0.918875" stroke-miterlimit="10"/>
<path d="M363.785 217.37C363.073 218.509 362.806 219.87 363.034 221.193C363.263 222.516 363.97 223.708 365.021 224.543C366.073 225.378 367.395 225.796 368.735 225.718C370.075 225.64 371.34 225.072 372.288 224.121" stroke="#EE9E8D" stroke-width="0.918875" stroke-miterlimit="10" stroke-linecap="round"/>
<path d="M372.555 224.158C373.045 224.89 373.718 225.48 374.507 225.869C375.297 226.258 376.175 226.433 377.053 226.375C377.926 226.307 378.776 226.065 379.555 225.663C380.333 225.262 381.023 224.71 381.586 224.039C382.701 222.672 383.423 221.028 383.674 219.283C383.79 218.564 383.788 217.701 383.204 217.266" stroke="#EE9E8D" stroke-width="0.918875" stroke-miterlimit="10" stroke-linecap="round"/>
<path d="M384.161 218.144C382.447 218.127 380.956 219.174 379.631 220.241C378.305 221.308 376.933 222.499 375.251 222.728C373.568 222.956 371.551 221.833 371.626 220.131C369.9 221.256 367.775 222.246 365.897 221.461C365.347 221.224 364.863 220.855 364.487 220.388C364.112 219.922 363.856 219.37 363.742 218.782C363.641 218.192 363.678 217.587 363.849 217.014C364.02 216.441 364.322 215.915 364.73 215.477C365.371 214.832 366.212 214.423 367.116 214.316C368.02 214.209 368.933 214.41 369.708 214.888" stroke="#EE9E8D" stroke-width="0.918875" stroke-miterlimit="10" stroke-linecap="round"/>
<path d="M367.89 210.515C368.234 211.62 368.985 212.554 369.991 213.128C370.997 213.701 372.183 213.872 373.31 213.604C373.706 214.256 374.228 214.824 374.844 215.273C375.461 215.722 376.16 216.045 376.902 216.223C377.644 216.4 378.414 216.429 379.167 216.308C379.921 216.186 380.642 215.917 381.291 215.515" stroke="#EE9E8D" stroke-width="0.918875" stroke-miterlimit="10" stroke-linecap="round"/>
<path d="M366.336 213.74C366.192 213.213 366.205 212.655 366.372 212.135C366.54 211.615 366.855 211.156 367.28 210.812" stroke="#EE9E8D" stroke-width="0.918875" stroke-miterlimit="10" stroke-linecap="round"/>
<path d="M370.154 209.83C370.802 208.937 371.673 208.229 372.681 207.777C373.688 207.325 374.796 207.145 375.894 207.254C376.985 207.378 378.035 207.739 378.971 208.314C379.906 208.888 380.703 209.661 381.307 210.578C382.51 212.444 382.999 214.681 382.682 216.878" stroke="#EE9E8D" stroke-width="0.918875" stroke-miterlimit="10" stroke-linecap="round"/>
<path d="M370.61 216.138C370.477 216.666 370.533 217.223 370.768 217.714C371.002 218.205 371.401 218.598 371.896 218.826C372.39 219.053 372.948 219.101 373.474 218.96C373.999 218.819 374.459 218.499 374.773 218.055" stroke="#EE9E8D" stroke-width="0.918875" stroke-miterlimit="10" stroke-linecap="round"/>
<path d="M376.942 210.368C375.793 210.55 374.755 211.158 374.034 212.07C373.313 212.983 372.963 214.134 373.052 215.294" stroke="#EE9E8D" stroke-width="0.918875" stroke-miterlimit="10" stroke-linecap="round"/>
<path d="M351.639 219.904C351.576 220.154 351.491 220.398 351.385 220.633C351.339 220.736 351.286 220.832 351.234 220.935C349.65 223.85 344.129 223.868 341.498 222.961C341.202 223.296 340.81 223.531 340.376 223.636C339.942 223.741 339.485 223.71 339.069 223.548C338.636 223.41 338.251 223.15 337.962 222.799C337.573 222.241 337.356 221.581 337.337 220.9C337.319 220.219 337.5 219.548 337.859 218.969C338.685 217.532 340.231 216.634 341.097 215.219C341.506 214.543 341.746 213.778 341.794 212.99C341.843 212.201 341.7 211.412 341.378 210.691C343.403 210.734 345.395 211.21 347.221 212.087C349.353 213.184 351.522 215.669 351.77 218.243" stroke="#EE9E8D" stroke-width="0.918875" stroke-miterlimit="10" stroke-linecap="round"/>
<path d="M340.843 211.462C340.171 211.283 339.592 212.02 339.487 212.722C339.383 213.424 339.519 214.145 339.243 214.788C338.978 215.271 338.616 215.693 338.179 216.029C337.74 216.365 337.419 216.832 337.263 217.362C337.232 217.494 337.227 217.631 337.25 217.765C337.273 217.899 337.323 218.026 337.397 218.14C337.47 218.254 337.566 218.352 337.678 218.428C337.791 218.504 337.917 218.556 338.05 218.582" stroke="#EE9E8D" stroke-width="0.918875" stroke-miterlimit="10" stroke-linecap="round"/>
<path d="M338.407 212.129C337.588 212.672 336.943 213.441 336.551 214.342C336.159 215.244 336.038 216.24 336.201 217.21" stroke="#EE9E8D" stroke-width="0.918875" stroke-miterlimit="10" stroke-linecap="round"/>
<path d="M355.196 216.209C354.372 216.068 353.584 215.761 352.88 215.308C352.177 214.855 351.572 214.265 351.103 213.572C349.758 211.553 350.811 210.786 352.04 213.011C352.293 213.47 352.889 213.854 353.32 213.561C353.198 213.248 353.144 212.912 353.161 212.576C353.178 212.24 353.266 211.912 353.42 211.613C353.729 211.021 354.119 210.474 354.58 209.991C354.894 209.63 355.266 209.323 355.68 209.082C355.881 208.96 356.109 208.889 356.343 208.877C356.578 208.864 356.812 208.91 357.024 209.01C357.626 209.342 357.744 210.16 358.058 210.735C358.286 211.138 358.616 211.474 359.015 211.71C359.413 211.946 359.867 212.073 360.33 212.078C360.907 212.109 361.477 211.937 361.941 211.592C361.701 212.576 361.222 213.487 360.547 214.243C359.871 214.998 359.02 215.576 358.068 215.924" stroke="#EE9E8D" stroke-width="0.918875" stroke-miterlimit="10" stroke-linecap="round"/>
<path d="M356.777 222.574C358.102 222.507 359.369 222.014 360.39 221.169C361.412 220.324 362.134 219.171 362.448 217.883C362.143 218.102 361.795 218.255 361.427 218.332C361.059 218.408 360.68 218.407 360.312 218.328C359.945 218.249 359.598 218.094 359.294 217.872C358.99 217.651 358.736 217.369 358.548 217.043C358.234 216.429 358.117 215.633 357.514 215.318C357.301 215.219 357.067 215.175 356.833 215.188C356.598 215.202 356.371 215.273 356.171 215.396C355.772 215.646 355.419 215.961 355.127 216.328C354.665 216.809 354.275 217.354 353.967 217.945C353.815 218.24 353.727 218.564 353.707 218.896C353.688 219.227 353.739 219.559 353.856 219.87C353.425 220.168 352.828 219.785 352.576 219.325C351.347 217.078 350.305 217.839 351.639 219.887C352.209 220.723 352.976 221.405 353.872 221.874C354.768 222.342 355.766 222.583 356.777 222.574Z" stroke="#EE9E8D" stroke-width="0.918875" stroke-miterlimit="10" stroke-linecap="round"/>
<path d="M360.313 211.449C360.862 210.843 361.318 210.158 361.665 209.417C361.835 209.044 361.918 208.638 361.908 208.228C361.898 207.818 361.796 207.416 361.609 207.051C361.318 206.641 360.924 206.317 360.466 206.112C360.008 205.906 359.503 205.826 359.004 205.881C358.009 206.007 357.035 206.26 356.104 206.635C355.168 207.003 354.146 207.096 353.159 206.902C352.589 206.747 352.083 206.434 351.52 206.251C351.247 206.138 350.951 206.097 350.658 206.132C350.365 206.167 350.087 206.277 349.849 206.451C349.646 206.667 349.511 206.937 349.458 207.228C349.405 207.52 349.438 207.82 349.552 208.094C349.784 208.626 350.117 209.109 350.532 209.515" stroke="#EE9E8D" stroke-width="0.918875" stroke-miterlimit="10" stroke-linecap="round"/>
<path d="M362.665 210.01C363.067 210.195 363.517 210.249 363.952 210.165C364.386 210.081 364.784 209.862 365.087 209.54C365.391 209.218 365.586 208.809 365.645 208.371C365.704 207.932 365.623 207.486 365.415 207.095" stroke="#EE9E8D" stroke-width="0.918875" stroke-miterlimit="10" stroke-linecap="round"/>
<path d="M349.378 210.685C348.189 210.673 347.153 211.422 346.107 211.989C345.061 212.555 343.709 212.947 342.733 212.263C342.386 212.023 342.146 211.659 342.062 211.246C341.977 210.833 342.056 210.403 342.281 210.047C341.942 209.991 341.62 209.858 341.341 209.658C341.061 209.458 340.832 209.196 340.67 208.892C340.509 208.589 340.419 208.253 340.409 207.909C340.399 207.566 340.468 207.224 340.611 206.912C340.754 206.599 340.967 206.324 341.234 206.107C341.501 205.891 341.814 205.739 342.149 205.663C342.484 205.587 342.833 205.589 343.167 205.67C343.501 205.751 343.812 205.907 344.075 206.128C343.721 205.548 343.503 204.895 343.438 204.218C343.413 203.883 343.496 203.548 343.676 203.264C343.856 202.979 344.123 202.761 344.437 202.64C345.417 202.381 346.48 203.455 347.388 202.996C348.462 202.435 347.911 200.458 348.979 199.897C349.715 199.511 350.548 200.131 351.143 200.714L353.604 203.128C354.083 203.54 354.468 204.051 354.731 204.625C354.854 204.914 354.884 205.234 354.816 205.541C354.749 205.847 354.587 206.125 354.354 206.336" stroke="#EE9E8D" stroke-width="0.918875" stroke-miterlimit="10" stroke-linecap="round"/>
<path d="M348.416 199.613C348.124 199.271 347.76 198.999 347.349 198.817C346.938 198.635 346.492 198.547 346.043 198.56C345.594 198.573 345.153 198.686 344.754 198.892C344.354 199.097 344.006 199.39 343.734 199.748C343.225 200.429 342.97 201.352 342.222 201.761C341.692 201.957 341.143 202.097 340.584 202.179C340.071 202.383 339.621 202.717 339.278 203.149C338.935 203.58 338.71 204.094 338.627 204.639C338.469 205.727 338.508 206.835 338.742 207.909L338.901 208.042" stroke="#EE9E8D" stroke-width="0.918875" stroke-miterlimit="10" stroke-linecap="round"/>
<path d="M350.201 192.202C350.063 193.201 350.168 194.219 350.506 195.169C350.845 196.12 351.407 196.975 352.146 197.662C353.675 198.969 356.13 199.217 357.714 197.999C358.409 197.414 358.996 196.712 359.449 195.925L360.983 193.46C361.478 192.761 361.87 191.996 362.149 191.186C362.291 190.776 362.344 190.34 362.306 189.908C362.268 189.475 362.14 189.055 361.929 188.675C361.165 187.376 359.332 187.237 357.872 187.594C356.411 187.95 355.042 188.765 353.538 188.887C352.804 188.859 352.071 188.946 351.364 189.145C350.918 189.375 350.543 189.721 350.278 190.147C350.014 190.573 349.869 191.062 349.859 191.564C349.859 192.568 350.042 193.563 350.401 194.501" stroke="#EE9E8D" stroke-width="0.918875" stroke-miterlimit="10" stroke-linecap="round"/>
<path d="M354.045 195.098C354.276 194.357 355.091 193.966 355.808 193.682C356.526 193.397 357.313 192.931 357.407 192.132C357.41 191.764 357.287 191.407 357.059 191.118C356.832 190.829 356.513 190.626 356.155 190.542C355.435 190.397 354.692 190.421 353.983 190.611L354.127 193.236" stroke="#EE9E8D" stroke-width="0.918875" stroke-miterlimit="10" stroke-linecap="round"/>
<path d="M355.055 200.338C355.477 201.381 356.126 202.317 356.955 203.079C357.784 203.84 358.771 204.408 359.846 204.742C360.921 205.076 362.056 205.166 363.17 205.008C364.284 204.849 365.349 204.445 366.288 203.824C365.996 204.109 365.822 204.494 365.804 204.902C365.786 205.309 365.925 205.709 366.192 206.018C366.758 206.616 367.526 206.982 368.347 207.045C369.635 207.22 370.947 207.072 372.164 206.616C373.381 206.16 374.466 205.409 375.323 204.431" stroke="#EE9E8D" stroke-width="0.918875" stroke-miterlimit="10" stroke-linecap="round"/>
<path d="M375.654 204.503C377.413 204.652 379.06 203.395 379.842 201.803C380.624 200.211 380.677 198.382 380.552 196.615C380.535 195.642 380.317 194.683 379.912 193.797C379.706 193.353 379.389 192.97 378.991 192.683C378.594 192.397 378.13 192.218 377.643 192.163" stroke="#EE9E8D" stroke-width="0.918875" stroke-miterlimit="10" stroke-linecap="round"/>
<path d="M362.918 193.68C363.17 194.717 363.956 195.536 364.708 196.298L367.78 199.387C368.21 199.879 368.72 200.295 369.288 200.619C369.884 200.874 370.534 200.98 371.18 200.928C371.827 200.876 372.451 200.667 372.999 200.32C373.944 199.794 374.685 198.967 375.103 197.97C375.306 197.472 375.399 196.937 375.376 196.4C375.353 195.864 375.214 195.338 374.969 194.86" stroke="#EE9E8D" stroke-width="0.918875" stroke-miterlimit="10" stroke-linecap="round"/>
<path d="M366.556 203.444L367.714 201.941" stroke="#EE9E8D" stroke-width="0.918875" stroke-miterlimit="10" stroke-linecap="round"/>
<path d="M374.201 200.093C374.435 200.874 374.873 201.578 375.47 202.133C376.067 202.687 376.802 203.072 377.598 203.248" stroke="#EE9E8D" stroke-width="0.918875" stroke-miterlimit="10" stroke-linecap="round"/>
<path d="M358.826 197.576C358.94 198.448 359.238 199.287 359.7 200.035C360.162 200.784 360.778 201.426 361.506 201.92C362.234 202.413 363.059 202.747 363.925 202.898C364.792 203.049 365.681 203.015 366.533 202.798" stroke="#EE9E8D" stroke-width="0.918875" stroke-miterlimit="10" stroke-linecap="round"/>
<path d="M365.546 194.365C366.061 193.851 366.709 193.492 367.418 193.327C368.126 193.163 368.867 193.2 369.556 193.435C370.153 193.641 370.738 194.018 371.368 193.922C371.841 193.798 372.29 193.594 372.694 193.318C372.897 193.181 373.134 193.103 373.379 193.095C373.623 193.086 373.866 193.147 374.077 193.269" stroke="#EE9E8D" stroke-width="0.918875" stroke-miterlimit="10" stroke-linecap="round"/>
<path d="M365.203 191.046C366.124 190.215 367.312 189.743 368.552 189.715C369.792 189.686 371.001 190.104 371.959 190.892" stroke="#EE9E8D" stroke-width="0.918875" stroke-miterlimit="10" stroke-linecap="round"/>
<path d="M373.495 191.571L376.491 192.019" stroke="#EE9E8D" stroke-width="0.918875" stroke-miterlimit="10" stroke-linecap="round"/>
<path d="M384.673 216.641L387.187 216.141C387.852 216.51 388.57 216.774 389.316 216.923C389.933 217.037 390.556 217.108 391.182 217.136L393.609 217.31C395.654 217.532 397.715 217.551 399.763 217.367C400.437 217.323 401.089 217.107 401.656 216.74C402.548 216.075 402.818 214.878 403.029 213.783C403.391 211.895 403.704 209.789 402.577 208.206C401.98 207.377 401.048 206.848 400.37 206.087C399.562 205.181 399.151 204.005 398.562 202.954C397.973 201.902 397.075 200.875 395.87 200.72C395.081 200.683 394.294 200.84 393.58 201.177L389.094 202.845C388.022 203.205 386.997 203.689 386.039 204.289C385.078 204.899 384.365 205.832 384.029 206.92" stroke="#EE9E8D" stroke-width="0.918875" stroke-miterlimit="10" stroke-linecap="round"/>
<path d="M387.294 209.514C388.227 211.067 389.521 212.372 391.067 213.318C391.838 213.785 392.705 214.071 393.603 214.155C394.501 214.24 395.406 214.12 396.251 213.805C397.047 213.457 397.736 212.902 398.246 212.198C398.756 211.494 399.067 210.666 399.149 209.8" stroke="#EE9E8D" stroke-width="0.918875" stroke-miterlimit="10" stroke-linecap="round"/>
<path d="M395.957 209.671C396.426 208.71 396.649 207.648 396.605 206.58C396.574 205.74 396.23 204.753 395.414 204.562C395.029 204.506 394.635 204.549 394.27 204.687C393.526 204.828 392.836 205.178 392.283 205.696C391.974 206.084 391.739 206.525 391.589 206.997L390.074 211.056C390.268 210.981 390.479 210.961 390.684 210.997C390.889 211.033 391.08 211.125 391.237 211.262C391.394 211.398 391.51 211.576 391.574 211.774C391.637 211.972 391.645 212.184 391.597 212.386L391.901 212.327" stroke="#EE9E8D" stroke-width="0.918875" stroke-miterlimit="10" stroke-linecap="round"/>
<path d="M385.146 210.142C384.919 209.814 384.782 209.433 384.748 209.035C384.714 208.637 384.784 208.238 384.953 207.876C385.121 207.514 385.381 207.203 385.707 206.973C386.034 206.743 386.414 206.602 386.811 206.565" stroke="#EE9E8D" stroke-width="0.918875" stroke-miterlimit="10" stroke-linecap="round"/>
<path d="M380.325 202.041C380.687 201.601 381.136 201.24 381.643 200.98C382.15 200.72 382.705 200.566 383.274 200.528C383.842 200.49 384.413 200.568 384.95 200.759C385.487 200.949 385.98 201.247 386.398 201.635" stroke="#EE9E8D" stroke-width="0.918875" stroke-miterlimit="10" stroke-linecap="round"/>
<path d="M379.05 205.989C379.37 206.166 379.728 206.263 380.094 206.27C380.46 206.276 380.822 206.193 381.149 206.027C381.475 205.861 381.755 205.617 381.965 205.318C382.175 205.018 382.308 204.671 382.353 204.308" stroke="#EE9E8D" stroke-width="0.918875" stroke-miterlimit="10" stroke-linecap="round"/>
<path d="M381.001 191.848C380.984 191.629 381.034 191.411 381.146 191.222C381.257 191.033 381.424 190.882 381.623 190.791C382.028 190.622 382.462 190.537 382.9 190.542L386.874 190.331C387.785 190.195 388.716 190.332 389.55 190.724C390.823 191.485 391.062 193.214 391.03 194.699C390.989 196.501 390.758 198.293 390.341 200.047" stroke="#EE9E8D" stroke-width="0.918875" stroke-miterlimit="10" stroke-linecap="round"/>
<path d="M391.789 191.301C392.846 190.961 393.964 190.853 395.067 190.985C395.885 191.152 396.637 191.556 397.226 192.147C397.816 192.739 398.218 193.492 398.381 194.311C398.517 195.136 398.405 195.983 398.061 196.745C397.716 197.507 397.155 198.15 396.446 198.594" stroke="#EE9E8D" stroke-width="0.918875" stroke-miterlimit="10" stroke-linecap="round"/>
<path d="M393.781 193.304C393.625 193.415 393.51 193.573 393.452 193.755C393.393 193.937 393.396 194.133 393.458 194.314C393.521 194.495 393.64 194.65 393.798 194.757C393.956 194.865 394.145 194.918 394.336 194.909C394.662 194.884 394.984 194.676 395.297 194.776C395.451 194.852 395.58 194.97 395.669 195.117C395.757 195.264 395.802 195.433 395.798 195.604C395.843 196.229 395.686 196.851 395.35 197.38C395.014 197.908 394.518 198.315 393.933 198.54" stroke="#EE9E8D" stroke-width="0.918875" stroke-miterlimit="10" stroke-linecap="round"/>
<path d="M382.762 192.849C382.826 192.797 382.899 192.758 382.977 192.734C383.056 192.71 383.139 192.702 383.22 192.71C383.302 192.719 383.381 192.743 383.454 192.782C383.526 192.821 383.59 192.874 383.641 192.938C383.837 193.209 383.922 193.545 383.877 193.877C383.841 194.205 383.824 194.535 383.827 194.865C383.841 195.154 383.927 195.434 384.077 195.68C384.228 195.926 384.438 196.13 384.688 196.274C384.939 196.417 385.221 196.495 385.51 196.5C385.798 196.505 386.083 196.437 386.339 196.303C386.637 196.151 386.943 195.897 387.268 195.975C387.593 196.053 387.755 196.403 388.021 196.594C388.176 196.696 388.358 196.746 388.543 196.737C388.728 196.727 388.904 196.658 389.047 196.541C389.19 196.423 389.291 196.263 389.335 196.083C389.38 195.904 389.366 195.715 389.295 195.544" stroke="#EE9E8D" stroke-width="0.918875" stroke-miterlimit="10" stroke-linecap="round"/>
<path d="M376.156 188.918C375.976 188.596 375.878 188.233 375.871 187.864C375.865 187.494 375.949 187.129 376.118 186.8C376.286 186.471 376.533 186.189 376.837 185.978C377.141 185.767 377.492 185.635 377.859 185.593C378.288 185.54 378.721 185.601 379.156 185.606C379.375 185.613 379.593 185.57 379.792 185.479C379.991 185.387 380.167 185.251 380.304 185.08C380.536 184.734 380.501 184.265 380.676 183.884C380.798 183.667 380.972 183.482 381.181 183.347C381.391 183.211 381.63 183.129 381.879 183.108C382.381 183.068 382.887 183.114 383.374 183.243C384.581 183.43 385.722 183.917 386.692 184.66C387.603 185.475 388.057 186.96 387.378 187.953" stroke="#EE9E8D" stroke-width="0.918875" stroke-miterlimit="10" stroke-linecap="round"/>
<path d="M375.699 186.154L375.796 185.052C374.08 185.246 372.353 184.794 370.951 183.785C370.31 183.316 369.75 182.773 369.098 182.292C367.311 181.034 365.032 180.845 362.862 180.68C362.09 180.581 361.307 180.601 360.542 180.742C360.157 180.813 359.795 180.972 359.481 181.205C359.168 181.439 358.912 181.741 358.734 182.089C358.551 182.749 358.452 183.43 358.439 184.115C358.329 184.794 357.853 185.532 357.195 185.531" stroke="#EE9E8D" stroke-width="0.918875" stroke-miterlimit="10" stroke-linecap="round"/>
<path d="M362.577 183.334C362.815 183.165 363.097 183.071 363.388 183.063C363.679 183.055 363.965 183.133 364.212 183.287C364.695 183.612 365.131 184.001 365.509 184.444C365.888 184.887 366.403 185.194 366.974 185.316C367.545 185.39 368.119 185.167 368.648 185.436C368.862 185.575 369.029 185.775 369.129 186.01C369.228 186.246 369.255 186.505 369.206 186.756C369.109 187.254 368.909 187.727 368.62 188.144C368.335 188.566 368.136 189.04 368.034 189.538" stroke="#EE9E8D" stroke-width="0.918875" stroke-miterlimit="10" stroke-linecap="round"/>
<path d="M360.791 185.922C361.223 186.136 361.683 186.287 362.158 186.37C362.397 186.413 362.641 186.405 362.876 186.346C363.111 186.287 363.331 186.179 363.522 186.03C363.707 185.874 363.834 185.66 363.883 185.423C363.931 185.186 363.897 184.939 363.786 184.724C363.68 184.573 363.539 184.45 363.374 184.366C363.21 184.281 363.027 184.238 362.843 184.24C362.477 184.235 362.114 184.291 361.767 184.406" stroke="#EE9E8D" stroke-width="0.918875" stroke-miterlimit="10" stroke-linecap="round"/>
<path d="M351.813 188.201C351.365 186.938 350.552 185.836 349.478 185.035C348.404 184.234 347.116 183.769 345.778 183.699C343.11 183.643 340.489 185.662 340.045 188.298C341.553 188.092 343.036 187.735 344.473 187.234C346.194 186.629 348.004 185.653 348.633 183.94" stroke="#EE9E8D" stroke-width="0.918875" stroke-miterlimit="10" stroke-linecap="round"/>
<path d="M339.777 188.929C339.244 190.209 339.823 191.707 340.698 192.79C341.391 193.644 342.255 194.344 343.233 194.846C344.212 195.348 345.285 195.64 346.383 195.705" stroke="#EE9E8D" stroke-width="0.918875" stroke-miterlimit="10" stroke-linecap="round"/>
<path d="M347.803 189.273C348.455 190.197 348.86 191.273 348.979 192.397C349.097 193.522 348.926 194.658 348.48 195.698" stroke="#EE9E8D" stroke-width="0.918875" stroke-miterlimit="10" stroke-linecap="round"/>
<path d="M344.286 189.369C344.135 189.477 344.016 189.624 343.943 189.795C343.87 189.965 343.845 190.153 343.871 190.337C343.902 190.518 343.983 190.688 344.105 190.826C344.227 190.964 344.384 191.066 344.56 191.121C344.846 191.155 345.128 191.223 345.398 191.324C345.841 191.597 345.788 192.259 345.572 192.726C345.287 193.156 345.124 193.656 345.1 194.172" stroke="#EE9E8D" stroke-width="0.918875" stroke-miterlimit="10" stroke-linecap="round"/>
<path d="M342.467 187.318C342.151 186.96 342.403 186.369 342.811 186.121C343.242 185.925 343.697 185.788 344.164 185.712C344.617 185.585 345.094 185.276 345.145 184.808" stroke="#EE9E8D" stroke-width="0.918875" stroke-miterlimit="10" stroke-linecap="round"/>
<path d="M340.435 194.434C340.248 194.243 339.998 194.126 339.732 194.104C339.465 194.082 339.2 194.158 338.984 194.316C338.562 194.654 338.231 195.093 338.023 195.592L335.336 200.748C334.948 201.413 334.656 202.13 334.468 202.877C334.304 203.783 334.439 204.718 334.852 205.542C335.265 206.365 335.934 207.032 336.759 207.443" stroke="#EE9E8D" stroke-width="0.918875" stroke-miterlimit="10" stroke-linecap="round"/>
<path d="M340.603 201.333C341.14 201.023 341.61 200.61 341.986 200.117C342.361 199.624 342.635 199.061 342.792 198.461C342.949 197.862 342.984 197.237 342.898 196.623C342.811 196.01 342.603 195.419 342.286 194.887" stroke="#EE9E8D" stroke-width="0.918875" stroke-miterlimit="10" stroke-linecap="round"/>
<path d="M338.205 198.977C337.808 199.032 337.422 199.146 337.058 199.314C336.882 199.399 336.726 199.522 336.602 199.674C336.478 199.826 336.389 200.003 336.341 200.193C336.299 200.384 336.327 200.584 336.419 200.757C336.512 200.93 336.663 201.064 336.845 201.135C337.056 201.158 337.27 201.133 337.469 201.059C337.668 200.986 337.847 200.867 337.993 200.712L340.614 198.625" stroke="#EE9E8D" stroke-width="0.918875" stroke-miterlimit="10" stroke-linecap="round"/>
<path d="M337.182 208.996L336.314 212.267C335.919 213.544 335.713 214.873 335.703 216.21C335.7 216.88 335.845 217.543 336.127 218.151C336.409 218.76 336.822 219.298 337.335 219.729" stroke="#EE9E8D" stroke-width="0.918875" stroke-miterlimit="10" stroke-linecap="round"/>
<path d="M340.598 209.705C339.87 209.125 338.943 208.855 338.017 208.953C337.092 209.05 336.241 209.507 335.65 210.226" stroke="#EE9E8D" stroke-width="0.918875" stroke-miterlimit="10" stroke-linecap="round"/>
<path opacity="0.49" d="M354.341 200.256C358.601 200.299 362.09 196.881 362.133 192.62C362.177 188.36 358.758 184.871 354.498 184.828C350.238 184.784 346.749 188.203 346.705 192.463C346.662 196.723 350.08 200.212 354.341 200.256Z" fill="#FFE0D9"/>
<path d="M185.402 418.082C185.402 417.498 185.501 416.927 185.698 416.37C185.905 415.804 186.201 415.292 186.588 414.834C186.983 414.367 187.464 413.998 188.03 413.729C188.596 413.45 189.238 413.311 189.957 413.311C190.81 413.311 191.543 413.509 192.154 413.904C192.765 414.29 193.218 414.789 193.515 415.4L192.558 416.02C192.369 415.616 192.127 415.297 191.83 415.063C191.543 414.821 191.228 414.65 190.887 414.551C190.554 414.452 190.226 414.403 189.903 414.403C189.373 414.403 188.901 414.511 188.488 414.726C188.084 414.942 187.742 415.229 187.464 415.589C187.185 415.948 186.974 416.352 186.83 416.802C186.696 417.242 186.628 417.687 186.628 418.136C186.628 418.63 186.709 419.106 186.871 419.564C187.041 420.023 187.275 420.427 187.572 420.777C187.868 421.128 188.218 421.406 188.623 421.613C189.027 421.82 189.467 421.923 189.943 421.923C190.276 421.923 190.617 421.864 190.968 421.748C191.318 421.631 191.646 421.451 191.951 421.209C192.257 420.957 192.5 420.634 192.679 420.238L193.69 420.791C193.492 421.267 193.187 421.671 192.774 422.004C192.36 422.336 191.898 422.588 191.385 422.758C190.882 422.929 190.384 423.014 189.89 423.014C189.234 423.014 188.632 422.875 188.084 422.597C187.536 422.309 187.059 421.932 186.655 421.465C186.26 420.988 185.95 420.458 185.725 419.874C185.51 419.281 185.402 418.684 185.402 418.082ZM197.566 422.934V413.365H198.779V421.249L204.318 413.365H205.45V422.934H204.238V415.198L198.766 422.934H197.566ZM209.475 418.082C209.475 417.498 209.574 416.927 209.772 416.37C209.978 415.804 210.275 415.292 210.661 414.834C211.057 414.367 211.537 413.998 212.103 413.729C212.669 413.45 213.312 413.311 214.03 413.311C214.884 413.311 215.616 413.509 216.227 413.904C216.838 414.29 217.292 414.789 217.588 415.4L216.631 416.02C216.443 415.616 216.2 415.297 215.904 415.063C215.616 414.821 215.302 414.65 214.96 414.551C214.628 414.452 214.3 414.403 213.977 414.403C213.446 414.403 212.975 414.511 212.561 414.726C212.157 414.942 211.816 415.229 211.537 415.589C211.259 415.948 211.048 416.352 210.904 416.802C210.769 417.242 210.702 417.687 210.702 418.136C210.702 418.63 210.783 419.106 210.944 419.564C211.115 420.023 211.349 420.427 211.645 420.777C211.942 421.128 212.292 421.406 212.696 421.613C213.101 421.82 213.541 421.923 214.017 421.923C214.349 421.923 214.691 421.864 215.041 421.748C215.392 421.631 215.72 421.451 216.025 421.209C216.33 420.957 216.573 420.634 216.753 420.238L217.763 420.791C217.566 421.267 217.26 421.671 216.847 422.004C216.434 422.336 215.971 422.588 215.459 422.758C214.956 422.929 214.457 423.014 213.963 423.014C213.307 423.014 212.705 422.875 212.157 422.597C211.609 422.309 211.133 421.932 210.729 421.465C210.333 420.988 210.023 420.458 209.799 419.874C209.583 419.281 209.475 418.684 209.475 418.082ZM228.473 414.443H225.171V422.934H223.958V414.443H220.656V413.365H228.473V414.443ZM238.638 421.855V422.934H232.142V413.365H238.516V414.443H233.355V417.543H237.843V418.554H233.355V421.855H238.638ZM250.868 422.934V415.629L247.714 421.249H246.973L243.806 415.629V422.934H242.593V413.365H243.873L247.337 419.578L250.814 413.365H252.08V422.934H250.868ZM259.574 413.365H260.598L264.506 422.934H263.213L262.081 420.13H258.064L256.946 422.934H255.652L259.574 413.365ZM261.811 419.187L260.086 414.767L258.307 419.187H261.811ZM274.08 414.443H270.778V422.934H269.565V414.443H266.263V413.365H274.08V414.443ZM277.816 422.934V413.365H279.029V421.249L284.568 413.365H285.7V422.934H284.487V415.198L279.016 422.934H277.816ZM292.973 423.041C292.281 423.041 291.657 422.898 291.1 422.61C290.552 422.314 290.12 421.905 289.806 421.384L290.736 420.818C290.96 421.195 291.261 421.492 291.639 421.707C292.016 421.914 292.452 422.017 292.946 422.017C293.602 422.017 294.109 421.855 294.469 421.532C294.837 421.209 295.021 420.777 295.021 420.238C295.021 419.897 294.945 419.596 294.792 419.335C294.64 419.066 294.419 418.859 294.132 418.715C293.844 418.563 293.494 418.486 293.081 418.486H292.097V417.529H293.094C293.418 417.529 293.696 417.462 293.93 417.327C294.172 417.183 294.357 416.995 294.482 416.761C294.617 416.519 294.684 416.249 294.684 415.953C294.684 415.638 294.613 415.364 294.469 415.131C294.325 414.888 294.118 414.699 293.849 414.564C293.588 414.43 293.274 414.362 292.906 414.362C292.438 414.362 292.03 414.466 291.679 414.672C291.329 414.87 291.055 415.144 290.857 415.494L289.968 414.888C290.273 414.385 290.673 413.989 291.167 413.702C291.661 413.405 292.259 413.257 292.959 413.257C293.543 413.257 294.051 413.361 294.482 413.567C294.914 413.774 295.251 414.066 295.493 414.443C295.736 414.821 295.857 415.27 295.857 415.791C295.857 416.258 295.74 416.689 295.507 417.085C295.282 417.471 294.945 417.763 294.496 417.961C295.053 418.113 295.484 418.405 295.79 418.837C296.095 419.268 296.248 419.771 296.248 420.346C296.248 420.912 296.104 421.397 295.817 421.802C295.538 422.206 295.152 422.516 294.658 422.731C294.172 422.938 293.611 423.041 292.973 423.041ZM300.31 422.934V413.365H301.523V421.249L307.062 413.365H308.194V422.934H306.981V415.198L301.51 422.934H300.31ZM312.839 422.934V413.365H316.828C317.251 413.365 317.637 413.455 317.987 413.635C318.338 413.805 318.643 414.039 318.904 414.335C319.164 414.623 319.366 414.951 319.51 415.319C319.654 415.679 319.726 416.047 319.726 416.424C319.726 416.945 319.609 417.444 319.375 417.92C319.142 418.387 318.814 418.769 318.392 419.066C317.969 419.353 317.475 419.497 316.909 419.497H314.052V422.934H312.839ZM314.052 418.419H316.842C317.174 418.419 317.462 418.329 317.704 418.149C317.956 417.97 318.149 417.727 318.284 417.422C318.428 417.116 318.499 416.784 318.499 416.424C318.499 416.047 318.419 415.71 318.257 415.414C318.095 415.108 317.884 414.87 317.623 414.699C317.363 414.529 317.075 414.443 316.761 414.443H314.052V418.419ZM324.551 422.974V421.95H325.158C325.382 421.95 325.548 421.896 325.656 421.788C325.773 421.671 325.894 421.501 326.02 421.276L326.37 420.521L322.381 413.365H323.716L326.923 419.281L329.618 413.365H330.899L326.95 421.855C326.752 422.26 326.541 422.547 326.317 422.718C326.101 422.889 325.8 422.974 325.414 422.974H324.551ZM334.269 422.934V413.365H335.482V421.249L341.021 413.365H342.153V422.934H340.94V415.198L335.468 422.934H334.269ZM338.218 412.651C337.75 412.651 337.355 412.579 337.032 412.435C336.708 412.291 336.466 412.094 336.304 411.842C336.142 411.591 336.061 411.312 336.061 411.007H336.991C336.991 411.24 337.077 411.456 337.247 411.653C337.427 411.842 337.75 411.937 338.218 411.937C338.667 411.937 338.981 411.851 339.161 411.68C339.341 411.501 339.43 411.276 339.43 411.007H340.36C340.36 411.312 340.28 411.591 340.118 411.842C339.956 412.094 339.718 412.291 339.404 412.435C339.089 412.579 338.694 412.651 338.218 412.651ZM359.842 420.467C359.842 420.961 359.716 421.393 359.465 421.761C359.213 422.129 358.872 422.417 358.441 422.624C358.018 422.83 357.551 422.934 357.039 422.934H352.497V413.365H357.255C357.704 413.365 358.09 413.486 358.414 413.729C358.746 413.963 358.998 414.268 359.168 414.645C359.348 415.014 359.438 415.4 359.438 415.804C359.438 416.272 359.317 416.712 359.074 417.125C358.84 417.529 358.503 417.83 358.063 418.028C358.611 418.19 359.043 418.491 359.357 418.931C359.68 419.362 359.842 419.874 359.842 420.467ZM358.616 420.252C358.616 419.955 358.548 419.681 358.414 419.43C358.288 419.178 358.113 418.976 357.888 418.823C357.672 418.67 357.421 418.594 357.133 418.594H353.71V421.882H357.039C357.336 421.882 357.601 421.806 357.834 421.653C358.077 421.501 358.265 421.303 358.4 421.06C358.544 420.809 358.616 420.539 358.616 420.252ZM353.71 414.416V417.61H356.756C357.044 417.61 357.295 417.538 357.511 417.395C357.735 417.251 357.911 417.058 358.036 416.815C358.171 416.573 358.238 416.307 358.238 416.02C358.238 415.715 358.176 415.445 358.05 415.211C357.933 414.969 357.767 414.776 357.551 414.632C357.344 414.488 357.106 414.416 356.837 414.416H353.71ZM363.21 418.082C363.21 417.498 363.309 416.927 363.507 416.37C363.713 415.804 364.01 415.292 364.396 414.834C364.791 414.367 365.272 413.998 365.838 413.729C366.404 413.45 367.046 413.311 367.765 413.311C368.619 413.311 369.351 413.509 369.962 413.904C370.573 414.29 371.027 414.789 371.323 415.4L370.366 416.02C370.178 415.616 369.935 415.297 369.638 415.063C369.351 414.821 369.037 414.65 368.695 414.551C368.363 414.452 368.035 414.403 367.711 414.403C367.181 414.403 366.71 414.511 366.296 414.726C365.892 414.942 365.551 415.229 365.272 415.589C364.993 415.948 364.782 416.352 364.639 416.802C364.504 417.242 364.436 417.687 364.436 418.136C364.436 418.63 364.517 419.106 364.679 419.564C364.85 420.023 365.083 420.427 365.38 420.777C365.676 421.128 366.027 421.406 366.431 421.613C366.835 421.82 367.276 421.923 367.752 421.923C368.084 421.923 368.426 421.864 368.776 421.748C369.126 421.631 369.454 421.451 369.76 421.209C370.065 420.957 370.308 420.634 370.488 420.238L371.498 420.791C371.301 421.267 370.995 421.671 370.582 422.004C370.169 422.336 369.706 422.588 369.194 422.758C368.691 422.929 368.192 423.014 367.698 423.014C367.042 423.014 366.44 422.875 365.892 422.597C365.344 422.309 364.868 421.932 364.463 421.465C364.068 420.988 363.758 420.458 363.533 419.874C363.318 419.281 363.21 418.684 363.21 418.082ZM381.803 421.855V422.934H375.307V413.365H381.682V414.443H376.52V417.543H381.008V418.554H376.52V421.855H381.803ZM385.61 424.025L385.88 422.826H385.475V421.424H386.594V422.826L386.189 424.025H385.61ZM400.473 423.001C399.799 423.001 399.188 422.866 398.64 422.597C398.092 422.327 397.616 421.963 397.212 421.505C396.816 421.038 396.511 420.517 396.295 419.942C396.08 419.358 395.972 418.76 395.972 418.149C395.972 417.511 396.084 416.905 396.309 416.33C396.542 415.746 396.861 415.229 397.266 414.78C397.679 414.322 398.16 413.963 398.708 413.702C399.256 413.432 399.853 413.298 400.5 413.298C401.174 413.298 401.785 413.437 402.333 413.715C402.881 413.994 403.353 414.367 403.748 414.834C404.143 415.301 404.449 415.822 404.664 416.397C404.88 416.972 404.988 417.561 404.988 418.163C404.988 418.801 404.876 419.412 404.651 419.996C404.426 420.571 404.107 421.087 403.694 421.545C403.29 421.995 402.814 422.35 402.266 422.61C401.718 422.871 401.12 423.001 400.473 423.001ZM397.198 418.149C397.198 418.634 397.275 419.106 397.427 419.564C397.589 420.014 397.814 420.413 398.101 420.764C398.389 421.114 398.735 421.393 399.139 421.599C399.543 421.806 399.992 421.909 400.487 421.909C400.999 421.909 401.457 421.802 401.861 421.586C402.266 421.37 402.607 421.083 402.886 420.723C403.173 420.364 403.389 419.96 403.532 419.51C403.685 419.061 403.761 418.608 403.761 418.149C403.761 417.664 403.681 417.197 403.519 416.748C403.366 416.299 403.142 415.899 402.845 415.548C402.558 415.189 402.212 414.91 401.807 414.713C401.412 414.506 400.972 414.403 400.487 414.403C399.975 414.403 399.516 414.511 399.112 414.726C398.708 414.933 398.362 415.216 398.074 415.575C397.796 415.935 397.58 416.339 397.427 416.788C397.275 417.228 397.198 417.682 397.198 418.149ZM419.92 422.934V418.931C419.749 419.003 419.547 419.079 419.313 419.16C419.08 419.241 418.81 419.308 418.505 419.362C418.208 419.407 417.88 419.43 417.521 419.43C416.461 419.43 415.675 419.196 415.163 418.729C414.65 418.253 414.394 417.498 414.394 416.465V413.365H415.567V416.33C415.567 417.022 415.733 417.529 416.066 417.853C416.407 418.167 416.959 418.325 417.723 418.325C418.118 418.325 418.518 418.28 418.923 418.19C419.336 418.1 419.668 417.988 419.92 417.853V413.365H421.106V422.934H419.92ZM432.19 421.855V422.934H425.694V413.365H432.068V414.443H426.907V417.543H431.395V418.554H426.907V421.855H432.19ZM444.419 422.934V415.629L441.266 421.249H440.525L437.358 415.629V422.934H436.145V413.365H437.425L440.889 419.578L444.366 413.365H445.632V422.934H444.419ZM464.189 422.934V415.629L461.036 421.249H460.295L457.128 415.629V422.934H455.915V413.365H457.195L460.658 419.578L464.135 413.365H465.402V422.934H464.189ZM476.481 421.855V422.934H469.985V413.365H476.359V414.443H471.198V417.543H475.685V418.554H471.198V421.855H476.481ZM485.692 422.934V418.931C485.521 419.003 485.319 419.079 485.085 419.16C484.851 419.241 484.582 419.308 484.276 419.362C483.98 419.407 483.652 419.43 483.293 419.43C482.232 419.43 481.446 419.196 480.934 418.729C480.422 418.253 480.166 417.498 480.166 416.465V413.365H481.338V416.33C481.338 417.022 481.505 417.529 481.837 417.853C482.179 418.167 482.731 418.325 483.495 418.325C483.89 418.325 484.29 418.28 484.694 418.19C485.108 418.1 485.44 417.988 485.692 417.853V413.365H486.877V422.934H485.692ZM498.366 414.443H495.064V422.934H493.851V414.443H490.549V413.365H498.366V414.443ZM504.051 413.365H505.075L508.983 422.934H507.69L506.558 420.13H502.541L501.423 422.934H500.129L504.051 413.365ZM506.288 419.187L504.563 414.767L502.784 419.187H506.288ZM519.047 421.855V422.934H512.551V413.365H518.926V414.443H513.764V417.543H518.252V418.554H513.764V421.855H519.047ZM523.002 422.934V413.365H524.215V421.855H527.8V413.365H529.013V421.855H532.598V413.365H533.811V422.934H523.002ZM538.389 422.934V413.365H539.601V416.99H541.893C542.593 416.99 543.177 417.116 543.645 417.368C544.112 417.61 544.462 417.956 544.696 418.405C544.938 418.846 545.06 419.362 545.06 419.955C545.06 420.512 544.943 421.02 544.709 421.478C544.476 421.927 544.13 422.282 543.671 422.543C543.213 422.803 542.647 422.934 541.973 422.934H538.389ZM539.601 421.923H541.812C542.288 421.923 542.674 421.833 542.971 421.653C543.267 421.465 543.483 421.222 543.618 420.926C543.752 420.62 543.82 420.297 543.82 419.955C543.82 419.614 543.757 419.295 543.631 418.998C543.514 418.702 543.308 418.464 543.011 418.284C542.715 418.095 542.31 418.001 541.798 418.001H539.601V421.923ZM289.341 452.934V443.365H290.554V451.249L296.093 443.365H297.225V452.934H296.012V445.198L290.54 452.934H289.341ZM307.839 443.365L310.723 447.327L313.607 443.365H314.968L311.397 448.217L314.86 452.934H313.499L310.723 449.106L307.947 452.934H306.572L310.035 448.217L306.464 443.365H307.839ZM322.323 453.001C321.649 453.001 321.038 452.866 320.49 452.597C319.942 452.327 319.465 451.963 319.061 451.505C318.666 451.038 318.36 450.517 318.145 449.942C317.929 449.358 317.821 448.76 317.821 448.149C317.821 447.511 317.934 446.905 318.158 446.33C318.392 445.746 318.711 445.229 319.115 444.78C319.528 444.322 320.009 443.963 320.557 443.702C321.105 443.432 321.703 443.298 322.35 443.298C323.023 443.298 323.634 443.437 324.182 443.715C324.73 443.994 325.202 444.367 325.597 444.834C325.993 445.301 326.298 445.822 326.514 446.397C326.729 446.972 326.837 447.561 326.837 448.163C326.837 448.801 326.725 449.412 326.5 449.996C326.276 450.571 325.957 451.087 325.544 451.545C325.139 451.995 324.663 452.35 324.115 452.61C323.567 452.871 322.969 453.001 322.323 453.001ZM319.048 448.149C319.048 448.634 319.124 449.106 319.277 449.564C319.439 450.014 319.663 450.413 319.951 450.764C320.238 451.114 320.584 451.393 320.988 451.599C321.393 451.806 321.842 451.909 322.336 451.909C322.848 451.909 323.306 451.802 323.711 451.586C324.115 451.37 324.456 451.083 324.735 450.723C325.022 450.364 325.238 449.96 325.382 449.51C325.535 449.061 325.611 448.608 325.611 448.149C325.611 447.664 325.53 447.197 325.368 446.748C325.216 446.299 324.991 445.899 324.694 445.548C324.407 445.189 324.061 444.91 323.657 444.713C323.261 444.506 322.821 444.403 322.336 444.403C321.824 444.403 321.366 444.511 320.961 444.726C320.557 444.933 320.211 445.216 319.924 445.575C319.645 445.935 319.43 446.339 319.277 446.788C319.124 447.228 319.048 447.682 319.048 448.149ZM336.07 452.934V448.931C335.899 449.003 335.697 449.079 335.463 449.16C335.229 449.241 334.96 449.308 334.654 449.362C334.358 449.407 334.03 449.43 333.671 449.43C332.61 449.43 331.824 449.196 331.312 448.729C330.8 448.253 330.544 447.498 330.544 446.465V443.365H331.717V446.33C331.717 447.022 331.883 447.529 332.215 447.853C332.557 448.167 333.109 448.325 333.873 448.325C334.268 448.325 334.668 448.28 335.072 448.19C335.486 448.1 335.818 447.988 336.07 447.853V443.365H337.256V452.934H336.07ZM348.339 451.855V452.934H341.844V443.365H348.218V444.443H343.056V447.543H347.544V448.554H343.056V451.855H348.339ZM352.294 452.934V443.365H353.507V451.855H357.092V443.365H358.305V451.855H361.89V443.365H363.103V452.934H352.294ZM367.681 452.934V443.365H368.894V446.99H371.185C371.885 446.99 372.469 447.116 372.937 447.368C373.404 447.61 373.754 447.956 373.988 448.405C374.23 448.846 374.352 449.362 374.352 449.955C374.352 450.512 374.235 451.02 374.001 451.478C373.768 451.927 373.422 452.282 372.964 452.543C372.505 452.803 371.939 452.934 371.265 452.934H367.681ZM368.894 451.923H371.104C371.58 451.923 371.966 451.833 372.263 451.653C372.559 451.465 372.775 451.222 372.91 450.926C373.044 450.62 373.112 450.297 373.112 449.955C373.112 449.614 373.049 449.295 372.923 448.998C372.806 448.702 372.6 448.464 372.303 448.284C372.007 448.095 371.602 448.001 371.09 448.001H368.894V451.923ZM383.963 452.934V443.365H385.176V447.502H386.456L389.61 443.365H391.011L387.453 448.001L391.254 452.934H389.771L386.483 448.608H385.176V452.934H383.963ZM396.056 452.974V451.95H396.663C396.888 451.95 397.054 451.896 397.162 451.788C397.278 451.671 397.4 451.501 397.525 451.276L397.876 450.521L393.887 443.365H395.221L398.428 449.281L401.124 443.365H402.404L398.455 451.855C398.258 452.26 398.047 452.547 397.822 452.718C397.606 452.889 397.305 452.974 396.919 452.974H396.056ZM405.707 452.934V443.365H413.092V452.934H411.879V444.443H406.92V452.934H405.707ZM417.739 452.934V443.365H418.951V451.249L424.49 443.365H425.623V452.934H424.41V445.198L418.938 452.934H417.739ZM437.167 444.443H433.866V452.934H432.653V444.443H429.351V443.365H437.167V444.443ZM440.837 452.934V443.365H442.05V446.99H444.341C445.041 446.99 445.625 447.116 446.093 447.368C446.56 447.61 446.91 447.956 447.144 448.405C447.386 448.846 447.508 449.362 447.508 449.955C447.508 450.512 447.391 451.02 447.157 451.478C446.924 451.927 446.578 452.282 446.12 452.543C445.661 452.803 445.095 452.934 444.421 452.934H440.837ZM442.05 451.923H444.26C444.736 451.923 445.122 451.833 445.419 451.653C445.715 451.465 445.931 451.222 446.066 450.926C446.2 450.62 446.268 450.297 446.268 449.955C446.268 449.614 446.205 449.295 446.079 448.998C445.962 448.702 445.756 448.464 445.459 448.284C445.163 448.095 444.758 448.001 444.246 448.001H442.05V451.923Z" fill="#A96955"/>
</svg>
