<svg width="752" height="752" viewBox="0 0 752 752" fill="none" xmlns="http://www.w3.org/2000/svg">
<rect width="752" height="752" fill="#C8F0E9"/>
<rect width="752" height="752" fill="#FFFDFA"/>
<circle cx="376.218" cy="376.218" r="145.218" fill="#FFEBDC"/>
<circle cx="376.218" cy="376.218" r="144.462" stroke="#ECC296" stroke-opacity="0.25" stroke-width="1.51269"/>
<path d="M266.916 381.068L269.751 370.47H273.022L271.278 381.068H266.916ZM273.677 381.068L276.512 370.47H279.783L278.038 381.068H273.677ZM304.212 391.405V395.199H300.505V401H296.449V395.199H280.878V391.405L291.826 370.47H296.187L285.24 391.405H296.449V382.769H300.505V391.405H304.212ZM339.281 379.193V401H335.487V382.856H326.895V391.754C326.895 395.33 326.168 397.831 324.714 399.255C323.29 400.651 321.269 401.233 318.652 401V397.424C320.135 397.627 321.24 397.307 321.967 396.464C322.723 395.592 323.101 393.993 323.101 391.667V379.193H339.281ZM361.953 379.193H365.006V401H361.256V385.691L349.174 401H346.121V379.193H349.872V394.501L361.953 379.193ZM397.954 379.193H401.748V401H371.873V379.193H375.667V397.38H384.913V379.193H388.708V397.38H397.954V379.193ZM423.746 379.193H427.54V401H423.746V391.885H412.45V401H408.655V379.193H412.45V388.265H423.746V379.193ZM450.238 379.193H453.291V401H449.54V385.691L437.459 401H434.406V379.193H438.157V394.501L450.238 379.193ZM463.734 375.922V372.607H475.51V375.922H463.734ZM475.989 379.193H479.042V401H475.292V385.691L463.21 401H460.157V379.193H463.908V394.501L475.989 379.193ZM491.578 370.426L488.744 381.025H485.472L487.217 370.426H491.578ZM498.339 370.426L495.504 381.025H492.233L493.977 370.426H498.339Z" fill="#E74833"/>
<path d="M266.916 381.068L266.495 380.956L266.348 381.504H266.916V381.068ZM269.751 370.47V370.034H269.417L269.33 370.357L269.751 370.47ZM273.022 370.47L273.453 370.541L273.536 370.034H273.022V370.47ZM271.278 381.068V381.504H271.648L271.708 381.139L271.278 381.068ZM273.677 381.068L273.255 380.956L273.109 381.504H273.677V381.068ZM276.512 370.47V370.034H276.177L276.09 370.357L276.512 370.47ZM279.783 370.47L280.213 370.541L280.296 370.034H279.783V370.47ZM278.038 381.068V381.504H278.408L278.468 381.139L278.038 381.068ZM267.338 381.181L270.173 370.583L269.33 370.357L266.495 380.956L267.338 381.181ZM269.751 370.906H273.022V370.034H269.751V370.906ZM272.592 370.399L270.848 380.997L271.708 381.139L273.453 370.541L272.592 370.399ZM271.278 380.632H266.916V381.504H271.278V380.632ZM274.098 381.181L276.933 370.583L276.09 370.357L273.255 380.956L274.098 381.181ZM276.512 370.906H279.783V370.034H276.512V370.906ZM279.352 370.399L277.608 380.997L278.468 381.139L280.213 370.541L279.352 370.399ZM278.038 380.632H273.677V381.504H278.038V380.632ZM304.212 391.405H304.648V390.969H304.212V391.405ZM304.212 395.199V395.635H304.648V395.199H304.212ZM300.505 395.199V394.763H300.069V395.199H300.505ZM300.505 401V401.436H300.941V401H300.505ZM296.449 401H296.013V401.436H296.449V401ZM296.449 395.199H296.885V394.763H296.449V395.199ZM280.878 395.199H280.442V395.635H280.878V395.199ZM280.878 391.405L280.492 391.203L280.442 391.298V391.405H280.878ZM291.826 370.47V370.034H291.562L291.439 370.268L291.826 370.47ZM296.187 370.47L296.574 370.672L296.907 370.034H296.187V370.47ZM285.24 391.405L284.853 391.203L284.52 391.841H285.24V391.405ZM296.449 391.405V391.841H296.885V391.405H296.449ZM296.449 382.769V382.333H296.013V382.769H296.449ZM300.505 382.769H300.941V382.333H300.505V382.769ZM300.505 391.405H300.069V391.841H300.505V391.405ZM303.776 391.405V395.199H304.648V391.405H303.776ZM304.212 394.763H300.505V395.635H304.212V394.763ZM300.069 395.199V401H300.941V395.199H300.069ZM300.505 400.564H296.449V401.436H300.505V400.564ZM296.885 401V395.199H296.013V401H296.885ZM296.449 394.763H280.878V395.635H296.449V394.763ZM281.315 395.199V391.405H280.442V395.199H281.315ZM281.265 391.607L292.212 370.672L291.439 370.268L280.492 391.203L281.265 391.607ZM291.826 370.906H296.187V370.034H291.826V370.906ZM295.801 370.268L284.853 391.203L285.626 391.607L296.574 370.672L295.801 370.268ZM285.24 391.841H296.449V390.969H285.24V391.841ZM296.885 391.405V382.769H296.013V391.405H296.885ZM296.449 383.205H300.505V382.333H296.449V383.205ZM300.069 382.769V391.405H300.941V382.769H300.069ZM300.505 391.841H304.212V390.969H300.505V391.841ZM339.281 379.193H339.718V378.757H339.281V379.193ZM339.281 401V401.436H339.718V401H339.281ZM335.487 401H335.051V401.436H335.487V401ZM335.487 382.856H335.923V382.42H335.487V382.856ZM326.895 382.856V382.42H326.459V382.856H326.895ZM324.714 399.255L325.019 399.567L325.02 399.567L324.714 399.255ZM318.652 401H318.216V401.399L318.613 401.434L318.652 401ZM318.652 397.424L318.711 396.992L318.216 396.924V397.424H318.652ZM321.967 396.464L321.637 396.178L321.636 396.179L321.967 396.464ZM323.101 379.193V378.757H322.664V379.193H323.101ZM338.845 379.193V401H339.718V379.193H338.845ZM339.281 400.564H335.487V401.436H339.281V400.564ZM335.923 401V382.856H335.051V401H335.923ZM335.487 382.42H326.895V383.293H335.487V382.42ZM326.459 382.856V391.754H327.331V382.856H326.459ZM326.459 391.754C326.459 395.295 325.735 397.645 324.409 398.944L325.02 399.567C326.602 398.016 327.331 395.365 327.331 391.754H326.459ZM324.409 398.944C323.102 400.224 321.223 400.791 318.691 400.566L318.613 401.434C321.314 401.675 323.477 401.078 325.019 399.567L324.409 398.944ZM319.088 401V397.424H318.216V401H319.088ZM318.593 397.856C320.166 398.072 321.442 397.741 322.297 396.749L321.636 396.179C321.038 396.874 320.104 397.183 318.711 396.992L318.593 397.856ZM322.296 396.75C323.163 395.75 323.537 394.007 323.537 391.667H322.664C322.664 393.978 322.282 395.434 321.637 396.178L322.296 396.75ZM323.537 391.667V379.193H322.664V391.667H323.537ZM323.101 379.629H339.281V378.757H323.101V379.629ZM361.953 379.193V378.757H361.742L361.611 378.923L361.953 379.193ZM365.006 379.193H365.443V378.757H365.006V379.193ZM365.006 401V401.436H365.443V401H365.006ZM361.256 401H360.819V401.436H361.256V401ZM361.256 385.691H361.692V384.435L360.913 385.421L361.256 385.691ZM349.174 401V401.436H349.386L349.517 401.27L349.174 401ZM346.121 401H345.685V401.436H346.121V401ZM346.121 379.193V378.757H345.685V379.193H346.121ZM349.872 379.193H350.308V378.757H349.872V379.193ZM349.872 394.501H349.436V395.758L350.215 394.772L349.872 394.501ZM361.953 379.629H365.006V378.757H361.953V379.629ZM364.57 379.193V401H365.443V379.193H364.57ZM365.006 400.564H361.256V401.436H365.006V400.564ZM361.692 401V385.691H360.819V401H361.692ZM360.913 385.421L348.832 400.73L349.517 401.27L361.598 385.962L360.913 385.421ZM349.174 400.564H346.121V401.436H349.174V400.564ZM346.558 401V379.193H345.685V401H346.558ZM346.121 379.629H349.872V378.757H346.121V379.629ZM349.436 379.193V394.501H350.308V379.193H349.436ZM350.215 394.772L362.296 379.463L361.611 378.923L349.53 394.231L350.215 394.772ZM397.954 379.193V378.757H397.518V379.193H397.954ZM401.748 379.193H402.185V378.757H401.748V379.193ZM401.748 401V401.436H402.185V401H401.748ZM371.873 401H371.436V401.436H371.873V401ZM371.873 379.193V378.757H371.436V379.193H371.873ZM375.667 379.193H376.103V378.757H375.667V379.193ZM375.667 397.38H375.231V397.816H375.667V397.38ZM384.913 397.38V397.816H385.349V397.38H384.913ZM384.913 379.193V378.757H384.477V379.193H384.913ZM388.708 379.193H389.144V378.757H388.708V379.193ZM388.708 397.38H388.272V397.816H388.708V397.38ZM397.954 397.38V397.816H398.39V397.38H397.954ZM397.954 379.629H401.748V378.757H397.954V379.629ZM401.312 379.193V401H402.185V379.193H401.312ZM401.748 400.564H371.873V401.436H401.748V400.564ZM372.309 401V379.193H371.436V401H372.309ZM371.873 379.629H375.667V378.757H371.873V379.629ZM375.231 379.193V397.38H376.103V379.193H375.231ZM375.667 397.816H384.913V396.944H375.667V397.816ZM385.349 397.38V379.193H384.477V397.38H385.349ZM384.913 379.629H388.708V378.757H384.913V379.629ZM388.272 379.193V397.38H389.144V379.193H388.272ZM388.708 397.816H397.954V396.944H388.708V397.816ZM398.39 397.38V379.193H397.518V397.38H398.39ZM423.746 379.193V378.757H423.309V379.193H423.746ZM427.54 379.193H427.976V378.757H427.54V379.193ZM427.54 401V401.436H427.976V401H427.54ZM423.746 401H423.309V401.436H423.746V401ZM423.746 391.885H424.182V391.448H423.746V391.885ZM412.45 391.885V391.448H412.013V391.885H412.45ZM412.45 401V401.436H412.886V401H412.45ZM408.655 401H408.219V401.436H408.655V401ZM408.655 379.193V378.757H408.219V379.193H408.655ZM412.45 379.193H412.886V378.757H412.45V379.193ZM412.45 388.265H412.013V388.701H412.45V388.265ZM423.746 388.265V388.701H424.182V388.265H423.746ZM423.746 379.629H427.54V378.757H423.746V379.629ZM427.104 379.193V401H427.976V379.193H427.104ZM427.54 400.564H423.746V401.436H427.54V400.564ZM424.182 401V391.885H423.309V401H424.182ZM423.746 391.448H412.45V392.321H423.746V391.448ZM412.013 391.885V401H412.886V391.885H412.013ZM412.45 400.564H408.655V401.436H412.45V400.564ZM409.091 401V379.193H408.219V401H409.091ZM408.655 379.629H412.45V378.757H408.655V379.629ZM412.013 379.193V388.265H412.886V379.193H412.013ZM412.45 388.701H423.746V387.828H412.45V388.701ZM424.182 388.265V379.193H423.309V388.265H424.182ZM450.238 379.193V378.757H450.027L449.896 378.923L450.238 379.193ZM453.291 379.193H453.727V378.757H453.291V379.193ZM453.291 401V401.436H453.727V401H453.291ZM449.54 401H449.104V401.436H449.54V401ZM449.54 385.691H449.977V384.435L449.198 385.421L449.54 385.691ZM437.459 401V401.436H437.671L437.802 401.27L437.459 401ZM434.406 401H433.97V401.436H434.406V401ZM434.406 379.193V378.757H433.97V379.193H434.406ZM438.157 379.193H438.593V378.757H438.157V379.193ZM438.157 394.501H437.721V395.758L438.499 394.772L438.157 394.501ZM450.238 379.629H453.291V378.757H450.238V379.629ZM452.855 379.193V401H453.727V379.193H452.855ZM453.291 400.564H449.54V401.436H453.291V400.564ZM449.977 401V385.691H449.104V401H449.977ZM449.198 385.421L437.117 400.73L437.802 401.27L449.883 385.962L449.198 385.421ZM437.459 400.564H434.406V401.436H437.459V400.564ZM434.842 401V379.193H433.97V401H434.842ZM434.406 379.629H438.157V378.757H434.406V379.629ZM437.721 379.193V394.501H438.593V379.193H437.721ZM438.499 394.772L450.581 379.463L449.896 378.923L437.815 394.231L438.499 394.772ZM463.734 375.922H463.298V376.358H463.734V375.922ZM463.734 372.607V372.171H463.298V372.607H463.734ZM475.51 372.607H475.946V372.171H475.51V372.607ZM475.51 375.922V376.358H475.946V375.922H475.51ZM475.989 379.193V378.757H475.778L475.647 378.923L475.989 379.193ZM479.042 379.193H479.479V378.757H479.042V379.193ZM479.042 401V401.436H479.479V401H479.042ZM475.292 401H474.855V401.436H475.292V401ZM475.292 385.691H475.728V384.435L474.949 385.421L475.292 385.691ZM463.21 401V401.436H463.422L463.553 401.27L463.21 401ZM460.157 401H459.721V401.436H460.157V401ZM460.157 379.193V378.757H459.721V379.193H460.157ZM463.908 379.193H464.344V378.757H463.908V379.193ZM463.908 394.501H463.472V395.758L464.251 394.772L463.908 394.501ZM464.17 375.922V372.607H463.298V375.922H464.17ZM463.734 373.043H475.51V372.171H463.734V373.043ZM475.074 372.607V375.922H475.946V372.607H475.074ZM475.51 375.486H463.734V376.358H475.51V375.486ZM475.989 379.629H479.042V378.757H475.989V379.629ZM478.606 379.193V401H479.479V379.193H478.606ZM479.042 400.564H475.292V401.436H479.042V400.564ZM475.728 401V385.691H474.855V401H475.728ZM474.949 385.421L462.868 400.73L463.553 401.27L475.634 385.962L474.949 385.421ZM463.21 400.564H460.157V401.436H463.21V400.564ZM460.594 401V379.193H459.721V401H460.594ZM460.157 379.629H463.908V378.757H460.157V379.629ZM463.472 379.193V394.501H464.344V379.193H463.472ZM464.251 394.772L476.332 379.463L475.647 378.923L463.566 394.231L464.251 394.772ZM491.578 370.426L492 370.539L492.147 369.99H491.578V370.426ZM488.744 381.025V381.461H489.078L489.165 381.137L488.744 381.025ZM485.472 381.025L485.042 380.954L484.959 381.461H485.472V381.025ZM487.217 370.426V369.99H486.847L486.787 370.356L487.217 370.426ZM498.339 370.426L498.76 370.539L498.907 369.99H498.339V370.426ZM495.504 381.025V381.461H495.839L495.925 381.137L495.504 381.025ZM492.233 381.025L491.802 380.954L491.719 381.461H492.233V381.025ZM493.977 370.426V369.99H493.607L493.547 370.356L493.977 370.426ZM491.157 370.314L488.322 380.912L489.165 381.137L492 370.539L491.157 370.314ZM488.744 380.589H485.472V381.461H488.744V380.589ZM485.903 381.095L487.647 370.497L486.787 370.356L485.042 380.954L485.903 381.095ZM487.217 370.863H491.578V369.99H487.217V370.863ZM497.917 370.314L495.082 380.912L495.925 381.137L498.76 370.539L497.917 370.314ZM495.504 380.589H492.233V381.461H495.504V380.589ZM492.663 381.095L494.408 370.497L493.547 370.356L491.802 380.954L492.663 381.095ZM493.977 370.863H498.339V369.99H493.977V370.863Z" fill="#CC5725"/>
<path d="M359.185 320.667H361.176V332.66H358.633V325.032L352.492 332.66H350.501V320.667H353.044V328.271L359.185 320.667ZM372.817 320.667V323.161H367.372V332.66H364.781V320.667H372.817ZM381.961 320.355C383.608 320.355 385.015 320.971 386.182 322.202C387.35 323.417 387.933 324.904 387.933 326.663C387.933 328.438 387.35 329.934 386.182 331.149C385.015 332.364 383.608 332.972 381.961 332.972C380.138 332.972 378.738 332.3 377.763 330.957V337.458H375.172V320.667H377.763V322.394C378.738 321.034 380.138 320.355 381.961 320.355ZM378.842 329.422C379.562 330.142 380.465 330.501 381.553 330.501C382.64 330.501 383.544 330.142 384.263 329.422C384.983 328.686 385.343 327.767 385.343 326.663C385.343 325.56 384.983 324.649 384.263 323.929C383.544 323.193 382.64 322.826 381.553 322.826C380.465 322.826 379.562 323.193 378.842 323.929C378.123 324.649 377.763 325.56 377.763 326.663C377.763 327.767 378.123 328.686 378.842 329.422ZM400.38 320.667H402.97V332.66H400.38V330.933C399.404 332.292 398.005 332.972 396.182 332.972C394.535 332.972 393.128 332.364 391.96 331.149C390.793 329.918 390.209 328.422 390.209 326.663C390.209 324.888 390.793 323.393 391.96 322.178C393.128 320.963 394.535 320.355 396.182 320.355C398.005 320.355 399.404 321.026 400.38 322.37V320.667ZM393.879 329.422C394.599 330.142 395.502 330.501 396.59 330.501C397.677 330.501 398.581 330.142 399.3 329.422C400.02 328.686 400.38 327.767 400.38 326.663C400.38 325.56 400.02 324.649 399.3 323.929C398.581 323.193 397.677 322.826 396.59 322.826C395.502 322.826 394.599 323.193 393.879 323.929C393.16 324.649 392.8 325.56 392.8 326.663C392.8 327.767 393.16 328.686 393.879 329.422Z" fill="#63473C"/>
<g clip-path="url(#clip0_1331_124921)">
<path d="M116.951 412.168C102.484 386.927 85.0829 373.36 74.0333 377.152C71.8 377.864 69.8193 379.205 68.3287 381.014C66.8381 382.823 65.9008 385.024 65.629 387.352C65.7434 398.697 92.7211 407.841 117.418 413.913C106.745 410.749 77.1775 402.689 72.1747 411.524C71.6376 412.568 71.3787 413.733 71.4232 414.906C71.4677 416.079 71.8138 417.22 72.4285 418.221C78.6026 427.991 112.378 416.321 117.987 414.36C112.091 417.605 87.6943 431.456 87.9123 445.803C88.0735 447.143 88.0108 450.9 90.178 452.11C94.869 454.744 105.201 443.76 105.82 443.098C112.831 435.251 117.12 425.349 118.048 414.867C112.388 442.088 116.145 446.12 117.974 446.966C118.691 447.212 119.455 447.293 120.208 447.202C120.961 447.112 121.684 446.852 122.322 446.444C123.108 445.945 125.139 444.193 124.374 435.684C123.691 428.921 121.791 422.338 118.765 416.251" stroke="#FFB7B7" stroke-width="2.0042" stroke-miterlimit="10"/>
<path d="M119.883 410.899C111.607 383.038 113.892 361.075 124.266 355.638C126.319 354.499 128.657 353.98 130.999 354.142C133.341 354.304 135.586 355.14 137.462 356.55C145.755 364.375 133.651 390.276 121.094 412.407C126.147 402.463 140.619 375.469 150.503 377.883C151.626 378.22 152.643 378.838 153.458 379.68C154.274 380.521 154.86 381.557 155.162 382.69C158.016 393.889 126.327 410.381 121.032 413.113C127.438 411.056 154.243 402.871 164.531 412.919C165.491 413.869 168.19 416.448 167.568 418.913C166.276 424.067 151.166 424.046 150.283 424.042C139.759 423.765 129.611 420.069 121.374 413.513C145.185 428.11 145.335 433.643 144.715 435.519C144.425 436.234 143.975 436.873 143.4 437.389C142.825 437.904 142.14 438.281 141.397 438.491C140.455 438.604 137.773 438.926 132.154 432.544C127.708 427.418 124.245 421.517 121.937 415.136" stroke="#FFB7B7" stroke-width="2.0042" stroke-miterlimit="10"/>
<path d="M126.861 430.601C127.73 430.224 124.447 420.73 119.529 409.395C114.611 398.06 109.919 389.177 109.05 389.555C108.181 389.932 111.464 399.426 116.382 410.761C121.3 422.095 125.992 430.978 126.861 430.601Z" stroke="#FFB7B7" stroke-width="1.40294" stroke-miterlimit="10"/>
</g>
<g clip-path="url(#clip1_1331_124921)">
<path d="M630.527 478.846C639.295 460.818 640.275 445.645 633.83 440.822C632.558 439.826 631.027 439.218 629.418 439.07C627.81 438.923 626.193 439.242 624.761 439.99C618.344 444.455 623.597 463.367 629.715 479.789C627.378 472.483 620.504 452.515 613.531 453.092C612.728 453.191 611.965 453.495 611.314 453.975C610.663 454.456 610.147 455.096 609.815 455.833C606.644 463.139 626.389 477.851 629.681 480.286C625.546 478.186 608.196 469.661 600.109 475.349C599.408 475.96 597.244 477.382 597.395 479.085C597.714 482.779 607.976 484.404 608.594 484.5C615.782 485.45 623.085 484.054 629.416 480.517C611.716 487.849 610.876 491.553 611.104 492.923C611.242 493.427 611.492 493.893 611.836 494.287C612.179 494.681 612.607 494.992 613.088 495.197C613.676 495.451 615.462 495.929 620.012 492.193C623.599 489.181 626.612 485.546 628.906 481.463" stroke="#3FADAC" stroke-width="1.38102" stroke-miterlimit="10"/>
<path d="M632.387 480.024C645.047 464.506 658.443 457.291 665.563 461.091C667.008 461.819 668.21 462.949 669.026 464.346C669.842 465.742 670.236 467.345 670.16 468.961C668.919 476.719 649.473 479.868 631.998 481.298C639.621 480.32 660.609 478.096 663.067 484.662C663.31 485.432 663.352 486.251 663.189 487.042C663.026 487.832 662.663 488.568 662.135 489.179C656.863 495.147 635.181 483.493 631.571 481.537C635.227 484.388 650.284 496.482 648.55 506.238C648.381 507.153 647.959 509.691 646.314 510.292C642.877 511.555 637.029 502.94 636.689 502.436C632.766 496.334 630.936 489.121 631.476 481.887C632.395 501.11 629.302 503.341 627.993 503.715C627.473 503.827 626.935 503.819 626.418 503.691C625.902 503.563 625.421 503.319 625.014 502.977C624.584 502.485 623.36 501.082 624.816 495.407C626.012 490.887 628.03 486.625 630.77 482.836" stroke="#3FADAC" stroke-width="1.38102" stroke-miterlimit="10"/>
<path d="M623.872 491.639C624.423 491.987 628.558 486.436 633.107 479.239C637.656 472.043 640.897 465.926 640.345 465.577C639.793 465.228 635.658 470.779 631.109 477.976C626.56 485.173 623.32 491.29 623.872 491.639Z" stroke="#3FADAC" stroke-width="0.966714" stroke-miterlimit="10"/>
</g>
<g clip-path="url(#clip2_1331_124921)">
<path d="M164.772 196.07C171.505 176.893 170.727 161.498 163.675 157.39C162.279 156.535 160.665 156.1 159.028 156.139C157.391 156.177 155.799 156.687 154.445 157.607C148.5 162.85 155.991 181.286 164.063 197.114C160.86 190.027 151.614 170.717 144.658 172.109C143.861 172.302 143.127 172.697 142.528 173.256C141.928 173.816 141.483 174.52 141.235 175.302C138.891 183.029 160.488 195.55 164.086 197.619C159.678 195.985 141.212 189.417 133.729 196.086C133.094 196.783 131.079 198.466 131.43 200.164C132.181 203.847 142.706 204.291 143.339 204.315C150.689 204.437 157.882 202.181 163.846 197.883C146.873 207.326 146.458 211.153 146.846 212.507C147.044 212.998 147.35 213.439 147.742 213.795C148.134 214.152 148.601 214.416 149.109 214.566C149.731 214.754 151.585 215.027 155.733 210.735C158.995 207.285 161.607 203.274 163.442 198.894" fill="#FFB7B7"/>
<path d="M164.772 196.07C171.505 176.893 170.727 161.498 163.675 157.39C162.279 156.535 160.665 156.1 159.028 156.139C157.391 156.177 155.799 156.687 154.445 157.607C148.5 162.85 155.991 181.286 164.063 197.114C160.86 190.027 151.614 170.717 144.658 172.109C143.861 172.302 143.127 172.697 142.528 173.256C141.928 173.816 141.483 174.52 141.235 175.302C138.891 183.029 160.488 195.55 164.086 197.619C159.678 195.985 141.212 189.417 133.729 196.086C133.094 196.783 131.079 198.466 131.43 200.164C132.181 203.847 142.706 204.291 143.339 204.315C150.689 204.437 157.882 202.181 163.846 197.883C146.873 207.326 146.458 211.153 146.846 212.507C147.044 212.998 147.35 213.439 147.742 213.795C148.134 214.152 148.601 214.416 149.109 214.566C149.731 214.754 151.585 215.027 155.733 210.735C158.995 207.285 161.607 203.274 163.442 198.894" stroke="#FFB7B7" stroke-width="1.03249" stroke-miterlimit="10"/>
<path d="M166.785 197.042C177.73 179.941 190.383 171.116 197.996 174.115C199.535 174.68 200.878 175.679 201.862 176.991C202.846 178.303 203.429 179.871 203.541 181.507C203.193 189.465 183.974 194.899 166.54 198.371C174.105 196.5 194.984 191.818 198.223 198.145C198.558 198.892 198.695 199.713 198.623 200.528C198.551 201.343 198.271 202.127 197.81 202.803C193.194 209.427 170.002 200.212 166.139 198.661C170.152 201.107 186.724 211.537 186.112 221.564C186.048 222.506 185.918 225.111 184.331 225.907C181.017 227.579 174.125 219.583 173.724 219.114C169.063 213.425 166.381 206.373 166.084 199.025C169.245 218.278 166.389 220.885 165.115 221.414C164.604 221.587 164.061 221.642 163.526 221.573C162.991 221.504 162.478 221.314 162.028 221.018C161.538 220.572 160.143 219.301 160.949 213.416C161.627 208.724 163.164 204.198 165.483 200.063" fill="#FFB7B7"/>
<path d="M166.785 197.042C177.73 179.941 190.383 171.116 197.996 174.115C199.535 174.68 200.878 175.679 201.862 176.991C202.846 178.303 203.429 179.871 203.541 181.507C203.193 189.465 183.974 194.899 166.54 198.371C174.105 196.5 194.984 191.818 198.223 198.145C198.558 198.892 198.695 199.713 198.623 200.528C198.551 201.343 198.271 202.127 197.81 202.803C193.194 209.427 170.002 200.212 166.139 198.661C170.152 201.107 186.724 211.537 186.112 221.564C186.048 222.506 185.918 225.111 184.331 225.907C181.017 227.579 174.125 219.583 173.724 219.114C169.063 213.425 166.381 206.373 166.084 199.025C169.245 218.278 166.389 220.885 165.115 221.414C164.604 221.587 164.061 221.642 163.526 221.573C162.991 221.504 162.478 221.314 162.028 221.018C161.538 220.572 160.143 219.301 160.949 213.416C161.627 208.724 163.164 204.198 165.483 200.063" stroke="#FFB7B7" stroke-width="1.03249" stroke-miterlimit="10"/>
</g>
<g clip-path="url(#clip3_1331_124921)">
<path d="M645.104 197.612C629.5 182.825 614.302 176.924 607.289 181.956C605.86 182.934 604.743 184.304 604.073 185.901C603.403 187.498 603.207 189.255 603.51 190.96C606.003 198.964 627.037 199.7 645.805 198.748C637.58 198.777 614.943 199.359 613.281 206.675C613.122 207.527 613.187 208.407 613.468 209.227C613.749 210.048 614.236 210.782 614.884 211.359C621.33 216.961 642.75 201.523 646.303 198.943C642.82 202.492 628.5 217.48 631.704 227.587C632.103 228.501 632.858 231.173 634.649 231.568C638.528 232.435 643.505 222.466 643.802 221.866C647.095 214.822 648.025 206.904 646.454 199.289C648.235 219.755 651.751 221.81 653.225 222.02C653.785 222.041 654.343 221.936 654.856 221.712C655.37 221.488 655.826 221.15 656.191 220.725C656.641 220.205 657.706 218.534 655.355 212.675C653.435 208.035 650.691 203.78 647.256 200.115" fill="#3FADAC"/>
<path d="M646.911 196.09C635.132 178.134 632.08 162.106 638.265 156.052C639.476 154.81 641.02 153.946 642.712 153.563C644.403 153.179 646.17 153.294 647.797 153.893C655.329 157.668 652.27 178.569 648.089 196.9C649.551 188.789 654.053 166.61 661.561 166.217C662.427 166.217 663.278 166.438 664.034 166.861C664.79 167.283 665.425 167.891 665.879 168.628C670.28 175.947 651.361 194.354 648.194 197.413C652.291 194.596 669.52 183.105 678.936 188.028C679.817 188.497 682.276 189.748 682.359 191.625C682.54 195.547 671.843 198.744 671.218 198.929C663.711 200.97 655.744 200.512 648.522 197.623C668.475 202.892 669.757 206.775 669.717 208.234C669.664 208.802 669.481 209.35 669.184 209.837C668.886 210.323 668.482 210.736 668.001 211.043C667.358 211.323 665.529 212.121 660.196 208.799C655.96 206.117 652.255 202.677 649.265 198.652" fill="#3FADAC"/>
<path d="M656.036 208.551C656.571 208.099 652.23 202.078 646.34 195.102C640.45 188.127 635.241 182.838 634.707 183.29C634.172 183.741 638.513 189.762 644.403 196.738C650.293 203.713 655.501 209.002 656.036 208.551Z" fill="#3FADAC"/>
</g>
<defs>
<clipPath id="clip0_1331_124921">
<rect width="98.5393" height="94.2328" fill="white" transform="translate(62 361.765) rotate(-6.85669)"/>
</clipPath>
<clipPath id="clip1_1331_124921">
<rect width="67.8999" height="64.9324" fill="white" transform="translate(637.928 428) rotate(48.8961)"/>
</clipPath>
<clipPath id="clip2_1331_124921">
<rect width="68.8399" height="65.8314" fill="white" transform="translate(166.312 144) rotate(42.3086)"/>
</clipPath>
<clipPath id="clip3_1331_124921">
<rect width="72.0553" height="68.8733" fill="white" transform="translate(596 173.82) rotate(-23.5768)"/>
</clipPath>
</defs>
</svg>
