<svg width="24" height="24" viewBox="0 0 24 24" fill="none" xmlns="http://www.w3.org/2000/svg">
<path d="M6.78937 2.26715L8.21223 1.83858C8.85993 1.64317 9.55661 1.69015 10.1722 1.97075C10.7878 2.25134 11.2803 2.74637 11.5577 3.36344L12.4431 5.33315C12.6817 5.86378 12.7481 6.45579 12.6331 7.0261C12.5182 7.59642 12.2275 8.11643 11.8019 8.51315L10.2548 9.95572C10.2357 9.97358 10.22 9.99479 10.2085 10.0183C10.0465 10.3492 10.2925 11.2329 11.0631 12.5683C11.9322 14.0734 12.6034 14.6683 12.9145 14.5766L14.9451 13.9552C15.5012 13.7853 16.0965 13.7938 16.6475 13.9793C17.1986 14.1648 17.6778 14.5182 18.0179 14.9897L19.2762 16.7323C19.6713 17.2794 19.8543 17.9514 19.7912 18.6233C19.7281 19.2952 19.4233 19.9214 18.9334 20.3854L17.8508 21.4097C17.4743 21.7663 17.0172 22.0265 16.5184 22.1682C16.0196 22.3098 15.4939 22.3287 14.9862 22.2232C11.9717 21.5957 9.2708 19.1683 6.86051 14.994C4.44937 10.8172 3.69766 7.26001 4.66623 4.33458C4.82836 3.84481 5.106 3.40127 5.4757 3.04142C5.84539 2.68158 6.29626 2.41601 6.79023 2.26715H6.78937ZM7.16137 3.49801C6.86498 3.58728 6.59443 3.74659 6.37259 3.96246C6.15074 4.17834 5.98412 4.44445 5.8868 4.73829C5.05194 7.25915 5.72823 10.4614 7.97394 14.3512C10.2179 18.2383 12.6505 20.424 15.2477 20.964C15.5524 21.0274 15.868 21.016 16.1674 20.931C16.4668 20.8459 16.7412 20.6896 16.9671 20.4754L18.0488 19.452C18.3127 19.2022 18.477 18.865 18.511 18.5032C18.5451 18.1414 18.4466 17.7795 18.2339 17.4849L16.9757 15.7414C16.7925 15.4876 16.5346 15.2974 16.2379 15.1974C15.9412 15.0975 15.6208 15.0929 15.3214 15.1843L13.2857 15.8074C12.1594 16.1426 11.0999 15.204 9.94966 13.2103C8.97509 11.5234 8.63737 10.3046 9.05394 9.45344C9.13451 9.28887 9.24423 9.14058 9.37794 9.01544L10.9251 7.57287C11.1543 7.35925 11.3109 7.07921 11.3729 6.77206C11.4348 6.46491 11.399 6.14607 11.2705 5.86029L10.3851 3.89144C10.2357 3.55909 9.97052 3.29246 9.63896 3.14136C9.30741 2.99025 8.93219 2.96499 8.58337 3.07029L7.16051 3.49887L7.16137 3.49801Z" fill="black"/>
</svg>
