<svg width="17" height="18" viewBox="0 0 17 18" fill="none" xmlns="http://www.w3.org/2000/svg">
<path d="M14.7964 7.85966C14.816 5.49666 12.8035 3.33057 10.3106 3.0307C10.2567 3.02398 10.203 3.01581 10.1496 3.00619C10.0243 2.9822 9.89723 2.96853 9.76968 2.96533C9.25819 2.96533 9.12173 3.32485 9.08578 3.53811C9.05065 3.74646 9.08415 3.92214 9.18465 4.05859C9.35379 4.28819 9.65202 4.32904 9.89143 4.36173C9.96088 4.37153 10.0271 4.38052 10.0826 4.39278C12.3231 4.89365 13.0772 5.6805 13.4457 7.90215C13.4547 7.95608 13.4588 8.02308 13.4637 8.09416C13.4801 8.35971 13.5127 8.91206 14.1068 8.91206C14.1558 8.91206 14.2097 8.90798 14.2653 8.89981C14.8176 8.81565 14.8005 8.31069 14.7923 8.06802C14.7898 7.99938 14.7874 7.93483 14.7939 7.89153C14.7952 7.88068 14.7958 7.86976 14.7956 7.85884L14.7964 7.85966Z" fill="black"/>
<path d="M9.62473 2.16414C9.69173 2.16904 9.75383 2.17395 9.80612 2.1813C13.4854 2.74754 15.1776 4.49038 15.6458 8.1983C15.654 8.26121 15.6556 8.33802 15.6564 8.41891C15.6613 8.70898 15.6711 9.31198 16.3183 9.32424H16.3379C16.5413 9.32424 16.7023 9.26296 16.8183 9.14203C17.0193 8.93204 17.0063 8.6191 16.994 8.36744C16.9916 8.30534 16.9891 8.24732 16.9891 8.19585C17.0365 4.40458 13.7535 0.96548 9.96546 0.838015C9.94911 0.838015 9.93441 0.838015 9.9197 0.840466C9.9048 0.842347 9.88978 0.843166 9.87476 0.842917C9.83636 0.842917 9.7906 0.839649 9.74076 0.83638C9.68193 0.832295 9.61411 0.827393 9.54466 0.827393C8.94165 0.827393 8.82726 1.25636 8.81255 1.51211C8.77905 2.10286 9.35019 2.14453 9.62473 2.16414V2.16414ZM15.4685 12.9905C15.3896 12.9305 15.3114 12.8695 15.234 12.8075C14.832 12.4839 14.4047 12.1865 13.992 11.8981L13.7347 11.7183C13.2052 11.3465 12.7296 11.1659 12.2803 11.1659C11.674 11.1659 11.1461 11.5009 10.7098 12.1603C10.517 12.4529 10.2825 12.595 9.99405 12.595C9.79372 12.588 9.59713 12.5387 9.41719 12.4504C7.70949 11.6758 6.48877 10.4878 5.79098 8.91978C5.45352 8.16153 5.56301 7.66638 6.15621 7.26274C6.49367 7.03396 7.12037 6.60826 7.07707 5.79199C7.02641 4.86623 4.98288 2.07916 4.12168 1.76295C3.75351 1.62866 3.34995 1.6275 2.98103 1.75968C1.99154 2.09224 1.28231 2.67727 0.926882 3.44941C0.583707 4.19623 0.600048 5.07296 0.971004 5.98482C2.04547 8.62155 3.55544 10.9208 5.46006 12.8181C7.32383 14.6753 9.61493 16.1959 12.2688 17.339C12.5082 17.442 12.7591 17.4983 12.9429 17.5392C13.005 17.5531 13.0589 17.5653 13.0982 17.576C13.1197 17.5818 13.142 17.5848 13.1643 17.585H13.1856C14.4341 17.585 15.9334 16.4443 16.3934 15.1443C16.7971 14.0053 16.0601 13.4423 15.4685 12.9905V12.9905ZM10.1771 5.17673C9.96382 5.18163 9.51851 5.19307 9.36245 5.64573C9.28891 5.85817 9.2979 6.0412 9.38859 6.19236C9.52096 6.41297 9.77507 6.48161 10.0055 6.51919C10.843 6.6532 11.2736 7.11566 11.3594 7.97605C11.3994 8.37642 11.6699 8.65668 12.0155 8.65668C12.0417 8.65664 12.0679 8.65501 12.094 8.65178C12.5107 8.60276 12.7125 8.29635 12.6945 7.74155C12.701 7.16306 12.3987 6.50612 11.8831 5.98319C11.3668 5.45862 10.7441 5.16284 10.1771 5.17673V5.17673Z" fill="black"/>
</svg>
