<svg width="23" height="18" viewBox="0 0 23 18" fill="none" xmlns="http://www.w3.org/2000/svg">
<path d="M0.063839 13.357L3.31199 2.54256C3.37441 2.32383 3.48607 2.1223 3.63842 1.9534C3.79077 1.78449 3.97975 1.6527 4.1909 1.56812H4.24822L4.1909 1.54901C5.25669 1.12197 6.36015 0.795725 7.48681 0.574564C7.5853 0.555098 7.68665 0.555225 7.78509 0.574939C7.88353 0.594653 7.97712 0.633567 8.06051 0.689459C8.1439 0.74535 8.21547 0.817123 8.27112 0.900678C8.32676 0.984234 8.36541 1.07793 8.38483 1.17643C8.40573 1.27434 8.40693 1.37543 8.38838 1.47382C8.36982 1.5722 8.33188 1.66591 8.27675 1.74949C8.22163 1.83306 8.15043 1.90483 8.06729 1.96062C7.98416 2.01641 7.89076 2.05511 7.79252 2.07444C7.36262 2.16043 6.94227 2.26551 6.53148 2.38015C6.38017 2.45869 6.25947 2.58556 6.18856 2.74059C6.11765 2.89562 6.10061 3.0699 6.14014 3.23573C6.17968 3.40156 6.27352 3.54941 6.40674 3.65577C6.53997 3.76213 6.70493 3.82089 6.8754 3.82271H6.95183C8.42403 3.43877 9.93958 3.24612 11.461 3.24951C12.9467 3.24508 14.4268 3.4313 15.8651 3.80361C16.0482 3.8519 16.2426 3.83055 16.4108 3.74371C16.579 3.65686 16.7089 3.51069 16.7755 3.33351C16.8421 3.15632 16.8406 2.96073 16.7712 2.78461C16.7019 2.60848 16.5696 2.46436 16.4001 2.38015H16.3906C15.9798 2.26551 15.5594 2.16043 15.1295 2.07444C15.031 2.05502 14.9373 2.01638 14.8538 1.96073C14.7702 1.90508 14.6984 1.83351 14.6426 1.75012C14.5867 1.66673 14.5477 1.57314 14.528 1.4747C14.5083 1.37627 14.5082 1.27491 14.5277 1.17643C14.5692 0.978747 14.6863 0.805137 14.8541 0.69268C15.0219 0.580222 15.227 0.537832 15.4257 0.574564C16.5564 0.800672 17.6632 1.13334 18.7311 1.56812C18.9423 1.6527 19.1313 1.78449 19.2836 1.9534C19.436 2.1223 19.5476 2.32383 19.6101 2.54256L22.8582 13.357C22.9425 13.6397 22.9431 13.9408 22.86 14.2239C22.777 14.507 22.6138 14.76 22.3901 14.9524C22.3022 15.0371 22.2097 15.1168 22.113 15.1912H22.1035C20.5558 16.4523 18.521 17.4172 16.2282 17.9713C16.1695 17.9901 16.1083 17.9997 16.0466 17.9999C15.8577 18.0029 15.6743 17.9358 15.5319 17.8115C15.3896 17.6873 15.2983 17.5146 15.2757 17.327C15.2532 17.1394 15.3009 16.95 15.4098 16.7955C15.5186 16.6411 15.6808 16.5324 15.8651 16.4905C16.8959 16.2415 17.898 15.8861 18.8553 15.4301C18.9864 15.3073 19.07 15.1423 19.0915 14.964C19.1131 14.7858 19.0711 14.6056 18.9731 14.4552C18.8751 14.3047 18.7272 14.1936 18.5555 14.1413C18.3837 14.0889 18.199 14.0988 18.0337 14.169C16.2186 14.9715 13.9353 15.4778 11.461 15.4778C8.9867 15.4778 6.70344 14.9715 4.8883 14.169C4.72305 14.0988 4.53834 14.0889 4.36657 14.1413C4.1948 14.1936 4.04694 14.3047 3.94892 14.4552C3.8509 14.6056 3.80899 14.7858 3.83052 14.964C3.85206 15.1423 3.93568 15.3073 4.06671 15.4301C5.02404 15.8861 6.02615 16.2415 7.05691 16.4905C7.24119 16.5324 7.40342 16.6411 7.51227 16.7955C7.62112 16.95 7.66888 17.1394 7.64631 17.327C7.62375 17.5146 7.53247 17.6873 7.3901 17.8115C7.24773 17.9358 7.06436 18.0029 6.8754 17.9999C6.81378 17.9997 6.75257 17.9901 6.69389 17.9713C4.40107 17.4172 2.3662 16.4523 0.818556 15.1912H0.809002C0.712327 15.1168 0.619839 15.0371 0.531956 14.9524C0.308282 14.76 0.145064 14.507 0.0620003 14.2239C-0.0210638 13.9408 -0.0204255 13.6397 0.063839 13.357ZM14.5181 12.0386C14.7448 12.0386 14.9665 11.9714 15.155 11.8454C15.3435 11.7194 15.4905 11.5404 15.5772 11.3309C15.664 11.1214 15.6867 10.8909 15.6425 10.6686C15.5982 10.4462 15.4891 10.2419 15.3287 10.0816C15.1684 9.92126 14.9641 9.81207 14.7418 9.76784C14.5194 9.7236 14.2889 9.7463 14.0794 9.83307C13.8699 9.91984 13.6909 10.0668 13.5649 10.2553C13.4389 10.4438 13.3717 10.6655 13.3717 10.8922C13.3717 11.1963 13.4925 11.4879 13.7075 11.7028C13.9225 11.9178 14.2141 12.0386 14.5181 12.0386ZM8.40394 12.0386C8.63068 12.0386 8.85232 11.9714 9.04085 11.8454C9.22937 11.7194 9.37631 11.5404 9.46308 11.3309C9.54985 11.1214 9.57255 10.8909 9.52832 10.6686C9.48408 10.4462 9.3749 10.2419 9.21457 10.0816C9.05424 9.92126 8.84997 9.81207 8.62759 9.76784C8.40521 9.7236 8.17471 9.7463 7.96523 9.83307C7.75575 9.91984 7.57671 10.0668 7.45074 10.2553C7.32477 10.4438 7.25753 10.6655 7.25753 10.8922C7.25753 11.1963 7.37832 11.4879 7.59331 11.7028C7.8083 11.9178 8.09989 12.0386 8.40394 12.0386Z" fill="black"/>
</svg>
