<svg width="27" height="26" viewBox="0 0 27 26" fill="none" xmlns="http://www.w3.org/2000/svg">
<path d="M13.3602 6.76368C12.1768 6.76368 11.02 7.11459 10.0361 7.77204C9.05215 8.42948 8.28526 9.36394 7.83241 10.4572C7.37955 11.5505 7.26106 12.7536 7.49192 13.9142C7.72279 15.0748 8.29264 16.141 9.12941 16.9777C9.96618 17.8145 11.0323 18.3843 12.1929 18.6152C13.3536 18.8461 14.5566 18.7276 15.6499 18.2747C16.7432 17.8219 17.6777 17.055 18.3351 16.071C18.9926 15.0871 19.3435 13.9303 19.3435 12.7469C19.3435 11.1601 18.7131 9.63821 17.591 8.51613C16.4689 7.39405 14.9471 6.76368 13.3602 6.76368ZM13.3602 17.1693C12.4855 17.1693 11.6305 16.91 10.9033 16.424C10.176 15.9381 9.60916 15.2474 9.27444 14.4393C8.93972 13.6312 8.85214 12.742 9.02278 11.8842C9.19342 11.0263 9.61461 10.2383 10.2331 9.61982C10.8516 9.00133 11.6396 8.58014 12.4974 8.4095C13.3553 8.23886 14.2445 8.32644 15.0526 8.66116C15.8607 8.99588 16.5514 9.56271 17.0373 10.29C17.5232 11.0172 17.7826 11.8723 17.7826 12.7469C17.7792 13.9188 17.3121 15.0416 16.4835 15.8702C15.6549 16.6989 14.532 17.1659 13.3602 17.1693ZM19.0833 0H7.6371C5.77427 0 3.98773 0.740007 2.67051 2.05723C1.35329 3.37445 0.613281 5.16099 0.613281 7.02382V18.47C0.613281 20.3329 1.35329 22.1194 2.67051 23.4366C3.98773 24.7538 5.77427 25.4939 7.6371 25.4939H19.0833C20.9462 25.4939 22.7327 24.7538 24.0499 23.4366C25.3671 22.1194 26.1071 20.3329 26.1071 18.47V7.02382C26.1071 5.16099 25.3671 3.37445 24.0499 2.05723C22.7327 0.740007 20.9462 0 19.0833 0ZM24.5463 18.47C24.5463 19.9189 23.9707 21.3084 22.9462 22.3329C21.9217 23.3574 20.5322 23.933 19.0833 23.933H7.6371C6.18823 23.933 4.7987 23.3574 3.7742 22.3329C2.74969 21.3084 2.17413 19.9189 2.17413 18.47V7.02382C2.17413 5.57495 2.74969 4.18542 3.7742 3.16091C4.7987 2.13641 6.18823 1.56085 7.6371 1.56085H19.0833C20.5322 1.56085 21.9217 2.13641 22.9462 3.16091C23.9707 4.18542 24.5463 5.57495 24.5463 7.02382V18.47ZM21.4246 5.98325C21.4246 6.24051 21.3483 6.49199 21.2054 6.70589C21.0625 6.91979 20.8593 7.0865 20.6216 7.18495C20.384 7.2834 20.1224 7.30915 19.8701 7.25897C19.6178 7.20878 19.3861 7.0849 19.2041 6.90299C19.0222 6.72108 18.8984 6.48932 18.8482 6.23701C18.798 5.9847 18.8237 5.72317 18.9222 5.48549C19.0206 5.24782 19.1874 5.04468 19.4013 4.90175C19.6152 4.75883 19.8666 4.68255 20.1239 4.68255C20.4689 4.68255 20.7997 4.81958 21.0436 5.06351C21.2876 5.30744 21.4246 5.63828 21.4246 5.98325Z" fill="white"/>
</svg>
