<svg width="24" height="22" viewBox="0 0 24 22" fill="none" xmlns="http://www.w3.org/2000/svg">
<path d="M22.8325 0.378164C22.6202 0.194239 22.3618 0.0715196 22.0851 0.0231423C21.8084 -0.025235 21.5237 0.00255105 21.2616 0.103526L0.982375 8.06801C0.671219 8.18856 0.40771 8.40703 0.231609 8.69047C0.0555075 8.97391 -0.0236319 9.30694 0.00613171 9.6393C0.0358954 9.97166 0.172947 10.2853 0.396608 10.533C0.620268 10.7806 0.918403 10.9488 1.24603 11.0121L6.57399 12.0777V18.691C6.57435 18.994 6.66421 19.2902 6.83229 19.5423C7.00037 19.7944 7.23918 19.9912 7.51875 20.1081C7.70725 20.1849 7.90843 20.2259 8.11196 20.229C8.31412 20.2302 8.51447 20.191 8.70125 20.1136C8.88802 20.0363 9.05744 19.9223 9.19953 19.7786L12.1986 16.7795L16.6807 20.7233C16.9583 20.9723 17.3184 21.1093 17.6913 21.1078C17.852 21.1091 18.0117 21.0831 18.1637 21.0309C18.4174 20.9503 18.6453 20.8043 18.8247 20.6076C19.004 20.4109 19.1284 20.1704 19.1853 19.9104L23.3269 1.88318C23.3888 1.61107 23.3755 1.32725 23.2884 1.06213C23.2013 0.797006 23.0437 0.560574 22.8325 0.378164ZM1.33391 9.5181C1.32623 9.47179 1.33527 9.42426 1.35942 9.384C1.38358 9.34375 1.42126 9.3134 1.46574 9.29839L18.4383 2.63019L7.07933 10.8364L1.50968 9.71584C1.46113 9.71041 1.41631 9.6872 1.38385 9.65069C1.3514 9.61418 1.33361 9.56695 1.33391 9.5181ZM8.26576 18.8448C8.2353 18.8767 8.19549 18.8982 8.15207 18.9061C8.10864 18.914 8.06383 18.9079 8.02408 18.8887C7.98546 18.8719 7.9525 18.8443 7.92912 18.8092C7.90575 18.7742 7.89295 18.7331 7.89225 18.691V12.9895L11.1989 15.9117L8.26576 18.8448ZM17.911 19.6138C17.9035 19.6519 17.886 19.6873 17.8604 19.7165C17.8347 19.7456 17.8018 19.7674 17.7649 19.7797C17.7281 19.792 17.6887 19.7943 17.6506 19.7864C17.6126 19.7785 17.5774 19.7606 17.5485 19.7346L8.28773 11.5834L22.0196 1.67445L17.911 19.6138Z" fill="#3CA1FF"/>
</svg>
