<svg width="752" height="752" viewBox="0 0 752 752" fill="none" xmlns="http://www.w3.org/2000/svg">
<rect width="752" height="752" fill="#DFE1F6"/>
<g clip-path="url(#clip0_1331_125155)">
<rect x="214" y="53" width="225.971" height="489.302" rx="30.7561" fill="#050521"/>
<g filter="url(#filter0_f_1331_125155)">
<path d="M513.86 184.47C352.822 242.176 517.849 281.712 469.12 297.57C420.392 313.427 362.674 286.911 337.397 241.894C301.883 178.645 339.455 96.1605 388.183 80.3031C436.912 64.4457 493.043 120.502 513.86 184.47Z" fill="url(#paint0_radial_1331_125155)"/>
</g>
<g filter="url(#filter1_f_1331_125155)">
<path d="M213.15 427.344C266.053 390.349 143.36 346.393 184.153 322.487C224.945 298.581 283.783 313.795 317.306 352.557C364.407 407.019 325.361 432.536 284.568 456.442C243.775 480.348 202.582 475.166 213.15 427.344Z" fill="url(#paint1_radial_1331_125155)"/>
</g>
<g filter="url(#filter2_f_1331_125155)">
<path d="M378.706 369.297C406.807 350.089 345.629 332.981 367.156 320.366C388.683 307.75 418.201 313.168 434.093 330.554C456.422 354.982 435.736 368.309 414.209 380.924C392.682 393.539 371.847 392.346 378.706 369.297Z" fill="url(#paint2_radial_1331_125155)"/>
</g>
<path d="M240.637 364.197H241.116V370.524H240.637V367.496H236.958V370.524H236.479V364.197H236.958V367.044H240.637V364.197ZM246.932 366.005H247.393V370.524H246.932V369.503C246.74 369.853 246.474 370.127 246.137 370.326C245.8 370.524 245.417 370.624 244.989 370.624C244.344 370.624 243.793 370.398 243.335 369.946C242.877 369.488 242.648 368.928 242.648 368.265C242.648 367.602 242.877 367.044 243.335 366.593C243.793 366.135 244.344 365.906 244.989 365.906C245.417 365.906 245.8 366.005 246.137 366.204C246.474 366.403 246.74 366.677 246.932 367.026V366.005ZM243.66 369.63C244.034 370.003 244.489 370.19 245.025 370.19C245.561 370.19 246.013 370.003 246.381 369.63C246.749 369.256 246.932 368.801 246.932 368.265C246.932 367.728 246.749 367.273 246.381 366.9C246.013 366.526 245.561 366.339 245.025 366.339C244.489 366.339 244.034 366.526 243.66 366.9C243.293 367.273 243.109 367.728 243.109 368.265C243.109 368.801 243.293 369.256 243.66 369.63ZM252.144 366.005H252.605V370.524H252.144V368.753C251.746 368.952 251.288 369.051 250.77 369.051C250.191 369.051 249.745 368.919 249.432 368.653C249.119 368.382 248.962 367.991 248.962 367.478V366.005H249.414V367.478C249.414 368.238 249.86 368.617 250.752 368.617C251.246 368.617 251.71 368.521 252.144 368.328V366.005ZM257.631 366.005H258.092V370.524H257.631V368.482H254.811V370.524H254.359V366.005H254.811V368.048H257.631V366.005ZM263.184 366.005H263.582V370.524H263.121V366.791L260.247 370.524H259.849V366.005H260.301V369.738L263.184 366.005ZM271.843 366.005V370.524H271.382V366.448H268.562V370.524H268.11V366.005H271.843ZM277.27 366.005V370.524H276.818V366.448H274.541V368.626C274.541 369.361 274.405 369.871 274.134 370.154C273.863 370.437 273.492 370.561 273.022 370.524V370.1C273.384 370.13 273.652 370.033 273.826 369.81C274.001 369.587 274.089 369.193 274.089 368.626V366.005H277.27ZM282.997 366.005H283.458V370.524H282.997V369.503C282.804 369.853 282.539 370.127 282.202 370.326C281.864 370.524 281.481 370.624 281.054 370.624C280.409 370.624 279.857 370.398 279.4 369.946C278.942 369.488 278.713 368.928 278.713 368.265C278.713 367.602 278.942 367.044 279.4 366.593C279.857 366.135 280.409 365.906 281.054 365.906C281.481 365.906 281.864 366.005 282.202 366.204C282.539 366.403 282.804 366.677 282.997 367.026V366.005ZM279.725 369.63C280.099 370.003 280.553 370.19 281.09 370.19C281.626 370.19 282.078 370.003 282.446 369.63C282.813 369.256 282.997 368.801 282.997 368.265C282.997 367.728 282.813 367.273 282.446 366.9C282.078 366.526 281.626 366.339 281.09 366.339C280.553 366.339 280.099 366.526 279.725 366.9C279.357 367.273 279.174 367.728 279.174 368.265C279.174 368.801 279.357 369.256 279.725 369.63ZM288.479 366.005H288.94V370.524H288.479V368.482H285.659V370.524H285.207V366.005H285.659V368.048H288.479V366.005ZM294.033 366.005H294.43V370.524H293.969V366.791L291.095 370.524H290.697V366.005H291.149V369.738L294.033 366.005ZM298.583 365.906C299.233 365.906 299.785 366.135 300.237 366.593C300.695 367.044 300.924 367.602 300.924 368.265C300.924 368.928 300.695 369.488 300.237 369.946C299.785 370.398 299.233 370.624 298.583 370.624C298.155 370.624 297.769 370.521 297.426 370.317C297.088 370.112 296.826 369.831 296.639 369.476V372.332H296.187V366.005H296.639V367.054C296.826 366.698 297.088 366.418 297.426 366.213C297.769 366.008 298.155 365.906 298.583 365.906ZM297.191 369.63C297.564 370.003 298.019 370.19 298.555 370.19C299.092 370.19 299.544 370.003 299.911 369.63C300.285 369.256 300.472 368.801 300.472 368.265C300.472 367.728 300.285 367.273 299.911 366.9C299.544 366.526 299.092 366.339 298.555 366.339C298.019 366.339 297.564 366.526 297.191 366.9C296.823 367.273 296.639 367.728 296.639 368.265C296.639 368.801 296.823 369.256 297.191 369.63ZM304.445 370.624C303.782 370.624 303.218 370.398 302.754 369.946C302.296 369.488 302.067 368.928 302.067 368.265C302.067 367.602 302.296 367.044 302.754 366.593C303.218 366.135 303.782 365.906 304.445 365.906C305.101 365.906 305.659 366.135 306.117 366.593C306.581 367.044 306.813 367.602 306.813 368.265C306.813 368.928 306.581 369.488 306.117 369.946C305.659 370.398 305.101 370.624 304.445 370.624ZM303.08 369.63C303.453 370.003 303.908 370.19 304.445 370.19C304.981 370.19 305.433 370.003 305.8 369.63C306.168 369.256 306.352 368.801 306.352 368.265C306.352 367.728 306.168 367.273 305.8 366.9C305.433 366.526 304.981 366.339 304.445 366.339C303.908 366.339 303.453 366.526 303.08 366.9C302.712 367.273 302.528 367.728 302.528 368.265C302.528 368.801 302.712 369.256 303.08 369.63ZM311.046 368.192C311.576 368.367 311.841 368.729 311.841 369.277C311.841 369.639 311.721 369.937 311.48 370.172C311.245 370.407 310.901 370.524 310.449 370.524H308.262V366.005H310.278C310.705 366.005 311.037 366.116 311.272 366.339C311.507 366.562 311.624 366.846 311.624 367.189C311.624 367.671 311.432 368.006 311.046 368.192ZM310.278 366.448H308.714V368.012H310.278C310.567 368.012 310.787 367.942 310.937 367.804C311.088 367.665 311.163 367.469 311.163 367.216C311.163 366.975 311.085 366.788 310.928 366.656C310.778 366.517 310.561 366.448 310.278 366.448ZM310.449 370.082C310.751 370.082 310.983 370.009 311.145 369.865C311.308 369.72 311.389 369.518 311.389 369.259C311.389 369.006 311.305 368.81 311.136 368.671C310.974 368.527 310.745 368.455 310.449 368.455H308.714V370.082H310.449ZM317.182 366.005H317.643V370.524H317.182V369.503C316.989 369.853 316.724 370.127 316.386 370.326C316.049 370.524 315.666 370.624 315.238 370.624C314.594 370.624 314.042 370.398 313.584 369.946C313.126 369.488 312.897 368.928 312.897 368.265C312.897 367.602 313.126 367.044 313.584 366.593C314.042 366.135 314.594 365.906 315.238 365.906C315.666 365.906 316.049 366.005 316.386 366.204C316.724 366.403 316.989 366.677 317.182 367.026V366.005ZM313.91 369.63C314.283 370.003 314.738 370.19 315.275 370.19C315.811 370.19 316.263 370.003 316.63 369.63C316.998 369.256 317.182 368.801 317.182 368.265C317.182 367.728 316.998 367.273 316.63 366.9C316.263 366.526 315.811 366.339 315.275 366.339C314.738 366.339 314.283 366.526 313.91 366.9C313.542 367.273 313.358 367.728 313.358 368.265C313.358 368.801 313.542 369.256 313.91 369.63ZM322.556 366.005V366.448H320.911V370.524H320.459V366.448H318.814V366.005H322.556ZM325.524 367.759C325.94 367.759 326.293 367.888 326.582 368.147C326.871 368.406 327.016 368.738 327.016 369.141C327.016 369.545 326.871 369.877 326.582 370.136C326.293 370.395 325.94 370.524 325.524 370.524H323.735V366.005H324.186V367.759H325.524ZM325.524 370.082C325.813 370.082 326.058 369.994 326.256 369.819C326.455 369.645 326.555 369.419 326.555 369.141C326.555 368.858 326.455 368.632 326.256 368.464C326.064 368.289 325.82 368.201 325.524 368.201H324.186V370.082H325.524ZM333.21 370.624C332.529 370.624 331.962 370.398 331.51 369.946C331.058 369.494 330.832 368.934 330.832 368.265C330.832 367.596 331.058 367.035 331.51 366.583C331.962 366.132 332.529 365.906 333.21 365.906C333.649 365.906 334.047 366.011 334.403 366.222C334.758 366.427 335.017 366.707 335.18 367.063L334.809 367.279C334.677 366.99 334.466 366.761 334.177 366.593C333.894 366.424 333.571 366.339 333.21 366.339C332.667 366.339 332.212 366.526 331.845 366.9C331.477 367.267 331.293 367.722 331.293 368.265C331.293 368.807 331.477 369.265 331.845 369.639C332.212 370.006 332.667 370.19 333.21 370.19C333.571 370.19 333.894 370.106 334.177 369.937C334.466 369.768 334.686 369.539 334.837 369.25L335.216 369.476C335.035 369.825 334.764 370.106 334.403 370.317C334.047 370.521 333.649 370.624 333.21 370.624ZM339.352 368.192C339.882 368.367 340.147 368.729 340.147 369.277C340.147 369.639 340.027 369.937 339.786 370.172C339.551 370.407 339.207 370.524 338.755 370.524H336.568V366.005H338.584C339.011 366.005 339.343 366.116 339.578 366.339C339.813 366.562 339.93 366.846 339.93 367.189C339.93 367.671 339.738 368.006 339.352 368.192ZM338.584 366.448H337.02V368.012H338.584C338.873 368.012 339.093 367.942 339.243 367.804C339.394 367.665 339.469 367.469 339.469 367.216C339.469 366.975 339.391 366.788 339.234 366.656C339.084 366.517 338.867 366.448 338.584 366.448ZM338.755 370.082C339.057 370.082 339.289 370.009 339.451 369.865C339.614 369.72 339.695 369.518 339.695 369.259C339.695 369.006 339.611 368.81 339.442 368.671C339.28 368.527 339.051 368.455 338.755 368.455H337.02V370.082H338.755ZM343.581 370.624C342.918 370.624 342.354 370.398 341.89 369.946C341.432 369.488 341.203 368.928 341.203 368.265C341.203 367.602 341.432 367.044 341.89 366.593C342.354 366.135 342.918 365.906 343.581 365.906C344.237 365.906 344.795 366.135 345.253 366.593C345.717 367.044 345.949 367.602 345.949 368.265C345.949 368.928 345.717 369.488 345.253 369.946C344.795 370.398 344.237 370.624 343.581 370.624ZM342.216 369.63C342.589 370.003 343.044 370.19 343.581 370.19C344.117 370.19 344.569 370.003 344.936 369.63C345.304 369.256 345.488 368.801 345.488 368.265C345.488 367.728 345.304 367.273 344.936 366.9C344.569 366.526 344.117 366.339 343.581 366.339C343.044 366.339 342.589 366.526 342.216 366.9C341.848 367.273 341.664 367.728 341.664 368.265C341.664 368.801 341.848 369.256 342.216 369.63ZM348.112 365.219V364.821H350.399V365.219H348.112ZM350.733 366.005H351.131V370.524H350.67V366.791L347.796 370.524H347.398V366.005H347.85V369.738L350.733 366.005ZM359.365 370.082H359.998V371.736H359.537V370.524H355.632V371.736H355.171V370.082H355.695C356.027 369.63 356.193 369.024 356.193 368.265V366.005H359.365V370.082ZM356.256 370.082H358.904V366.448H356.645V368.265C356.645 369.006 356.515 369.611 356.256 370.082ZM363.21 365.906C363.872 365.906 364.409 366.141 364.818 366.611C365.234 367.081 365.442 367.638 365.442 368.283C365.442 368.307 365.439 368.343 365.433 368.391C365.433 368.439 365.433 368.476 365.433 368.5H361.338C361.393 369.006 361.595 369.416 361.944 369.729C362.3 370.036 362.736 370.19 363.255 370.19C363.616 370.19 363.933 370.115 364.204 369.964C364.475 369.813 364.68 369.615 364.818 369.367L365.216 369.602C365.029 369.916 364.764 370.166 364.421 370.353C364.077 370.533 363.686 370.624 363.246 370.624C362.553 370.624 361.983 370.404 361.537 369.964C361.091 369.518 360.868 368.952 360.868 368.265C360.868 367.59 361.085 367.029 361.519 366.583C361.959 366.132 362.523 365.906 363.21 365.906ZM363.21 366.339C362.697 366.339 362.269 366.499 361.926 366.818C361.583 367.138 361.387 367.551 361.338 368.057H364.972C364.924 367.521 364.731 367.102 364.394 366.8C364.062 366.493 363.667 366.339 363.21 366.339ZM370.132 366.005H370.593V370.524H370.132V368.482H367.312V370.524H366.86V366.005H367.312V368.048H370.132V366.005ZM374.14 367.759C374.556 367.759 374.908 367.888 375.197 368.147C375.487 368.406 375.631 368.738 375.631 369.141C375.631 369.545 375.487 369.877 375.197 370.136C374.908 370.395 374.556 370.524 374.14 370.524H372.35V366.005H372.802V367.759H374.14ZM374.14 370.082C374.429 370.082 374.673 369.994 374.872 369.819C375.071 369.645 375.17 369.419 375.17 369.141C375.17 368.858 375.071 368.632 374.872 368.464C374.679 368.289 374.435 368.201 374.14 368.201H372.802V370.082H374.14ZM383.091 366.005H383.488V370.524H383.027V366.791L380.153 370.524H379.755V366.005H380.207V369.738L383.091 366.005ZM240.121 378.005V382.524H239.66V378.448H236.84V382.524H236.388V378.005H240.121ZM244.274 377.906C244.924 377.906 245.476 378.135 245.928 378.593C246.386 379.044 246.615 379.602 246.615 380.265C246.615 380.928 246.386 381.488 245.928 381.946C245.476 382.398 244.924 382.624 244.274 382.624C243.846 382.624 243.46 382.521 243.117 382.317C242.779 382.112 242.517 381.831 242.33 381.476V384.332H241.878V378.005H242.33V379.054C242.517 378.698 242.779 378.418 243.117 378.213C243.46 378.008 243.846 377.906 244.274 377.906ZM242.882 381.63C243.255 382.003 243.71 382.19 244.247 382.19C244.783 382.19 245.235 382.003 245.602 381.63C245.976 381.256 246.163 380.801 246.163 380.265C246.163 379.728 245.976 379.273 245.602 378.9C245.235 378.526 244.783 378.339 244.247 378.339C243.71 378.339 243.255 378.526 242.882 378.9C242.514 379.273 242.33 379.728 242.33 380.265C242.33 380.801 242.514 381.256 242.882 381.63ZM250.1 377.906C250.762 377.906 251.299 378.141 251.708 378.611C252.124 379.081 252.332 379.638 252.332 380.283C252.332 380.307 252.329 380.343 252.323 380.391C252.323 380.439 252.323 380.476 252.323 380.5H248.228C248.283 381.006 248.485 381.416 248.834 381.729C249.19 382.036 249.626 382.19 250.145 382.19C250.506 382.19 250.823 382.115 251.094 381.964C251.365 381.813 251.57 381.615 251.708 381.367L252.106 381.602C251.919 381.916 251.654 382.166 251.311 382.353C250.967 382.533 250.576 382.624 250.136 382.624C249.443 382.624 248.873 382.404 248.427 381.964C247.981 381.518 247.758 380.952 247.758 380.265C247.758 379.59 247.975 379.029 248.409 378.583C248.849 378.132 249.413 377.906 250.1 377.906ZM250.1 378.339C249.587 378.339 249.159 378.499 248.816 378.818C248.473 379.138 248.277 379.551 248.228 380.057H251.862C251.814 379.521 251.621 379.102 251.284 378.8C250.952 378.493 250.557 378.339 250.1 378.339ZM257.279 382.082H257.912V383.736H257.451V382.524H253.546V383.736H253.085V382.082H253.61C253.941 381.63 254.107 381.024 254.107 380.265V378.005H257.279V382.082ZM254.17 382.082H256.818V378.448H254.559V380.265C254.559 381.006 254.429 381.611 254.17 382.082ZM261.16 382.624C260.479 382.624 259.912 382.398 259.461 381.946C259.009 381.494 258.783 380.934 258.783 380.265C258.783 379.596 259.009 379.035 259.461 378.583C259.912 378.132 260.479 377.906 261.16 377.906C261.6 377.906 261.997 378.011 262.353 378.222C262.709 378.427 262.968 378.707 263.13 379.063L262.76 379.279C262.627 378.99 262.416 378.761 262.127 378.593C261.844 378.424 261.521 378.339 261.16 378.339C260.618 378.339 260.163 378.526 259.795 378.9C259.427 379.267 259.244 379.722 259.244 380.265C259.244 380.807 259.427 381.265 259.795 381.639C260.163 382.006 260.618 382.19 261.16 382.19C261.521 382.19 261.844 382.106 262.127 381.937C262.416 381.768 262.636 381.539 262.787 381.25L263.166 381.476C262.986 381.825 262.715 382.106 262.353 382.317C261.997 382.521 261.6 382.624 261.16 382.624ZM267.594 378.005V378.448H265.948V382.524H265.497V378.448H263.851V378.005H267.594ZM270.666 382.624C270.003 382.624 269.44 382.398 268.976 381.946C268.518 381.488 268.289 380.928 268.289 380.265C268.289 379.602 268.518 379.044 268.976 378.593C269.44 378.135 270.003 377.906 270.666 377.906C271.323 377.906 271.88 378.135 272.338 378.593C272.802 379.044 273.034 379.602 273.034 380.265C273.034 380.928 272.802 381.488 272.338 381.946C271.88 382.398 271.323 382.624 270.666 382.624ZM269.301 381.63C269.675 382.003 270.13 382.19 270.666 382.19C271.202 382.19 271.654 382.003 272.022 381.63C272.389 381.256 272.573 380.801 272.573 380.265C272.573 379.728 272.389 379.273 272.022 378.9C271.654 378.526 271.202 378.339 270.666 378.339C270.13 378.339 269.675 378.526 269.301 378.9C268.933 379.273 268.75 379.728 268.75 380.265C268.75 380.801 268.933 381.256 269.301 381.63ZM277.434 378.005V382.524H276.982V380.762H276.006L274.587 382.524H273.999L275.446 380.753C275.078 380.711 274.771 380.566 274.524 380.319C274.276 380.066 274.153 379.756 274.153 379.388C274.153 378.984 274.298 378.653 274.587 378.394C274.876 378.135 275.229 378.005 275.644 378.005H277.434ZM275.644 380.328H276.982V378.448H275.644C275.355 378.448 275.111 378.535 274.912 378.71C274.713 378.885 274.614 379.111 274.614 379.388C274.614 379.671 274.71 379.9 274.903 380.075C275.102 380.244 275.349 380.328 275.644 380.328ZM285.18 382.082H285.813V383.736H285.352V382.524H279.188V378.005H279.64V382.082H281.953V378.005H282.414V382.082H284.719V378.005H285.18V382.082ZM290.502 378.005H290.9V382.524H290.439V378.791L287.565 382.524H287.167V378.005H287.619V381.738L290.502 378.005ZM294.691 377.906C295.353 377.906 295.89 378.141 296.3 378.611C296.715 379.081 296.923 379.638 296.923 380.283C296.923 380.307 296.92 380.343 296.914 380.391C296.914 380.439 296.914 380.476 296.914 380.5H292.82C292.874 381.006 293.076 381.416 293.425 381.729C293.781 382.036 294.218 382.19 294.736 382.19C295.097 382.19 295.414 382.115 295.685 381.964C295.956 381.813 296.161 381.615 296.3 381.367L296.697 381.602C296.51 381.916 296.245 382.166 295.902 382.353C295.558 382.533 295.167 382.624 294.727 382.624C294.034 382.624 293.464 382.404 293.018 381.964C292.572 381.518 292.35 380.952 292.35 380.265C292.35 379.59 292.566 379.029 293 378.583C293.44 378.132 294.004 377.906 294.691 377.906ZM294.691 378.339C294.178 378.339 293.751 378.499 293.407 378.818C293.064 379.138 292.868 379.551 292.82 380.057H296.453C296.405 379.521 296.212 379.102 295.875 378.8C295.543 378.493 295.149 378.339 294.691 378.339ZM303.182 382.624C302.501 382.624 301.935 382.398 301.483 381.946C301.031 381.494 300.805 380.934 300.805 380.265C300.805 379.596 301.031 379.035 301.483 378.583C301.935 378.132 302.501 377.906 303.182 377.906C303.622 377.906 304.02 378.011 304.375 378.222C304.731 378.427 304.99 378.707 305.153 379.063L304.782 379.279C304.65 378.99 304.439 378.761 304.149 378.593C303.866 378.424 303.544 378.339 303.182 378.339C302.64 378.339 302.185 378.526 301.817 378.9C301.45 379.267 301.266 379.722 301.266 380.265C301.266 380.807 301.45 381.265 301.817 381.639C302.185 382.006 302.64 382.19 303.182 382.19C303.544 382.19 303.866 382.106 304.149 381.937C304.439 381.768 304.659 381.539 304.809 381.25L305.189 381.476C305.008 381.825 304.737 382.106 304.375 382.317C304.02 382.521 303.622 382.624 303.182 382.624ZM308.566 382.624C307.904 382.624 307.34 382.398 306.876 381.946C306.418 381.488 306.189 380.928 306.189 380.265C306.189 379.602 306.418 379.044 306.876 378.593C307.34 378.135 307.904 377.906 308.566 377.906C309.223 377.906 309.781 378.135 310.239 378.593C310.703 379.044 310.935 379.602 310.935 380.265C310.935 380.928 310.703 381.488 310.239 381.946C309.781 382.398 309.223 382.624 308.566 382.624ZM307.202 381.63C307.575 382.003 308.03 382.19 308.566 382.19C309.103 382.19 309.555 382.003 309.922 381.63C310.29 381.256 310.474 380.801 310.474 380.265C310.474 379.728 310.29 379.273 309.922 378.9C309.555 378.526 309.103 378.339 308.566 378.339C308.03 378.339 307.575 378.526 307.202 378.9C306.834 379.273 306.65 379.728 306.65 380.265C306.65 380.801 306.834 381.256 307.202 381.63ZM314.354 382.633C313.703 382.633 313.161 382.419 312.727 381.991C312.293 381.557 312.076 380.997 312.076 380.31C312.076 379.557 312.185 378.975 312.402 378.565C312.625 378.15 313.08 377.773 313.767 377.436C313.899 377.375 314.056 377.306 314.237 377.228C314.417 377.149 314.562 377.089 314.671 377.047C314.785 376.999 314.906 376.941 315.032 376.875C315.165 376.803 315.27 376.734 315.348 376.667C315.427 376.601 315.496 376.52 315.556 376.423C315.617 376.321 315.656 376.206 315.674 376.08L316.035 376.288C316.005 376.456 315.948 376.604 315.864 376.731C315.785 376.857 315.665 376.975 315.502 377.083C315.345 377.185 315.207 377.267 315.086 377.327C314.972 377.387 314.791 377.469 314.544 377.571C314.297 377.674 314.119 377.749 314.011 377.797C313.565 377.996 313.236 378.213 313.026 378.448C312.821 378.683 312.682 378.999 312.61 379.397C312.821 379.066 313.095 378.818 313.432 378.656C313.77 378.493 314.11 378.412 314.454 378.412C315.056 378.412 315.556 378.611 315.954 379.008C316.352 379.406 316.551 379.912 316.551 380.527C316.551 381.135 316.343 381.639 315.927 382.036C315.517 382.434 314.993 382.633 314.354 382.633ZM314.354 382.181C314.86 382.181 315.276 382.027 315.602 381.72C315.927 381.407 316.09 381.009 316.09 380.527C316.09 380.039 315.933 379.638 315.62 379.325C315.306 379.011 314.9 378.855 314.399 378.855C313.941 378.855 313.529 378.999 313.161 379.289C312.8 379.578 312.601 379.951 312.565 380.409C312.565 380.928 312.733 381.352 313.071 381.684C313.408 382.015 313.836 382.181 314.354 382.181ZM319.699 379.759C320.115 379.759 320.467 379.888 320.756 380.147C321.046 380.406 321.19 380.738 321.19 381.141C321.19 381.545 321.046 381.877 320.756 382.136C320.467 382.395 320.115 382.524 319.699 382.524H317.909V378.005H318.361V379.759H319.699ZM321.886 378.005H322.338V382.524H321.886V378.005ZM319.699 382.082C319.988 382.082 320.232 381.994 320.431 381.819C320.63 381.645 320.729 381.419 320.729 381.141C320.729 380.858 320.63 380.632 320.431 380.464C320.238 380.289 319.994 380.201 319.699 380.201H318.361V382.082H319.699ZM327.251 378.005V378.448H325.606V382.524H325.154V378.448H323.509V378.005H327.251ZM331.765 378.005H332.163V382.524H331.702V378.791L328.828 382.524H328.43V378.005H328.882V381.738L331.765 378.005ZM337.048 378.005V382.524H336.596V380.762H335.619L334.2 382.524H333.613L335.059 380.753C334.691 380.711 334.384 380.566 334.137 380.319C333.89 380.066 333.767 379.756 333.767 379.388C333.767 378.984 333.911 378.653 334.2 378.394C334.49 378.135 334.842 378.005 335.258 378.005H337.048ZM335.258 380.328H336.596V378.448H335.258C334.969 378.448 334.725 378.535 334.526 378.71C334.327 378.885 334.228 379.111 334.228 379.388C334.228 379.671 334.324 379.9 334.517 380.075C334.716 380.244 334.963 380.328 335.258 380.328ZM345.306 378.005V382.524H344.845V378.448H342.024V382.524H341.572V378.005H345.306ZM349.458 377.906C350.109 377.906 350.66 378.135 351.112 378.593C351.57 379.044 351.799 379.602 351.799 380.265C351.799 380.928 351.57 381.488 351.112 381.946C350.66 382.398 350.109 382.624 349.458 382.624C349.03 382.624 348.644 382.521 348.301 382.317C347.963 382.112 347.701 381.831 347.514 381.476V384.332H347.062V378.005H347.514V379.054C347.701 378.698 347.963 378.418 348.301 378.213C348.644 378.008 349.03 377.906 349.458 377.906ZM348.066 381.63C348.439 382.003 348.894 382.19 349.431 382.19C349.967 382.19 350.419 382.003 350.786 381.63C351.16 381.256 351.347 380.801 351.347 380.265C351.347 379.728 351.16 379.273 350.786 378.9C350.419 378.526 349.967 378.339 349.431 378.339C348.894 378.339 348.439 378.526 348.066 378.9C347.698 379.273 347.514 379.728 347.514 380.265C347.514 380.801 347.698 381.256 348.066 381.63ZM356.201 378.005V382.524H355.749V380.762H354.773L353.354 382.524H352.766L354.212 380.753C353.845 380.711 353.537 380.566 353.29 380.319C353.043 380.066 352.92 379.756 352.92 379.388C352.92 378.984 353.064 378.653 353.354 378.394C353.643 378.135 353.995 378.005 354.411 378.005H356.201ZM354.411 380.328H355.749V378.448H354.411C354.122 378.448 353.878 378.535 353.679 378.71C353.48 378.885 353.381 379.111 353.381 379.388C353.381 379.671 353.477 379.9 353.67 380.075C353.869 380.244 354.116 380.328 354.411 380.328ZM362.32 378.005V382.524H361.859V378.692L360.169 381.358H360.106L358.406 378.674V382.524H357.954V378.005H358.488L360.133 380.599L361.778 378.005H362.32ZM366.141 382.624C365.478 382.624 364.915 382.398 364.451 381.946C363.993 381.488 363.764 380.928 363.764 380.265C363.764 379.602 363.993 379.044 364.451 378.593C364.915 378.135 365.478 377.906 366.141 377.906C366.798 377.906 367.355 378.135 367.813 378.593C368.277 379.044 368.509 379.602 368.509 380.265C368.509 380.928 368.277 381.488 367.813 381.946C367.355 382.398 366.798 382.624 366.141 382.624ZM364.776 381.63C365.15 382.003 365.605 382.19 366.141 382.19C366.677 382.19 367.129 382.003 367.497 381.63C367.864 381.256 368.048 380.801 368.048 380.265C368.048 379.728 367.864 379.273 367.497 378.9C367.129 378.526 366.677 378.339 366.141 378.339C365.605 378.339 365.15 378.526 364.776 378.9C364.408 379.273 364.225 379.728 364.225 380.265C364.225 380.801 364.408 381.256 364.776 381.63ZM374.799 382.624C374.119 382.624 373.552 382.398 373.1 381.946C372.648 381.494 372.422 380.934 372.422 380.265C372.422 379.596 372.648 379.035 373.1 378.583C373.552 378.132 374.119 377.906 374.799 377.906C375.239 377.906 375.637 378.011 375.993 378.222C376.348 378.427 376.607 378.707 376.77 379.063L376.399 379.279C376.267 378.99 376.056 378.761 375.767 378.593C375.483 378.424 375.161 378.339 374.799 378.339C374.257 378.339 373.802 378.526 373.435 378.9C373.067 379.267 372.883 379.722 372.883 380.265C372.883 380.807 373.067 381.265 373.435 381.639C373.802 382.006 374.257 382.19 374.799 382.19C375.161 382.19 375.483 382.106 375.767 381.937C376.056 381.768 376.276 381.539 376.426 381.25L376.806 381.476C376.625 381.825 376.354 382.106 375.993 382.317C375.637 382.521 375.239 382.624 374.799 382.624ZM380.147 377.906C380.81 377.906 381.347 378.141 381.756 378.611C382.172 379.081 382.38 379.638 382.38 380.283C382.38 380.307 382.377 380.343 382.371 380.391C382.371 380.439 382.371 380.476 382.371 380.5H378.276C378.331 381.006 378.533 381.416 378.882 381.729C379.238 382.036 379.674 382.19 380.193 382.19C380.554 382.19 380.871 382.115 381.142 381.964C381.413 381.813 381.618 381.615 381.756 381.367L382.154 381.602C381.967 381.916 381.702 382.166 381.359 382.353C381.015 382.533 380.623 382.624 380.184 382.624C379.491 382.624 378.921 382.404 378.475 381.964C378.029 381.518 377.806 380.952 377.806 380.265C377.806 379.59 378.023 379.029 378.457 378.583C378.897 378.132 379.461 377.906 380.147 377.906ZM380.147 378.339C379.635 378.339 379.207 378.499 378.864 378.818C378.52 379.138 378.325 379.551 378.276 380.057H381.91C381.862 379.521 381.669 379.102 381.332 378.8C381 378.493 380.605 378.339 380.147 378.339ZM384.512 377.219V376.821H386.799V377.219H384.512ZM387.133 378.005H387.531V382.524H387.07V378.791L384.196 382.524H383.798V378.005H384.25V381.738L387.133 378.005ZM392.289 378.005H392.75V382.524H392.289V380.753C391.891 380.952 391.433 381.051 390.915 381.051C390.336 381.051 389.891 380.919 389.577 380.653C389.264 380.382 389.107 379.991 389.107 379.478V378.005H389.559V379.478C389.559 380.238 390.005 380.617 390.897 380.617C391.391 380.617 391.855 380.521 392.289 380.328V378.005ZM398.481 378.005H398.942V382.524H398.481V381.503C398.289 381.853 398.023 382.127 397.686 382.326C397.349 382.524 396.966 382.624 396.538 382.624C395.893 382.624 395.342 382.398 394.884 381.946C394.426 381.488 394.197 380.928 394.197 380.265C394.197 379.602 394.426 379.044 394.884 378.593C395.342 378.135 395.893 377.906 396.538 377.906C396.966 377.906 397.349 378.005 397.686 378.204C398.023 378.403 398.289 378.677 398.481 379.026V378.005ZM395.209 381.63C395.583 382.003 396.038 382.19 396.574 382.19C397.111 382.19 397.562 382.003 397.93 381.63C398.298 381.256 398.481 380.801 398.481 380.265C398.481 379.728 398.298 379.273 397.93 378.9C397.562 378.526 397.111 378.339 396.574 378.339C396.038 378.339 395.583 378.526 395.209 378.9C394.842 379.273 394.658 379.728 394.658 380.265C394.658 380.801 394.842 381.256 395.209 381.63ZM402.762 382.624C402.081 382.624 401.514 382.398 401.062 381.946C400.61 381.494 400.384 380.934 400.384 380.265C400.384 379.596 400.61 379.035 401.062 378.583C401.514 378.132 402.081 377.906 402.762 377.906C403.201 377.906 403.599 378.011 403.955 378.222C404.31 378.427 404.569 378.707 404.732 379.063L404.361 379.279C404.229 378.99 404.018 378.761 403.729 378.593C403.446 378.424 403.123 378.339 402.762 378.339C402.219 378.339 401.764 378.526 401.397 378.9C401.029 379.267 400.845 379.722 400.845 380.265C400.845 380.807 401.029 381.265 401.397 381.639C401.764 382.006 402.219 382.19 402.762 382.19C403.123 382.19 403.446 382.106 403.729 381.937C404.018 381.768 404.238 381.539 404.389 381.25L404.768 381.476C404.587 381.825 404.316 382.106 403.955 382.317C403.599 382.521 403.201 382.624 402.762 382.624Z" fill="white"/>
<path d="M246.476 325.811V328.064H242.44V340.152H240.084V328.064H236.027V325.811H246.476ZM258.794 340.152L257.79 337.264H251.685L250.681 340.152H248.12L253.324 325.811H256.151L261.334 340.152H258.794ZM252.463 335.051H257.011L254.737 328.577L252.463 335.051ZM269.544 340.419C268.164 340.419 266.99 340.105 266.02 339.476C265.064 338.848 264.395 337.987 264.012 336.895L266.04 335.706C266.614 337.318 267.802 338.124 269.605 338.124C270.493 338.124 271.156 337.953 271.593 337.612C272.043 337.257 272.269 336.799 272.269 336.239C272.269 335.652 272.03 335.208 271.552 334.907C271.074 334.593 270.227 334.252 269.011 333.883C268.328 333.678 267.775 333.487 267.352 333.309C266.928 333.132 266.478 332.886 265.999 332.572C265.535 332.244 265.187 331.841 264.955 331.363C264.722 330.885 264.606 330.325 264.606 329.683C264.606 328.413 265.057 327.409 265.959 326.671C266.86 325.92 267.946 325.544 269.216 325.544C270.363 325.544 271.367 325.824 272.228 326.384C273.088 326.944 273.751 327.716 274.215 328.7L272.228 329.847C271.627 328.508 270.623 327.839 269.216 327.839C268.533 327.839 267.987 328.003 267.577 328.331C267.167 328.645 266.962 329.075 266.962 329.622C266.962 330.154 267.167 330.578 267.577 330.892C268 331.192 268.759 331.513 269.851 331.855C270.398 332.032 270.794 332.169 271.04 332.264C271.299 332.346 271.654 332.483 272.105 332.674C272.569 332.865 272.918 333.057 273.15 333.248C273.382 333.439 273.628 333.678 273.887 333.965C274.161 334.252 274.352 334.58 274.461 334.948C274.57 335.317 274.625 335.734 274.625 336.198C274.625 337.496 274.154 338.527 273.211 339.292C272.282 340.043 271.06 340.419 269.544 340.419ZM289.626 340.152H286.819L281.165 333.33V340.152H278.808V325.811H281.165V332.244L286.614 325.811H289.421L283.623 332.797L289.626 340.152ZM309.183 328.064H303.139V332.08H308.978V334.334H303.139V340.152H300.783V325.811H309.183V328.064ZM325.626 338.267C324.192 339.702 322.437 340.419 320.361 340.419C318.284 340.419 316.523 339.702 315.075 338.267C313.641 336.82 312.923 335.058 312.923 332.982C312.923 330.905 313.641 329.15 315.075 327.716C316.523 326.268 318.284 325.544 320.361 325.544C322.437 325.544 324.192 326.268 325.626 327.716C327.074 329.15 327.798 330.905 327.798 332.982C327.798 335.058 327.074 336.82 325.626 338.267ZM316.734 336.669C317.718 337.639 318.926 338.124 320.361 338.124C321.795 338.124 322.997 337.639 323.966 336.669C324.95 335.686 325.442 334.457 325.442 332.982C325.442 331.506 324.95 330.284 323.966 329.314C322.997 328.331 321.795 327.839 320.361 327.839C318.926 327.839 317.718 328.331 316.734 329.314C315.764 330.284 315.28 331.506 315.28 332.982C315.28 334.457 315.764 335.686 316.734 336.669ZM340.375 340.152L337.343 334.928H334.557V340.152H332.201V325.811H337.937C339.221 325.811 340.307 326.261 341.195 327.163C342.096 328.051 342.547 329.137 342.547 330.421C342.547 331.336 342.281 332.176 341.748 332.941C341.229 333.692 340.546 334.238 339.699 334.58L342.957 340.152H340.375ZM334.557 328.023V332.818H337.937C338.566 332.818 339.098 332.585 339.535 332.121C339.972 331.657 340.191 331.09 340.191 330.421C340.191 329.751 339.972 329.184 339.535 328.72C339.098 328.256 338.566 328.023 337.937 328.023H334.557ZM368.122 325.811V340.152H365.766V329.929L361.402 337.141H361.115L356.751 329.908V340.152H354.395V325.811H356.935L361.258 332.982L365.602 325.811H368.122ZM375.591 337.899H381.942V340.152H373.235V325.811H381.84V328.064H375.591V331.793H381.328V334.026H375.591V337.899Z" fill="white"/>
<circle cx="257.687" cy="453.419" r="21.9945" fill="url(#paint3_linear_1331_125155)"/>
<path d="M267.686 452.092V452.58C267.686 453.484 267.397 454.216 266.818 454.776C266.24 455.337 265.493 455.617 264.577 455.617C263.6 455.617 262.79 455.3 262.145 454.668C261.506 454.029 261.187 453.252 261.187 452.336C261.187 451.414 261.503 450.633 262.136 449.995C262.775 449.356 263.564 449.037 264.504 449.037C265.095 449.037 265.634 449.172 266.122 449.443C266.61 449.708 266.99 450.064 267.261 450.51L266.195 451.124C266.044 450.865 265.815 450.654 265.508 450.492C265.206 450.329 264.869 450.248 264.495 450.248C263.893 450.248 263.396 450.447 263.004 450.844C262.618 451.236 262.425 451.733 262.425 452.336C262.425 452.932 262.621 453.426 263.013 453.818C263.411 454.204 263.935 454.397 264.586 454.397C265.068 454.397 265.466 454.291 265.779 454.08C266.098 453.863 266.315 453.568 266.43 453.194H264.513V452.092H267.686ZM269.956 453.71C270.113 454.276 270.538 454.559 271.231 454.559C271.677 454.559 272.014 454.409 272.243 454.107L273.183 454.65C272.737 455.294 272.08 455.617 271.213 455.617C270.465 455.617 269.866 455.391 269.414 454.939C268.962 454.487 268.736 453.917 268.736 453.231C268.736 452.55 268.959 451.983 269.405 451.531C269.851 451.073 270.423 450.844 271.122 450.844C271.785 450.844 272.33 451.073 272.758 451.531C273.192 451.989 273.409 452.556 273.409 453.231C273.409 453.381 273.394 453.541 273.364 453.71H269.956ZM269.938 452.806H272.243C272.177 452.498 272.038 452.269 271.827 452.119C271.622 451.968 271.387 451.893 271.122 451.893C270.809 451.893 270.55 451.974 270.345 452.137C270.14 452.294 270.004 452.516 269.938 452.806ZM277.128 452.092H276.106V453.972C276.106 454.128 276.145 454.243 276.224 454.315C276.302 454.387 276.417 454.43 276.567 454.442C276.718 454.448 276.905 454.445 277.128 454.433V455.49C276.326 455.581 275.76 455.505 275.428 455.264C275.103 455.023 274.94 454.592 274.94 453.972V452.092H274.154V450.971H274.94V450.058L276.106 449.705V450.971H277.128V452.092ZM283.399 455.617C282.772 455.617 282.245 455.478 281.817 455.201C281.389 454.918 281.088 454.535 280.913 454.053L281.979 453.429C282.226 454.074 282.712 454.397 283.435 454.397C283.784 454.397 284.04 454.333 284.203 454.207C284.366 454.08 284.447 453.92 284.447 453.728C284.447 453.505 284.348 453.333 284.149 453.212C283.95 453.086 283.594 452.95 283.082 452.806C282.799 452.721 282.558 452.637 282.359 452.553C282.166 452.468 281.97 452.357 281.772 452.218C281.579 452.074 281.431 451.893 281.329 451.676C281.226 451.459 281.175 451.206 281.175 450.917C281.175 450.344 281.377 449.889 281.781 449.552C282.19 449.208 282.681 449.037 283.254 449.037C283.766 449.037 284.215 449.163 284.601 449.416C284.992 449.663 285.297 450.01 285.514 450.456L284.465 451.061C284.212 450.519 283.808 450.248 283.254 450.248C282.995 450.248 282.79 450.308 282.639 450.428C282.495 450.543 282.422 450.694 282.422 450.88C282.422 451.079 282.504 451.242 282.666 451.369C282.835 451.489 283.154 451.622 283.624 451.766C283.817 451.826 283.962 451.875 284.058 451.911C284.161 451.941 284.296 451.992 284.465 452.065C284.64 452.131 284.772 452.194 284.863 452.254C284.959 452.315 285.068 452.396 285.188 452.498C285.309 452.601 285.399 452.706 285.459 452.815C285.526 452.923 285.58 453.056 285.622 453.212C285.67 453.363 285.694 453.529 285.694 453.71C285.694 454.294 285.48 454.758 285.053 455.102C284.631 455.445 284.079 455.617 283.399 455.617ZM289.358 452.092H288.337V453.972C288.337 454.128 288.376 454.243 288.454 454.315C288.533 454.387 288.647 454.43 288.798 454.442C288.949 454.448 289.135 454.445 289.358 454.433V455.49C288.557 455.581 287.99 455.505 287.659 455.264C287.334 455.023 287.171 454.592 287.171 453.972V452.092H286.385V450.971H287.171V450.058L288.337 449.705V450.971H289.358V452.092ZM293.926 450.971H295.092V455.49H293.926V454.957C293.576 455.397 293.085 455.617 292.453 455.617C291.85 455.617 291.332 455.388 290.898 454.93C290.47 454.466 290.256 453.899 290.256 453.231C290.256 452.562 290.47 451.998 290.898 451.54C291.332 451.076 291.85 450.844 292.453 450.844C293.085 450.844 293.576 451.064 293.926 451.504V450.971ZM291.775 454.152C292.01 454.387 292.308 454.505 292.67 454.505C293.031 454.505 293.329 454.387 293.564 454.152C293.805 453.911 293.926 453.604 293.926 453.231C293.926 452.857 293.805 452.553 293.564 452.318C293.329 452.077 293.031 451.956 292.67 451.956C292.308 451.956 292.01 452.077 291.775 452.318C291.54 452.553 291.422 452.857 291.422 453.231C291.422 453.604 291.54 453.911 291.775 454.152ZM297.767 451.748C297.876 451.459 298.053 451.242 298.3 451.097C298.554 450.953 298.834 450.88 299.141 450.88V452.182C298.786 452.14 298.466 452.212 298.183 452.399C297.906 452.586 297.767 452.896 297.767 453.33V455.49H296.601V450.971H297.767V451.748ZM302.984 452.092H301.962V453.972C301.962 454.128 302.001 454.243 302.08 454.315C302.158 454.387 302.273 454.43 302.423 454.442C302.574 454.448 302.761 454.445 302.984 454.433V455.49C302.182 455.581 301.616 455.505 301.284 455.264C300.959 455.023 300.796 454.592 300.796 453.972V452.092H300.01V450.971H300.796V450.058L301.962 449.705V450.971H302.984V452.092ZM305.102 453.71C305.258 454.276 305.683 454.559 306.376 454.559C306.822 454.559 307.16 454.409 307.389 454.107L308.329 454.65C307.883 455.294 307.226 455.617 306.358 455.617C305.611 455.617 305.011 455.391 304.559 454.939C304.107 454.487 303.881 453.917 303.881 453.231C303.881 452.55 304.104 451.983 304.55 451.531C304.996 451.073 305.569 450.844 306.268 450.844C306.931 450.844 307.476 451.073 307.904 451.531C308.338 451.989 308.555 452.556 308.555 453.231C308.555 453.381 308.539 453.541 308.509 453.71H305.102ZM305.084 452.806H307.389C307.322 452.498 307.184 452.269 306.973 452.119C306.768 451.968 306.533 451.893 306.268 451.893C305.954 451.893 305.695 451.974 305.49 452.137C305.286 452.294 305.15 452.516 305.084 452.806ZM313.211 449.163H314.377V455.49H313.211V454.957C312.867 455.397 312.379 455.617 311.747 455.617C311.138 455.617 310.617 455.388 310.183 454.93C309.755 454.466 309.541 453.899 309.541 453.231C309.541 452.562 309.755 451.998 310.183 451.54C310.617 451.076 311.138 450.844 311.747 450.844C312.379 450.844 312.867 451.064 313.211 451.504V449.163ZM311.06 454.152C311.301 454.387 311.602 454.505 311.964 454.505C312.325 454.505 312.623 454.387 312.858 454.152C313.093 453.911 313.211 453.604 313.211 453.231C313.211 452.857 313.093 452.553 312.858 452.318C312.623 452.077 312.325 451.956 311.964 451.956C311.602 451.956 311.301 452.077 311.06 452.318C310.825 452.553 310.707 452.857 310.707 453.231C310.707 453.604 310.825 453.911 311.06 454.152Z" fill="white"/>
<g clip-path="url(#clip1_1331_125155)">
<path d="M260.715 51.7949H392.682V51.7949C391.413 52.1581 390.523 53.2985 390.48 54.6177L390.462 55.1464V55.1464C390.462 63.2794 383.869 69.8726 375.736 69.8726H277.661C269.528 69.8726 262.934 63.2794 262.934 55.1464V55.1464L262.917 54.6177C262.874 53.2985 261.984 52.1581 260.715 51.7949V51.7949Z" fill="black"/>
<path opacity="0.35" d="M418.107 63.7466H428.15C428.871 63.7466 429.456 64.3311 429.456 65.0522V68.6677C429.456 69.3888 428.871 69.9734 428.15 69.9734H418.107C417.386 69.9734 416.801 69.3888 416.801 68.6677V65.0522C416.801 64.3311 417.386 63.7466 418.107 63.7466Z" stroke="black" stroke-width="0.602589"/>
<path opacity="0.4" d="M430.359 65.6553V68.0656C430.844 67.8615 431.16 67.3866 431.16 66.8605C431.16 66.3343 430.844 65.8594 430.359 65.6553" fill="black"/>
<path d="M417.705 65.4538C417.705 65.0101 418.065 64.6504 418.509 64.6504H427.748C428.192 64.6504 428.552 65.0101 428.552 65.4538V68.2659C428.552 68.7097 428.192 69.0694 427.748 69.0694H418.509C418.065 69.0694 417.705 68.7097 417.705 68.2659V65.4538Z" fill="black"/>
<path fill-rule="evenodd" clip-rule="evenodd" d="M408.866 64.8157C410.202 64.8157 411.486 65.3288 412.454 66.2488C412.526 66.3198 412.643 66.3189 412.715 66.2468L413.411 65.5438C413.448 65.5072 413.468 65.4576 413.468 65.4061C413.467 65.3545 413.446 65.3052 413.41 65.269C410.87 62.8348 406.863 62.8348 404.323 65.269C404.286 65.3051 404.265 65.3544 404.265 65.406C404.264 65.4576 404.285 65.5072 404.321 65.5438L405.018 66.2468C405.089 66.3191 405.206 66.3199 405.279 66.2488C406.247 65.3287 407.531 64.8156 408.866 64.8157ZM408.866 67.1028C409.6 67.1028 410.307 67.3755 410.851 67.8679C410.925 67.9378 411.041 67.9363 411.112 67.8645L411.808 67.1615C411.845 67.1246 411.865 67.0746 411.865 67.0226C411.864 66.9706 411.843 66.921 411.805 66.8849C410.149 65.3444 407.585 65.3444 405.929 66.8849C405.891 66.921 405.87 66.9706 405.869 67.0226C405.869 67.0746 405.889 67.1246 405.926 67.1615L406.622 67.8645C406.693 67.9363 406.809 67.9378 406.883 67.8679C407.426 67.3758 408.133 67.1031 408.866 67.1028ZM410.26 68.6416C410.261 68.6937 410.241 68.744 410.203 68.7805L409 69.9951C408.965 70.0308 408.916 70.0509 408.866 70.0509C408.816 70.0509 408.768 70.0308 408.733 69.9951L407.529 68.7805C407.492 68.7439 407.471 68.6937 407.472 68.6415C407.474 68.5894 407.496 68.54 407.535 68.5051C408.303 67.855 409.429 67.855 410.198 68.5051C410.236 68.5401 410.259 68.5894 410.26 68.6416Z" fill="black"/>
<path fill-rule="evenodd" clip-rule="evenodd" d="M400.633 63.6465H400.03C399.697 63.6465 399.427 63.9163 399.427 64.2491V69.4715C399.427 69.8043 399.697 70.0741 400.03 70.0741H400.633C400.965 70.0741 401.235 69.8043 401.235 69.4715V64.2491C401.235 63.9163 400.965 63.6465 400.633 63.6465ZM397.218 65.0523H397.82C398.153 65.0523 398.423 65.3221 398.423 65.6549V69.4713C398.423 69.8041 398.153 70.0739 397.82 70.0739H397.218C396.885 70.0739 396.615 69.8041 396.615 69.4713V65.6549C396.615 65.3221 396.885 65.0523 397.218 65.0523ZM395.008 66.4588H394.405C394.073 66.4588 393.803 66.7285 393.803 67.0613V69.4717C393.803 69.8045 394.073 70.0743 394.405 70.0743H395.008C395.341 70.0743 395.611 69.8045 395.611 69.4717V67.0613C395.611 66.7285 395.341 66.4588 395.008 66.4588ZM392.196 67.6639H391.594C391.261 67.6639 390.991 67.9337 390.991 68.2665V69.4717C390.991 69.8045 391.261 70.0743 391.594 70.0743H392.196C392.529 70.0743 392.799 69.8045 392.799 69.4717V68.2665C392.799 67.9337 392.529 67.6639 392.196 67.6639Z" fill="black"/>
<path d="M236.489 70.0268C238.108 70.0268 239.07 68.7601 239.07 66.6151C239.07 65.8075 238.916 65.1278 238.62 64.6026C238.192 63.7861 237.455 63.3447 236.524 63.3447C235.138 63.3447 234.158 64.276 234.158 65.5824C234.158 66.8093 235.041 67.7008 236.255 67.7008C237 67.7008 237.605 67.3522 237.905 66.7475H237.918C237.918 66.7475 237.936 66.7475 237.941 66.7475C237.949 66.7475 237.98 66.7475 237.98 66.7475C237.98 68.204 237.429 69.0734 236.497 69.0734C235.95 69.0734 235.526 68.7733 235.381 68.2923H234.246C234.436 69.3382 235.323 70.0268 236.489 70.0268ZM236.528 66.7961C235.796 66.7961 235.275 66.2753 235.275 65.5471C235.275 64.8365 235.822 64.2936 236.533 64.2936C237.243 64.2936 237.791 64.8453 237.791 65.5647C237.791 66.2753 237.256 66.7961 236.528 66.7961Z" fill="black"/>
<path d="M240.933 69.965C241.352 69.965 241.639 69.6648 241.639 69.2676C241.639 68.866 241.352 68.5703 240.933 68.5703C240.518 68.5703 240.227 68.866 240.227 69.2676C240.227 69.6648 240.518 69.965 240.933 69.965ZM240.933 66.6548C241.352 66.6548 241.639 66.3591 241.639 65.9619C241.639 65.5603 241.352 65.2646 240.933 65.2646C240.518 65.2646 240.227 65.5603 240.227 65.9619C240.227 66.3591 240.518 66.6548 240.933 66.6548Z" fill="black"/>
<path d="M245.77 69.8723H246.861V68.6851H247.721V67.7229H246.861V63.5036H245.254C244.129 65.1984 243.233 66.6151 242.659 67.6699V68.6851H245.77V69.8723ZM243.714 67.6832C244.455 66.3768 245.117 65.3308 245.726 64.4304H245.788V67.7494H243.714V67.6832Z" fill="black"/>
<path d="M250.149 69.8723H251.287V63.5036H250.153L248.489 64.6688V65.7633L250.074 64.6511H250.149V69.8723Z" fill="black"/>
</g>
<rect x="286.627" y="533.981" width="80.7469" height="3.01294" rx="1.50647" fill="black"/>
</g>
<path d="M66.7528 497.405L72.6115 497.412L72.5984 507.905L104.022 507.944L104.015 514.069L72.5907 514.03L72.5775 524.575L66.7188 524.568L66.7528 497.405ZM104.076 465.429L96.5625 468.03L96.5427 483.901L104.049 486.521L104.041 493.178L66.775 479.603L66.7842 472.253L104.084 458.825L104.076 465.429ZM90.793 481.87L90.8078 470.046L73.9699 475.937L90.793 481.87ZM104.803 437.484C104.798 441.07 103.978 444.123 102.341 446.642C100.705 449.126 98.4659 450.863 95.624 451.853L92.5415 446.577C96.7332 445.09 98.832 442.004 98.8379 437.317C98.8408 435.009 98.3991 433.286 97.5128 432.149C96.5911 430.976 95.4023 430.389 93.9465 430.387C92.4197 430.385 91.2649 431.005 90.4822 432.247C89.664 433.488 88.7736 435.689 87.8109 438.848C87.2761 440.622 86.7772 442.06 86.3142 443.16C85.8512 444.26 85.2106 445.431 84.3924 446.673C83.5387 447.879 82.4901 448.783 81.2466 449.385C80.0031 449.987 78.5469 450.287 76.8781 450.285C73.5759 450.281 70.9675 449.106 69.0531 446.76C67.1031 444.414 66.1302 441.59 66.1343 438.288C66.138 435.305 66.8692 432.697 68.3278 430.461C69.7864 428.226 71.7947 426.507 74.3528 425.303L77.3289 430.473C73.8472 432.031 72.1041 434.638 72.0995 438.295C72.0973 440.071 72.5216 441.492 73.3725 442.558C74.1878 443.624 75.3056 444.158 76.7259 444.16C78.1107 444.162 79.2121 443.63 80.0301 442.566C80.8127 441.467 81.6495 439.497 82.5408 436.657C83.0042 435.238 83.3605 434.208 83.6099 433.57C83.8238 432.895 84.18 431.972 84.6786 430.801C85.1772 429.595 85.6754 428.69 86.1733 428.087C86.6711 427.484 87.2933 426.846 88.0398 426.172C88.7863 425.463 89.6391 424.967 90.5982 424.684C91.5573 424.401 92.6404 424.26 93.8477 424.262C97.2209 424.266 99.9001 425.494 101.885 427.947C103.835 430.364 104.808 433.543 104.803 437.484ZM104.176 385.277L104.167 392.574L86.4124 407.252L104.148 407.274L104.141 413.399L66.8579 413.352L66.8655 407.227L83.5895 407.248L66.8832 393.06L66.8924 385.763L85.0356 400.859L104.176 385.277ZM72.8153 334.398L72.7957 350.11L83.2349 350.123L83.2538 334.944L89.1126 334.951L89.0936 350.13L104.22 350.149L104.212 356.274L66.9293 356.228L66.9566 334.391L72.8153 334.398ZM99.3928 291.685C103.116 295.418 104.975 299.983 104.968 305.38C104.961 310.777 103.091 315.355 99.3585 319.114C95.5901 322.838 91.0073 324.696 85.6102 324.69C80.213 324.683 75.6527 322.813 71.929 319.08C68.17 315.312 66.2938 310.729 66.3006 305.332C66.3073 299.935 68.1949 295.374 71.9633 291.651C75.6963 287.891 80.2614 286.015 85.6585 286.022C91.0556 286.029 95.6337 287.916 99.3928 291.685ZM95.2095 314.795C97.7338 312.242 98.9982 309.101 99.0029 305.373C99.0075 301.644 97.7509 298.518 95.2331 295.994C92.6797 293.434 89.4856 292.152 85.6508 292.147C81.816 292.142 78.6365 293.417 76.1123 295.97C73.5526 298.488 72.2705 301.611 72.2658 305.339C72.2611 309.067 73.5355 312.211 76.0888 314.771C78.6067 317.295 81.783 318.56 85.6178 318.565C89.4526 318.569 92.6499 317.313 95.2095 314.795ZM104.341 253.348L90.7493 261.214L90.7403 268.458L104.322 268.475L104.314 274.6L67.0314 274.553L67.0501 259.64C67.0543 256.302 68.2295 253.481 70.5759 251.176C72.8868 248.835 75.7111 247.667 79.0488 247.671C81.4278 247.674 83.6106 248.369 85.5973 249.757C87.5486 251.108 88.9666 252.885 89.8516 255.088L104.349 246.638L104.341 253.348ZM72.7913 268.435L85.2544 268.451L85.2654 259.663C85.2674 258.029 84.6655 256.644 83.4597 255.506C82.2539 254.368 80.781 253.798 79.0412 253.796C77.3013 253.794 75.827 254.36 74.6184 255.495C73.4097 256.63 72.8043 258.014 72.8023 259.647L72.7913 268.435ZM67.1482 181.171L104.431 181.218L104.423 187.343L77.846 187.31L96.5797 198.678L96.5788 199.423L77.7635 210.745L104.394 210.778L104.386 216.903L67.1036 216.856L67.1118 210.252L85.7673 199.037L67.14 187.722L67.1482 181.171ZM98.5965 161.793L98.6172 145.282L104.476 145.29L104.448 167.926L67.1648 167.879L67.1928 145.509L73.0515 145.517L73.0312 161.761L82.7247 161.773L82.7434 146.86L88.5488 146.868L88.5302 161.781L98.5965 161.793Z" fill="#09062D"/>
<path d="M131.888 270.896L147.424 270.915L147.421 272.957L135.281 272.942L143.73 278.035L143.73 278.301L135.29 283.373L147.408 283.388L147.405 285.453L131.869 285.433L131.872 283.103L140.09 278.164L131.885 273.226L131.888 270.896ZM142.769 265.767C143.761 265.576 144.531 265.126 145.079 264.416C145.627 263.692 145.902 262.805 145.904 261.754C145.905 260.289 145.367 259.223 144.287 258.556L145.222 256.915C146.892 257.997 147.726 259.626 147.723 261.801C147.721 263.562 147.172 264.996 146.076 266.104C144.965 267.198 143.566 267.744 141.879 267.742C140.207 267.739 138.817 267.198 137.708 266.116C136.6 265.035 136.047 263.636 136.049 261.919C136.051 260.292 136.63 258.968 137.785 257.949C138.926 256.914 140.303 256.398 141.915 256.4C142.196 256.401 142.485 256.423 142.781 256.468L142.769 265.767ZM137.869 261.922C137.868 262.957 138.163 263.816 138.754 264.497C139.33 265.179 140.106 265.601 141.082 265.765L141.092 258.352C140.041 258.514 139.241 258.927 138.693 259.592C138.145 260.257 137.87 261.034 137.869 261.922ZM136.358 245.829L136.36 243.898L147.457 243.912L147.455 245.843L142.816 245.837L142.809 251.585L147.448 251.591L147.445 253.522L136.348 253.508L136.351 251.577L140.967 251.583L140.974 245.834L136.358 245.829ZM142.803 238.947C143.794 238.756 144.564 238.306 145.113 237.596C145.661 236.872 145.936 235.984 145.937 234.934C145.939 233.469 145.4 232.403 144.321 231.736L145.255 230.095C146.926 231.177 147.76 232.805 147.757 234.98C147.755 236.741 147.206 238.176 146.109 239.284C144.998 240.378 143.599 240.923 141.913 240.921C140.241 240.919 138.85 240.377 137.742 239.296C136.634 238.214 136.081 236.815 136.083 235.099C136.085 233.471 136.663 232.148 137.819 231.128C138.959 230.094 140.336 229.578 141.949 229.58C142.23 229.58 142.519 229.603 142.814 229.648L142.803 238.947ZM137.903 235.101C137.901 236.137 138.196 236.996 138.787 237.677C139.363 238.358 140.14 238.781 141.116 238.945L141.125 231.532C140.075 231.693 139.275 232.107 138.727 232.772C138.178 233.437 137.904 234.214 137.903 235.101ZM145.648 217.589L145.65 216.058L150.466 216.064L150.464 217.972L147.49 217.969L147.479 226.292L150.453 226.295L150.451 228.204L145.635 228.198L145.637 226.844C144.661 226.133 143.293 225.776 141.532 225.774L136.383 225.767L136.393 217.578L145.648 217.589ZM145.639 224.647L145.646 219.498L138.188 219.489L138.183 223.861L141.534 223.865C143.192 223.867 144.56 224.128 145.639 224.647ZM147.513 199.664L147.51 201.927L142.245 206.071L147.505 206.078L147.502 207.986L142.242 207.98L147.497 212.137L147.494 214.378L141.774 209.733L136.397 214.142L136.4 211.901L141.31 207.979L136.405 207.973L136.408 206.064L141.312 206.07L136.412 202.135L136.415 199.872L141.781 204.317L147.513 199.664ZM142.856 196.679C143.847 196.488 144.617 196.038 145.165 195.328C145.714 194.604 145.989 193.716 145.99 192.666C145.992 191.201 145.453 190.135 144.374 189.468L145.308 187.827C146.979 188.909 147.813 190.538 147.81 192.713C147.808 194.473 147.258 195.908 146.162 197.016C145.051 198.11 143.652 198.655 141.965 198.653C140.293 198.651 138.903 198.109 137.795 197.028C136.687 195.946 136.133 194.548 136.136 192.831C136.138 191.204 136.716 189.88 137.872 188.861C139.012 187.826 140.389 187.31 142.002 187.312C142.283 187.312 142.571 187.335 142.867 187.38L142.856 196.679ZM137.955 192.833C137.954 193.869 138.249 194.728 138.84 195.409C139.416 196.09 140.192 196.513 141.169 196.677L141.178 189.264C140.127 189.426 139.328 189.839 138.78 190.504C138.231 191.169 137.957 191.946 137.955 192.833ZM136.154 178.294C136.156 176.74 136.727 175.417 137.868 174.323C138.994 173.23 140.37 172.684 141.998 172.686C143.625 172.688 145.008 173.237 146.146 174.334C147.269 175.43 147.83 176.755 147.828 178.308C147.826 180.143 147.091 181.54 145.625 182.5L151.973 182.508L151.971 184.439L136.435 184.42L136.437 182.489L138.346 182.491C136.882 181.528 136.151 180.129 136.154 178.294ZM145.963 178.55C145.965 177.44 145.589 176.508 144.835 175.752C144.066 174.997 143.12 174.618 141.995 174.617C140.871 174.615 139.931 174.992 139.175 175.745C138.405 176.499 138.019 177.431 138.018 178.54C138.016 179.665 138.4 180.605 139.168 181.36C139.922 182.116 140.861 182.494 141.986 182.496C143.11 182.497 144.057 182.121 144.828 181.367C145.583 180.614 145.962 179.675 145.963 178.55ZM141.884 157.509C142.388 156.282 143.269 155.669 144.527 155.67C145.459 155.671 146.25 156.042 146.9 156.783C147.536 157.524 147.853 158.575 147.851 159.936C147.848 162.155 146.958 163.641 145.182 164.393L144.23 162.772C145.443 162.345 146.051 161.391 146.053 159.911C146.054 159.171 145.899 158.602 145.589 158.202C145.264 157.787 144.85 157.579 144.347 157.579C143.903 157.578 143.541 157.748 143.259 158.088C142.977 158.413 142.836 158.857 142.836 159.419L142.834 161.039L141.08 161.037L141.082 159.839C141.082 159.276 140.95 158.84 140.684 158.529C140.403 158.217 140.026 158.062 139.553 158.061C139.079 158.06 138.694 158.245 138.398 158.614C138.101 158.969 137.953 159.465 137.952 160.101C137.95 161.344 138.475 162.188 139.525 162.633L138.613 164.208C136.986 163.421 136.174 162.052 136.176 160.099C136.178 158.885 136.49 157.931 137.112 157.237C137.735 156.527 138.497 156.173 139.4 156.174C140.524 156.176 141.352 156.621 141.884 157.509ZM136.485 143.714L136.488 141.783L147.585 141.797L147.583 143.728L145.674 143.725C147.138 144.689 147.868 146.088 147.866 147.923C147.864 149.476 147.3 150.8 146.174 151.893C145.033 152.987 143.649 153.533 142.022 153.531C140.394 153.529 139.019 152.979 137.896 151.883C136.758 150.787 136.19 149.462 136.192 147.908C136.194 146.073 136.928 144.676 138.394 143.716L136.485 143.714ZM146.002 147.676C146.003 146.552 145.627 145.612 144.873 144.856C144.105 144.101 143.159 143.722 142.034 143.721C140.91 143.719 139.97 144.096 139.214 144.849C138.444 145.603 138.058 146.542 138.056 147.666C138.055 148.776 138.438 149.709 139.207 150.464C139.961 151.22 140.9 151.598 142.024 151.6C143.149 151.601 144.096 151.225 144.866 150.471C145.622 149.718 146 148.786 146.002 147.676ZM145.759 128.66L145.761 127.128L150.577 127.134L150.575 129.043L147.601 129.039L147.591 137.362L150.565 137.366L150.562 139.275L145.746 139.269L145.748 137.915C144.772 137.203 143.404 136.846 141.643 136.844L136.494 136.838L136.504 128.648L145.759 128.66ZM145.75 135.717L145.757 130.568L138.3 130.559L138.294 134.931L141.646 134.936C143.303 134.938 144.671 135.198 145.75 135.717ZM136.521 115.615L136.523 113.684L147.62 113.698L147.618 115.629L145.709 115.626C147.173 116.59 147.903 117.989 147.901 119.824C147.899 121.377 147.335 122.701 146.209 123.794C145.069 124.888 143.684 125.434 142.057 125.432C140.429 125.429 139.054 124.88 137.931 123.784C136.793 122.688 136.225 121.363 136.227 119.809C136.229 117.974 136.963 116.577 138.429 115.617L136.521 115.615ZM146.037 119.577C146.038 118.453 145.662 117.513 144.909 116.757C144.14 116.002 143.194 115.623 142.069 115.622C140.945 115.62 140.005 115.996 139.249 116.75C138.479 117.504 138.093 118.443 138.091 119.567C138.09 120.677 138.474 121.61 139.242 122.365C139.996 123.121 140.935 123.499 142.059 123.501C143.184 123.502 144.131 123.126 144.902 122.372C145.657 121.619 146.036 120.687 146.037 119.577ZM136.536 103.101L136.539 101.17L147.636 101.184L147.633 103.115L143.638 103.11C144.022 103.999 144.213 104.997 144.212 106.107C144.21 107.528 143.876 108.63 143.209 109.413C142.527 110.181 141.528 110.565 140.211 110.563L136.527 110.559L136.529 108.628L140.103 108.632C140.931 108.633 141.523 108.412 141.879 107.969C142.235 107.51 142.413 106.845 142.414 105.972C142.415 104.921 142.224 103.967 141.841 103.108L136.536 103.101Z" fill="#00A2FD"/>
<g clip-path="url(#clip2_1331_125155)">
<rect x="472" y="97" width="225.971" height="489.302" rx="30.7561" fill="#050521"/>
<g filter="url(#filter3_f_1331_125155)">
<path d="M771.858 212.803C610.82 270.509 775.847 310.045 727.118 325.903C678.39 341.76 620.672 315.244 595.395 270.227C559.881 206.978 597.453 124.494 646.181 108.636C694.91 92.7787 751.041 148.835 771.858 212.803Z" fill="url(#paint4_radial_1331_125155)"/>
</g>
<g filter="url(#filter4_f_1331_125155)">
<path d="M471.147 455.677C524.05 418.682 401.357 374.726 442.15 350.82C482.943 326.914 541.78 342.128 575.303 380.89C622.404 435.352 583.358 460.869 542.565 484.775C501.773 508.681 460.579 503.499 471.147 455.677Z" fill="url(#paint5_radial_1331_125155)"/>
</g>
<g filter="url(#filter5_f_1331_125155)">
<path d="M636.705 397.63C664.806 378.422 603.628 361.314 625.155 348.699C646.682 336.083 676.2 341.501 692.092 358.887C714.421 383.315 693.735 396.642 672.208 409.257C650.681 421.873 629.846 420.679 636.705 397.63Z" fill="url(#paint6_radial_1331_125155)"/>
</g>
<circle cx="670.856" cy="542.314" r="17.1532" stroke="#D16FFF" stroke-width="0.643818"/>
<path d="M670.395 547.832V541.853M670.395 541.853V535.875M670.395 541.853H676.374M670.395 541.853H664.417" stroke="#D16FFF" stroke-width="0.643818" stroke-linecap="round"/>
<rect x="481.641" y="320.295" width="206.688" height="36.1553" rx="7.83989" fill="black" fill-opacity="0.39"/>
<path d="M676.497 339.553V339.104L678.293 337.293C678.806 336.78 679.063 336.341 679.063 335.975C679.063 335.657 678.963 335.409 678.763 335.234C678.569 335.053 678.333 334.963 678.058 334.963C677.545 334.963 677.172 335.198 676.939 335.668L676.518 335.419C676.675 335.11 676.889 334.877 677.16 334.721C677.431 334.559 677.73 334.478 678.058 334.478C678.457 334.478 678.806 334.614 679.106 334.884C679.41 335.151 679.562 335.514 679.562 335.975C679.562 336.265 679.481 336.543 679.319 336.809C679.158 337.075 678.93 337.355 678.635 337.65L677.21 339.068H679.669V339.553H676.497Z" fill="white"/>
<path d="M510.406 334.962H511.005V340.949H510.406V338.153H507.156V340.949H506.557V334.962H507.156V337.588H510.406V334.962ZM514.26 336.57C514.893 336.57 515.404 336.796 515.791 337.246C516.185 337.691 516.382 338.218 516.382 338.828C516.382 338.891 516.376 338.979 516.364 339.093H512.61C512.667 339.527 512.849 339.872 513.157 340.128C513.471 340.379 513.856 340.504 514.312 340.504C514.637 340.504 514.916 340.439 515.15 340.308C515.389 340.171 515.569 339.994 515.689 339.778L516.185 340.068C515.997 340.37 515.74 340.61 515.415 340.787C515.09 340.963 514.719 341.052 514.303 341.052C513.63 341.052 513.083 340.841 512.661 340.419C512.239 339.997 512.028 339.461 512.028 338.811C512.028 338.172 512.236 337.639 512.653 337.212C513.069 336.784 513.605 336.57 514.26 336.57ZM514.26 337.118C513.816 337.118 513.442 337.252 513.14 337.52C512.844 337.782 512.667 338.124 512.61 338.546H515.8C515.743 338.095 515.569 337.745 515.278 337.494C514.987 337.243 514.648 337.118 514.26 337.118ZM522.137 338.751C522.605 338.922 522.839 339.256 522.839 339.752C522.839 340.1 522.722 340.388 522.488 340.616C522.26 340.838 521.929 340.949 521.496 340.949H519.418V336.673H521.325C521.741 336.673 522.063 336.781 522.291 336.998C522.519 337.209 522.633 337.483 522.633 337.819C522.633 338.247 522.468 338.557 522.137 338.751ZM521.325 337.22H519.982V338.52H521.325C521.821 338.52 522.069 338.298 522.069 337.853C522.069 337.654 522.003 337.5 521.872 337.391C521.747 337.277 521.564 337.22 521.325 337.22ZM521.496 340.402C521.747 340.402 521.938 340.342 522.069 340.222C522.206 340.103 522.274 339.934 522.274 339.718C522.274 339.518 522.206 339.361 522.069 339.247C521.938 339.128 521.747 339.068 521.496 339.068H519.982V340.402H521.496ZM525.43 338.298C525.829 338.298 526.166 338.423 526.439 338.674C526.719 338.919 526.858 339.236 526.858 339.624C526.858 340.011 526.719 340.331 526.439 340.581C526.166 340.827 525.829 340.949 525.43 340.949H523.694V336.673H524.258V338.298H525.43ZM527.457 336.673H528.021V340.949H527.457V336.673ZM525.43 340.402C525.67 340.402 525.872 340.331 526.037 340.188C526.208 340.045 526.294 339.857 526.294 339.624C526.294 339.39 526.208 339.202 526.037 339.059C525.872 338.917 525.67 338.845 525.43 338.845H524.258V340.402H525.43ZM532.815 336.673V340.949H532.251V337.22H529.787V340.949H529.223V336.673H532.815ZM537.592 340.41C537.159 340.838 536.629 341.052 536.002 341.052C535.374 341.052 534.841 340.838 534.402 340.41C533.969 339.977 533.752 339.444 533.752 338.811C533.752 338.178 533.969 337.648 534.402 337.22C534.841 336.787 535.374 336.57 536.002 336.57C536.629 336.57 537.159 336.787 537.592 337.22C538.031 337.648 538.251 338.178 538.251 338.811C538.251 339.444 538.031 339.977 537.592 340.41ZM534.804 340.017C535.129 340.342 535.528 340.504 536.002 340.504C536.475 340.504 536.874 340.342 537.199 340.017C537.524 339.686 537.686 339.284 537.686 338.811C537.686 338.338 537.524 337.939 537.199 337.614C536.874 337.283 536.475 337.118 536.002 337.118C535.528 337.118 535.129 337.283 534.804 337.614C534.479 337.939 534.317 338.338 534.317 338.811C534.317 339.284 534.479 339.686 534.804 340.017ZM542.535 336.673V340.949H541.971V337.22H540.038V339.128C540.038 339.84 539.901 340.331 539.627 340.599C539.359 340.867 538.989 340.983 538.515 340.949V340.419C538.84 340.453 539.08 340.376 539.234 340.188C539.393 340 539.473 339.646 539.473 339.128V336.673H542.535ZM546.758 336.673H547.323V340.949H546.758V339.085H544.295V340.949H543.731V336.673H544.295V338.537H546.758V336.673ZM550.492 336.57C551.125 336.57 551.635 336.796 552.023 337.246C552.416 337.691 552.613 338.218 552.613 338.828C552.613 338.891 552.607 338.979 552.596 339.093H548.841C548.898 339.527 549.081 339.872 549.389 340.128C549.702 340.379 550.087 340.504 550.543 340.504C550.868 340.504 551.148 340.439 551.382 340.308C551.621 340.171 551.801 339.994 551.92 339.778L552.416 340.068C552.228 340.37 551.972 340.61 551.647 340.787C551.322 340.963 550.951 341.052 550.535 341.052C549.862 341.052 549.315 340.841 548.893 340.419C548.471 339.997 548.26 339.461 548.26 338.811C548.26 338.172 548.468 337.639 548.884 337.212C549.3 336.784 549.836 336.57 550.492 336.57ZM550.492 337.118C550.047 337.118 549.674 337.252 549.372 337.52C549.075 337.782 548.898 338.124 548.841 338.546H552.032C551.975 338.095 551.801 337.745 551.51 337.494C551.219 337.243 550.88 337.118 550.492 337.118ZM556.539 336.673H557.103V340.949H556.539V339.085H554.076V340.949H553.511V336.673H554.076V338.537H556.539V336.673ZM561.324 336.673H561.889V340.949H561.324V339.085H558.861V340.949H558.297V336.673H558.861V338.537H561.324V336.673ZM564.819 338.298C565.218 338.298 565.554 338.423 565.828 338.674C566.107 338.919 566.247 339.236 566.247 339.624C566.247 340.011 566.107 340.331 565.828 340.581C565.554 340.827 565.218 340.949 564.819 340.949H563.083V336.673H563.647V338.298H564.819ZM566.846 336.673H567.41V340.949H566.846V336.673ZM564.819 340.402C565.058 340.402 565.261 340.331 565.426 340.188C565.597 340.045 565.683 339.857 565.683 339.624C565.683 339.39 565.597 339.202 565.426 339.059C565.261 338.917 565.058 338.845 564.819 338.845H563.647V340.402H564.819ZM570.587 336.57C571.22 336.57 571.731 336.796 572.118 337.246C572.512 337.691 572.708 338.218 572.708 338.828C572.708 338.891 572.703 338.979 572.691 339.093H568.937C568.994 339.527 569.176 339.872 569.484 340.128C569.798 340.379 570.183 340.504 570.639 340.504C570.964 340.504 571.243 340.439 571.477 340.308C571.716 340.171 571.896 339.994 572.016 339.778L572.512 340.068C572.324 340.37 572.067 340.61 571.742 340.787C571.417 340.963 571.046 341.052 570.63 341.052C569.957 341.052 569.41 340.841 568.988 340.419C568.566 339.997 568.355 339.461 568.355 338.811C568.355 338.172 568.563 337.639 568.98 337.212C569.396 336.784 569.932 336.57 570.587 336.57ZM570.587 337.118C570.143 337.118 569.769 337.252 569.467 337.52C569.171 337.782 568.994 338.124 568.937 338.546H572.127C572.07 338.095 571.896 337.745 571.605 337.494C571.314 337.243 570.975 337.118 570.587 337.118Z" fill="white"/>
<path d="M497.036 337.824C497.036 340.026 495.249 341.812 493.045 341.812C490.84 341.812 489.054 340.026 489.054 337.824C489.054 335.622 490.84 333.837 493.045 333.837C495.249 333.837 497.036 335.622 497.036 337.824Z" stroke="#D16FFF" stroke-width="0.570174"/>
<rect x="491.618" y="337.824" width="2.85087" height="0.71211" rx="0.356055" fill="#00A2FD"/>
<rect x="481.641" y="279.592" width="206.688" height="36.1553" rx="7.83989" fill="black" fill-opacity="0.39"/>
<path d="M677.211 298.849V298.4L679.007 296.589C679.52 296.076 679.777 295.637 679.777 295.271C679.777 294.952 679.677 294.705 679.477 294.53C679.282 294.349 679.047 294.259 678.772 294.259C678.259 294.259 677.886 294.494 677.653 294.964L677.232 294.715C677.389 294.406 677.603 294.173 677.874 294.016C678.145 293.855 678.444 293.774 678.772 293.774C679.171 293.774 679.52 293.91 679.819 294.18C680.124 294.446 680.276 294.81 680.276 295.271C680.276 295.561 680.195 295.839 680.033 296.105C679.872 296.371 679.644 296.651 679.349 296.946L677.924 298.364H680.382V298.849H677.211Z" fill="white"/>
<path d="M510.834 294.259V300.246H510.235V294.824H507.156V300.246H506.557V294.259H510.834ZM514.41 295.867C515.02 295.867 515.539 296.084 515.966 296.517C516.4 296.95 516.616 297.481 516.616 298.108C516.616 298.735 516.4 299.265 515.966 299.699C515.539 300.132 515.02 300.349 514.41 300.349C513.652 300.349 513.076 300.035 512.682 299.408V301.957H512.118V295.97H512.682V296.808C513.076 296.181 513.652 295.867 514.41 295.867ZM513.17 299.314C513.495 299.639 513.894 299.801 514.367 299.801C514.84 299.801 515.239 299.639 515.564 299.314C515.889 298.983 516.052 298.581 516.052 298.108C516.052 297.635 515.889 297.236 515.564 296.911C515.239 296.58 514.84 296.415 514.367 296.415C513.894 296.415 513.495 296.58 513.17 296.911C512.845 297.236 512.682 297.635 512.682 298.108C512.682 298.581 512.845 298.983 513.17 299.314ZM519.531 295.867C520.164 295.867 520.674 296.092 521.062 296.543C521.455 296.988 521.652 297.515 521.652 298.125C521.652 298.188 521.646 298.276 521.635 298.39H517.88C517.937 298.824 518.12 299.168 518.427 299.425C518.741 299.676 519.126 299.801 519.582 299.801C519.907 299.801 520.186 299.736 520.42 299.605C520.66 299.468 520.839 299.291 520.959 299.074L521.455 299.365C521.267 299.667 521.01 299.907 520.685 300.084C520.36 300.26 519.99 300.349 519.573 300.349C518.901 300.349 518.353 300.138 517.931 299.716C517.509 299.294 517.298 298.758 517.298 298.108C517.298 297.469 517.507 296.936 517.923 296.509C518.339 296.081 518.875 295.867 519.531 295.867ZM519.531 296.415C519.086 296.415 518.712 296.549 518.41 296.816C518.114 297.079 517.937 297.421 517.88 297.843H521.07C521.013 297.392 520.839 297.042 520.548 296.791C520.258 296.54 519.918 296.415 519.531 296.415ZM525.975 299.699H526.573V301.392H526.009V300.246H522.519V301.392H521.955V299.699H522.477C522.767 299.317 522.913 298.778 522.913 298.082V295.97H525.975V299.699ZM523.161 299.699H525.41V296.517H523.477V298.082C523.477 298.738 523.372 299.277 523.161 299.699ZM529.253 300.349C528.609 300.349 528.073 300.135 527.645 299.707C527.217 299.274 527.004 298.741 527.004 298.108C527.004 297.475 527.217 296.945 527.645 296.517C528.073 296.084 528.609 295.867 529.253 295.867C529.675 295.867 530.054 295.97 530.39 296.175C530.727 296.375 530.972 296.645 531.126 296.988L530.664 297.253C530.55 296.996 530.365 296.794 530.108 296.645C529.857 296.491 529.572 296.415 529.253 296.415C528.78 296.415 528.381 296.58 528.056 296.911C527.731 297.236 527.568 297.635 527.568 298.108C527.568 298.581 527.731 298.983 528.056 299.314C528.381 299.639 528.78 299.801 529.253 299.801C529.572 299.801 529.857 299.727 530.108 299.579C530.359 299.425 530.556 299.22 530.698 298.963L531.169 299.237C530.992 299.579 530.733 299.85 530.39 300.049C530.048 300.249 529.669 300.349 529.253 300.349ZM534.975 295.97V296.517H533.461V300.246H532.896V296.517H531.383V295.97H534.975ZM539.079 299.707C538.646 300.135 538.115 300.349 537.488 300.349C536.861 300.349 536.328 300.135 535.889 299.707C535.456 299.274 535.239 298.741 535.239 298.108C535.239 297.475 535.456 296.945 535.889 296.517C536.328 296.084 536.861 295.867 537.488 295.867C538.115 295.867 538.646 296.084 539.079 296.517C539.518 296.945 539.738 297.475 539.738 298.108C539.738 298.741 539.518 299.274 539.079 299.707ZM536.291 299.314C536.616 299.639 537.015 299.801 537.488 299.801C537.961 299.801 538.361 299.639 538.686 299.314C539.011 298.983 539.173 298.581 539.173 298.108C539.173 297.635 539.011 297.236 538.686 296.911C538.361 296.58 537.961 296.415 537.488 296.415C537.015 296.415 536.616 296.58 536.291 296.911C535.966 297.236 535.803 297.635 535.803 298.108C535.803 298.581 535.966 298.983 536.291 299.314ZM543.594 295.97V300.246H543.03V298.604H542.294L540.977 300.246H540.259L541.61 298.587C541.268 298.536 540.986 298.393 540.763 298.159C540.541 297.925 540.43 297.638 540.43 297.295C540.43 296.908 540.566 296.591 540.84 296.346C541.119 296.095 541.459 295.97 541.858 295.97H543.594ZM541.858 298.074H543.03V296.517H541.858C541.618 296.517 541.413 296.588 541.242 296.731C541.077 296.874 540.994 297.062 540.994 297.295C540.994 297.529 541.077 297.717 541.242 297.86C541.413 298.002 541.618 298.074 541.858 298.074ZM550.522 299.699H551.12V301.392H550.556V300.246H544.791V295.97H545.356V299.699H547.374V295.97H547.939V299.699H549.957V295.97H550.522V299.699ZM555.087 295.97H555.566V300.246H555.002V296.953L552.453 300.246H551.974V295.97H552.539V299.263L555.087 295.97ZM558.736 295.867C559.369 295.867 559.879 296.092 560.267 296.543C560.66 296.988 560.857 297.515 560.857 298.125C560.857 298.188 560.851 298.276 560.84 298.39H557.085C557.142 298.824 557.325 299.168 557.632 299.425C557.946 299.676 558.331 299.801 558.787 299.801C559.112 299.801 559.391 299.736 559.625 299.605C559.865 299.468 560.044 299.291 560.164 299.074L560.66 299.365C560.472 299.667 560.215 299.907 559.89 300.084C559.565 300.26 559.195 300.349 558.778 300.349C558.106 300.349 557.558 300.138 557.136 299.716C556.714 299.294 556.503 298.758 556.503 298.108C556.503 297.469 556.712 296.936 557.128 296.509C557.544 296.081 558.08 295.867 558.736 295.867ZM558.736 296.415C558.291 296.415 557.918 296.549 557.615 296.816C557.319 297.079 557.142 297.421 557.085 297.843H560.275C560.218 297.392 560.044 297.042 559.753 296.791C559.463 296.54 559.123 296.415 558.736 296.415Z" fill="white"/>
<path d="M493.09 292.849V293.602C490.772 293.602 488.872 295.468 488.872 297.745C488.872 300.021 490.772 301.887 493.09 301.887C495.408 301.887 497.308 300.021 497.308 297.745C497.308 296.635 496.883 295.632 496.122 294.885L495.583 295.415C496.203 296.023 496.541 296.82 496.541 297.745C496.541 299.611 494.99 301.134 493.09 301.134C491.19 301.134 489.639 299.611 489.639 297.745C489.639 295.879 491.19 294.355 493.09 294.355V295.108L495.008 293.978L493.09 292.849ZM493.893 295.32L492.935 297.203C492.814 297.236 492.707 297.306 492.631 297.404C492.555 297.502 492.514 297.622 492.515 297.745C492.515 297.894 492.576 298.038 492.683 298.144C492.791 298.25 492.938 298.31 493.09 298.31H493.114L494.348 299.522L494.9 298.98L493.665 297.768V297.745C493.665 297.67 493.644 297.598 493.617 297.533L494.588 295.65L493.893 295.32Z" fill="#D16FFF"/>
<rect x="481.641" y="238.888" width="206.688" height="36.1553" rx="7.83989" fill="black" fill-opacity="0.39"/>
<path d="M679.776 253.156H680.204V258.146H679.705V253.705L678.586 254.04L678.457 253.613L679.776 253.156Z" fill="white"/>
<path d="M509.32 256.447C509.65 256.572 509.907 256.763 510.089 257.02C510.272 257.277 510.363 257.579 510.363 257.927C510.363 258.428 510.175 258.842 509.799 259.167C509.428 259.486 508.926 259.646 508.293 259.646C507.723 259.646 507.267 259.517 506.925 259.261C506.583 259.004 506.346 258.682 506.215 258.294L506.728 258.003C506.802 258.306 506.962 258.562 507.207 258.773C507.458 258.978 507.82 259.081 508.293 259.081C508.761 259.081 509.123 258.976 509.38 258.765C509.636 258.548 509.764 258.269 509.764 257.927C509.764 257.584 509.645 257.308 509.405 257.097C509.172 256.88 508.847 256.772 508.43 256.772H507.746V256.207H508.216C508.621 256.207 508.943 256.105 509.183 255.9C509.422 255.694 509.542 255.429 509.542 255.104C509.542 254.785 509.425 254.525 509.191 254.326C508.963 254.121 508.65 254.018 508.251 254.018C507.515 254.018 507.03 254.332 506.797 254.959L506.301 254.668C506.449 254.303 506.683 254.009 507.002 253.787C507.327 253.565 507.743 253.454 508.251 253.454C508.815 253.454 509.271 253.613 509.619 253.932C509.967 254.246 510.141 254.639 510.141 255.113C510.141 255.711 509.867 256.156 509.32 256.447ZM514.985 255.267H515.55V259.543H514.985V258.705C514.592 259.332 514.016 259.646 513.258 259.646C512.648 259.646 512.126 259.429 511.692 258.996C511.265 258.562 511.051 258.032 511.051 257.405C511.051 256.778 511.265 256.247 511.692 255.814C512.126 255.381 512.648 255.164 513.258 255.164C514.016 255.164 514.592 255.478 514.985 256.105V255.267ZM512.103 258.611C512.428 258.936 512.827 259.098 513.3 259.098C513.774 259.098 514.173 258.936 514.498 258.611C514.823 258.28 514.985 257.878 514.985 257.405C514.985 256.932 514.823 256.532 514.498 256.207C514.173 255.877 513.774 255.711 513.3 255.711C512.827 255.711 512.428 255.877 512.103 256.207C511.778 256.532 511.616 256.932 511.616 257.405C511.616 257.878 511.778 258.28 512.103 258.611ZM519.465 257.345C519.932 257.516 520.166 257.85 520.166 258.346C520.166 258.693 520.049 258.981 519.815 259.209C519.587 259.432 519.256 259.543 518.823 259.543H516.745V255.267H518.652C519.068 255.267 519.39 255.375 519.619 255.592C519.847 255.803 519.961 256.076 519.961 256.413C519.961 256.84 519.795 257.151 519.465 257.345ZM518.652 255.814H517.309V257.114H518.652C519.148 257.114 519.396 256.892 519.396 256.447C519.396 256.247 519.331 256.093 519.199 255.985C519.074 255.871 518.892 255.814 518.652 255.814ZM518.823 258.996C519.074 258.996 519.265 258.936 519.396 258.816C519.533 258.696 519.601 258.528 519.601 258.311C519.601 258.112 519.533 257.955 519.396 257.841C519.265 257.721 519.074 257.661 518.823 257.661H517.309V258.996H518.823ZM523.933 255.267V255.814H522.419V259.543H521.855V255.814H520.341V255.267H523.933ZM526.913 255.164C527.523 255.164 528.042 255.381 528.47 255.814C528.903 256.247 529.12 256.778 529.12 257.405C529.12 258.032 528.903 258.562 528.47 258.996C528.042 259.429 527.523 259.646 526.913 259.646C526.155 259.646 525.579 259.332 525.185 258.705V261.253H524.621V255.267H525.185V256.105C525.579 255.478 526.155 255.164 526.913 255.164ZM525.673 258.611C525.998 258.936 526.397 259.098 526.87 259.098C527.344 259.098 527.743 258.936 528.068 258.611C528.393 258.28 528.555 257.878 528.555 257.405C528.555 256.932 528.393 256.532 528.068 256.207C527.743 255.877 527.344 255.711 526.87 255.711C526.397 255.711 525.998 255.877 525.673 256.207C525.348 256.532 525.185 256.932 525.185 257.405C525.185 257.878 525.348 258.28 525.673 258.611ZM533.736 255.267H534.3V259.543H533.736V258.705C533.342 259.332 532.767 259.646 532.008 259.646C531.398 259.646 530.876 259.429 530.443 258.996C530.015 258.562 529.802 258.032 529.802 257.405C529.802 256.778 530.015 256.247 530.443 255.814C530.876 255.381 531.398 255.164 532.008 255.164C532.767 255.164 533.342 255.478 533.736 256.105V255.267ZM530.854 258.611C531.179 258.936 531.578 259.098 532.051 259.098C532.524 259.098 532.923 258.936 533.248 258.611C533.573 258.28 533.736 257.878 533.736 257.405C533.736 256.932 533.573 256.532 533.248 256.207C532.923 255.877 532.524 255.711 532.051 255.711C531.578 255.711 531.179 255.877 530.854 256.207C530.529 256.532 530.366 256.932 530.366 257.405C530.366 257.878 530.529 258.28 530.854 258.611Z" fill="white"/>
<path d="M495.824 252.811H495.432V252.034H494.648V252.811H490.729V252.034H489.945V252.811H489.553C489.121 252.811 488.769 253.161 488.769 253.588V259.804C488.769 260.231 489.121 260.58 489.553 260.58H495.824C496.256 260.58 496.608 260.231 496.608 259.804V253.588C496.608 253.161 496.256 252.811 495.824 252.811ZM495.824 259.804H489.553V254.753H495.824V259.804Z" fill="#D16FFF"/>
<rect x="493.045" y="255.596" width="1.42543" height="1.42438" fill="#00A2FD"/>
<rect x="481.641" y="198.187" width="206.688" height="36.1553" rx="7.83989" fill="black" fill-opacity="0.39"/>
<path d="M679.043 215.132C679.442 215.184 679.77 215.339 680.026 215.595C680.287 215.847 680.418 216.182 680.418 216.6C680.418 217.075 680.254 217.451 679.926 217.726C679.603 217.997 679.209 218.132 678.743 218.132C678.373 218.132 678.042 218.047 677.753 217.876C677.463 217.705 677.258 217.46 677.14 217.142L677.553 216.899C677.634 217.146 677.779 217.334 677.988 217.462C678.197 217.586 678.449 217.648 678.743 217.648C679.085 217.648 679.366 217.557 679.584 217.377C679.808 217.192 679.919 216.933 679.919 216.6C679.919 216.267 679.808 216.011 679.584 215.83C679.366 215.645 679.085 215.552 678.743 215.552V215.545L678.736 215.552H678.601L678.387 215.225L679.627 213.528H677.282V213.058H680.204V213.528L679.043 215.132Z" fill="white"/>
<path d="M509.354 219.546C508.447 219.546 507.698 219.247 507.105 218.648C506.512 218.049 506.215 217.317 506.215 216.45C506.215 215.583 506.512 214.851 507.105 214.252C507.698 213.653 508.447 213.354 509.354 213.354C509.907 213.354 510.414 213.488 510.876 213.756C511.338 214.018 511.695 214.375 511.945 214.825L511.415 215.133C511.227 214.768 510.948 214.477 510.577 214.26C510.206 214.044 509.799 213.935 509.354 213.935C508.607 213.935 507.997 214.178 507.524 214.662C507.05 215.147 506.814 215.743 506.814 216.45C506.814 217.157 507.05 217.753 507.524 218.237C507.997 218.722 508.607 218.964 509.354 218.964C509.799 218.964 510.206 218.856 510.577 218.639C510.948 218.423 511.227 218.132 511.415 217.767L511.945 218.066C511.7 218.517 511.344 218.876 510.876 219.144C510.414 219.412 509.907 219.546 509.354 219.546ZM514.778 215.064C515.411 215.064 515.922 215.29 516.309 215.74C516.703 216.185 516.899 216.712 516.899 217.322C516.899 217.385 516.894 217.473 516.882 217.587H513.128C513.185 218.021 513.367 218.366 513.675 218.622C513.989 218.873 514.373 218.999 514.83 218.999C515.155 218.999 515.434 218.933 515.668 218.802C515.907 218.665 516.087 218.488 516.207 218.272L516.703 218.562C516.514 218.865 516.258 219.104 515.933 219.281C515.608 219.458 515.237 219.546 514.821 219.546C514.148 219.546 513.601 219.335 513.179 218.913C512.757 218.491 512.546 217.955 512.546 217.305C512.546 216.667 512.754 216.134 513.17 215.706C513.587 215.278 514.123 215.064 514.778 215.064ZM514.778 215.612C514.334 215.612 513.96 215.746 513.658 216.014C513.361 216.276 513.185 216.618 513.128 217.04H516.318C516.261 216.59 516.087 216.239 515.796 215.988C515.505 215.737 515.166 215.612 514.778 215.612ZM520.534 215.167V215.714H518.362V219.443H517.797V215.167H520.534ZM524.638 218.905C524.205 219.332 523.675 219.546 523.047 219.546C522.42 219.546 521.887 219.332 521.448 218.905C521.015 218.471 520.798 217.938 520.798 217.305C520.798 216.672 521.015 216.142 521.448 215.714C521.887 215.281 522.42 215.064 523.047 215.064C523.675 215.064 524.205 215.281 524.638 215.714C525.077 216.142 525.297 216.672 525.297 217.305C525.297 217.938 525.077 218.471 524.638 218.905ZM521.85 218.511C522.175 218.836 522.574 218.999 523.047 218.999C523.521 218.999 523.92 218.836 524.245 218.511C524.57 218.18 524.732 217.778 524.732 217.305C524.732 216.832 524.57 216.433 524.245 216.108C523.92 215.777 523.521 215.612 523.047 215.612C522.574 215.612 522.175 215.777 521.85 216.108C521.525 216.433 521.362 216.832 521.362 217.305C521.362 217.778 521.525 218.18 521.85 218.511ZM529.666 218.896H530.265V220.589H529.701V219.443H526.211V220.589H525.647V218.896H526.168C526.459 218.514 526.604 217.975 526.604 217.28V215.167H529.666V218.896ZM526.853 218.896H529.102V215.714H527.169V217.28C527.169 217.935 527.063 218.474 526.853 218.896ZM534.147 215.167H534.711V219.443H534.147V217.579H531.683V219.443H531.119V215.167H531.683V217.032H534.147V215.167ZM538.984 215.167V219.443H538.419V217.801H537.684L536.367 219.443H535.648L536.999 217.784C536.657 217.733 536.375 217.59 536.153 217.357C535.93 217.123 535.819 216.835 535.819 216.493C535.819 216.105 535.956 215.789 536.23 215.543C536.509 215.292 536.848 215.167 537.247 215.167H538.984ZM537.247 217.271H538.419V215.714H537.247C537.008 215.714 536.803 215.786 536.632 215.928C536.466 216.071 536.384 216.259 536.384 216.493C536.384 216.726 536.466 216.915 536.632 217.057C536.803 217.2 537.008 217.271 537.247 217.271Z" fill="white"/>
<path d="M495.824 212.67H495.432V211.893H494.648V212.67H490.729V211.893H489.945V212.67H489.553C489.121 212.67 488.769 213.02 488.769 213.448V219.668C488.769 220.095 489.121 220.445 489.553 220.445H495.824C496.256 220.445 496.608 220.095 496.608 219.668V213.448C496.608 213.02 496.256 212.67 495.824 212.67ZM495.824 219.668H489.553V214.614H495.824V219.668Z" fill="#D16FFF"/>
<rect x="491.619" y="215.455" width="1.42543" height="1.42543" fill="#D16FFF"/>
<path d="M555.013 157.893V168.017H553.349V160.8L550.269 165.891H550.066L546.986 160.786V168.017H545.323V157.893H547.116L550.168 162.955L553.234 157.893H555.013ZM560.343 168.205C559.282 168.205 558.381 167.838 557.638 167.105C556.896 166.373 556.525 165.471 556.525 164.401C556.525 163.331 556.896 162.429 557.638 161.697C558.381 160.964 559.282 160.598 560.343 160.598C561.413 160.598 562.315 160.964 563.047 161.697C563.79 162.429 564.161 163.331 564.161 164.401C564.161 165.471 563.79 166.373 563.047 167.105C562.315 167.838 561.413 168.205 560.343 168.205ZM558.738 166.035C559.171 166.469 559.707 166.686 560.343 166.686C560.979 166.686 561.514 166.469 561.948 166.035C562.382 165.601 562.599 165.057 562.599 164.401C562.599 163.745 562.382 163.201 561.948 162.767C561.514 162.333 560.979 162.116 560.343 162.116C559.707 162.116 559.171 162.333 558.738 162.767C558.304 163.201 558.087 163.745 558.087 164.401C558.087 165.057 558.304 165.601 558.738 166.035ZM570.808 160.786H572.009V168.017H570.476V163.418L566.774 168.017H565.573V160.786H567.106V165.37L570.808 160.786ZM581.5 164.314C582.272 164.661 582.657 165.235 582.657 166.035C582.657 166.652 582.407 167.168 581.905 167.583C581.404 167.997 580.705 168.205 579.808 168.205C578.353 168.205 577.369 167.626 576.858 166.469L578.131 165.717C578.391 166.44 578.955 166.802 579.823 166.802C580.228 166.802 580.546 166.72 580.777 166.556C581.009 166.382 581.124 166.156 581.124 165.876C581.124 165.626 581.033 165.428 580.85 165.283C580.666 165.129 580.411 165.052 580.083 165.052H579.056V163.678H579.823C580.141 163.678 580.387 163.606 580.56 163.461C580.744 163.307 580.835 163.099 580.835 162.839C580.835 162.588 580.734 162.386 580.532 162.232C580.329 162.068 580.059 161.986 579.722 161.986C578.999 161.986 578.497 162.304 578.218 162.94L576.945 162.217C577.485 161.137 578.401 160.598 579.693 160.598C580.503 160.598 581.144 160.805 581.616 161.219C582.098 161.624 582.339 162.121 582.339 162.709C582.339 163.432 582.06 163.967 581.5 164.314ZM589.66 160.786H591.222V168.017H589.66V166.975C589.072 167.795 588.229 168.205 587.129 168.205C586.136 168.205 585.288 167.838 584.584 167.105C583.88 166.363 583.528 165.462 583.528 164.401C583.528 163.331 583.88 162.429 584.584 161.697C585.288 160.964 586.136 160.598 587.129 160.598C588.229 160.598 589.072 161.002 589.66 161.812V160.786ZM585.741 166.064C586.175 166.498 586.72 166.715 587.375 166.715C588.031 166.715 588.576 166.498 589.009 166.064C589.443 165.621 589.66 165.066 589.66 164.401C589.66 163.736 589.443 163.186 589.009 162.752C588.576 162.309 588.031 162.087 587.375 162.087C586.72 162.087 586.175 162.309 585.741 162.752C585.307 163.186 585.09 163.736 585.09 164.401C585.09 165.066 585.307 165.621 585.741 166.064ZM599.406 166.541H600.375V169.955H598.842V168.017H593.882V169.955H592.349V166.541H593.231C593.674 165.915 593.896 165.042 593.896 163.924V160.786H599.406V166.541ZM594.952 166.541H597.873V162.217H595.429V163.924C595.429 164.955 595.27 165.828 594.952 166.541ZM607.088 160.786H608.65V168.017H607.088V166.975C606.5 167.795 605.657 168.205 604.557 168.205C603.564 168.205 602.716 167.838 602.012 167.105C601.308 166.363 600.956 165.462 600.956 164.401C600.956 163.331 601.308 162.429 602.012 161.697C602.716 160.964 603.564 160.598 604.557 160.598C605.657 160.598 606.5 161.002 607.088 161.812V160.786ZM603.169 166.064C603.603 166.498 604.148 166.715 604.803 166.715C605.459 166.715 606.004 166.498 606.437 166.064C606.871 165.621 607.088 165.066 607.088 164.401C607.088 163.736 606.871 163.186 606.437 162.752C606.004 162.309 605.459 162.087 604.803 162.087C604.148 162.087 603.603 162.309 603.169 162.752C602.735 163.186 602.518 163.736 602.518 164.401C602.518 165.066 602.735 165.621 603.169 166.064ZM614.867 160.786H616.429V168.017H614.867V165.573C614.289 165.785 613.681 165.891 613.045 165.891C612.148 165.891 611.44 165.669 610.919 165.225C610.398 164.782 610.138 164.131 610.138 163.273V160.786H611.7V163.128C611.7 163.996 612.216 164.43 613.247 164.43C613.855 164.43 614.395 164.319 614.867 164.097V160.786ZM623.488 160.786H624.688V168.017H623.155V163.418L619.453 168.017H618.253V160.786H619.786V165.37L623.488 160.786Z" fill="white"/>
<path d="M494.688 136.929C494.938 137.049 495.135 137.22 495.28 137.443C495.431 137.667 495.506 137.924 495.506 138.215C495.506 138.651 495.353 139.017 495.047 139.313C494.74 139.609 494.366 139.757 493.925 139.757H491.572V134.304H493.754C494.179 134.304 494.54 134.447 494.836 134.733C495.132 135.018 495.28 135.371 495.28 135.792C495.28 136.275 495.083 136.654 494.688 136.929ZM493.754 134.982H492.297V136.649H493.754C493.982 136.649 494.174 136.568 494.33 136.407C494.486 136.246 494.564 136.049 494.564 135.815C494.564 135.587 494.483 135.392 494.322 135.231C494.166 135.065 493.977 134.982 493.754 134.982ZM493.925 139.079C494.169 139.079 494.374 138.993 494.54 138.822C494.706 138.651 494.79 138.44 494.79 138.191C494.79 137.947 494.704 137.739 494.533 137.568C494.366 137.397 494.164 137.311 493.925 137.311H492.297V139.079H493.925ZM497.938 137.264C498.328 137.264 498.65 137.381 498.904 137.615C499.164 137.843 499.294 138.142 499.294 138.511C499.294 138.879 499.164 139.18 498.904 139.414C498.65 139.643 498.328 139.757 497.938 139.757H496.295V135.862H496.972V137.264H497.938ZM499.8 135.862H500.478V139.757H499.8V135.862ZM497.938 139.126C498.131 139.126 498.292 139.071 498.421 138.962C498.556 138.848 498.624 138.697 498.624 138.511C498.624 138.324 498.556 138.173 498.421 138.059C498.292 137.944 498.131 137.887 497.938 137.887H496.972V139.126H497.938ZM502.152 135.278V134.686H504.255V135.278H502.152ZM504.341 135.862H504.886V139.757H504.216V137.023L502.058 139.757H501.513V135.862H502.183V138.596L504.341 135.862ZM508.815 135.862V136.516H507.491V139.757H506.813V136.516H505.481V135.862H508.815ZM512.237 135.862H512.782V139.757H512.112V137.023L509.955 139.757H509.409V135.862H510.079V138.596L512.237 135.862Z" fill="#00A2FD"/>
<path d="M485.034 134.589C485.186 134.437 485.186 134.19 485.034 134.038C484.882 133.886 484.635 133.886 484.483 134.038L485.034 134.589ZM481.643 137.429L481.368 137.154L481.092 137.429L481.368 137.705L481.643 137.429ZM484.483 140.821C484.635 140.973 484.882 140.973 485.034 140.821C485.186 140.668 485.186 140.422 485.034 140.27L484.483 140.821ZM484.483 134.038L481.368 137.154L481.918 137.705L485.034 134.589L484.483 134.038ZM481.368 137.705L484.483 140.821L485.034 140.27L481.918 137.154L481.368 137.705Z" fill="#00A2FD"/>
<g clip-path="url(#clip3_1331_125155)">
<path d="M518.715 95.7949H650.682V95.7949C649.413 96.1581 648.523 97.2985 648.48 98.6177L648.462 99.1464V99.1464C648.462 107.279 641.869 113.873 633.736 113.873H535.661C527.528 113.873 520.934 107.279 520.934 99.1464V99.1464L520.917 98.6177C520.874 97.2985 519.984 96.1581 518.715 95.7949V95.7949Z" fill="black"/>
<path opacity="0.35" d="M676.107 107.747H686.15C686.871 107.747 687.456 108.331 687.456 109.052V112.668C687.456 113.389 686.871 113.973 686.15 113.973H676.107C675.386 113.973 674.801 113.389 674.801 112.668V109.052C674.801 108.331 675.386 107.747 676.107 107.747Z" stroke="black" stroke-width="0.602589"/>
<path opacity="0.4" d="M688.359 109.655V112.066C688.844 111.861 689.16 111.387 689.16 110.86C689.16 110.334 688.844 109.859 688.359 109.655" fill="black"/>
<path d="M675.705 109.454C675.705 109.01 676.065 108.65 676.509 108.65H685.748C686.192 108.65 686.552 109.01 686.552 109.454V112.266C686.552 112.71 686.192 113.069 685.748 113.069H676.509C676.065 113.069 675.705 112.71 675.705 112.266V109.454Z" fill="black"/>
<path fill-rule="evenodd" clip-rule="evenodd" d="M666.866 108.816C668.202 108.816 669.486 109.329 670.454 110.249C670.526 110.32 670.643 110.319 670.715 110.247L671.411 109.544C671.448 109.507 671.468 109.458 671.468 109.406C671.467 109.354 671.446 109.305 671.41 109.269C668.87 106.835 664.863 106.835 662.323 109.269C662.286 109.305 662.265 109.354 662.265 109.406C662.264 109.458 662.285 109.507 662.321 109.544L663.018 110.247C663.089 110.319 663.206 110.32 663.279 110.249C664.247 109.329 665.531 108.816 666.866 108.816ZM666.866 111.103C667.6 111.103 668.307 111.375 668.851 111.868C668.925 111.938 669.041 111.936 669.112 111.864L669.808 111.161C669.845 111.125 669.865 111.075 669.865 111.023C669.864 110.971 669.843 110.921 669.805 110.885C668.149 109.344 665.585 109.344 663.929 110.885C663.891 110.921 663.87 110.971 663.869 111.023C663.869 111.075 663.889 111.125 663.926 111.161L664.622 111.864C664.693 111.936 664.809 111.938 664.883 111.868C665.426 111.376 666.133 111.103 666.866 111.103ZM668.26 112.642C668.261 112.694 668.241 112.744 668.203 112.78L667 113.995C666.965 114.031 666.916 114.051 666.866 114.051C666.816 114.051 666.768 114.031 666.733 113.995L665.529 112.78C665.492 112.744 665.471 112.694 665.472 112.642C665.474 112.589 665.496 112.54 665.535 112.505C666.303 111.855 667.429 111.855 668.198 112.505C668.236 112.54 668.259 112.589 668.26 112.642Z" fill="black"/>
<path fill-rule="evenodd" clip-rule="evenodd" d="M658.633 107.646H658.03C657.697 107.646 657.427 107.916 657.427 108.249V113.472C657.427 113.804 657.697 114.074 658.03 114.074H658.633C658.965 114.074 659.235 113.804 659.235 113.472V108.249C659.235 107.916 658.965 107.646 658.633 107.646ZM655.218 109.052H655.82C656.153 109.052 656.423 109.322 656.423 109.655V113.471C656.423 113.804 656.153 114.074 655.82 114.074H655.218C654.885 114.074 654.615 113.804 654.615 113.471V109.655C654.615 109.322 654.885 109.052 655.218 109.052ZM653.008 110.459H652.405C652.073 110.459 651.803 110.729 651.803 111.061V113.472C651.803 113.805 652.073 114.074 652.405 114.074H653.008C653.341 114.074 653.611 113.805 653.611 113.472V111.061C653.611 110.729 653.341 110.459 653.008 110.459ZM650.196 111.664H649.594C649.261 111.664 648.991 111.934 648.991 112.267V113.472C648.991 113.805 649.261 114.074 649.594 114.074H650.196C650.529 114.074 650.799 113.805 650.799 113.472V112.267C650.799 111.934 650.529 111.664 650.196 111.664Z" fill="black"/>
<path d="M494.489 114.027C496.108 114.027 497.07 112.76 497.07 110.615C497.07 109.807 496.916 109.128 496.62 108.603C496.192 107.786 495.455 107.345 494.524 107.345C493.138 107.345 492.158 108.276 492.158 109.582C492.158 110.809 493.041 111.701 494.255 111.701C495 111.701 495.605 111.352 495.905 110.748H495.918C495.918 110.748 495.936 110.748 495.941 110.748C495.949 110.748 495.98 110.748 495.98 110.748C495.98 112.204 495.429 113.073 494.497 113.073C493.95 113.073 493.526 112.773 493.381 112.292H492.246C492.436 113.338 493.323 114.027 494.489 114.027ZM494.528 110.796C493.796 110.796 493.275 110.275 493.275 109.547C493.275 108.836 493.822 108.294 494.533 108.294C495.243 108.294 495.791 108.845 495.791 109.565C495.791 110.275 495.256 110.796 494.528 110.796Z" fill="black"/>
<path d="M498.933 113.965C499.352 113.965 499.639 113.665 499.639 113.268C499.639 112.866 499.352 112.57 498.933 112.57C498.518 112.57 498.227 112.866 498.227 113.268C498.227 113.665 498.518 113.965 498.933 113.965ZM498.933 110.655C499.352 110.655 499.639 110.359 499.639 109.962C499.639 109.56 499.352 109.265 498.933 109.265C498.518 109.265 498.227 109.56 498.227 109.962C498.227 110.359 498.518 110.655 498.933 110.655Z" fill="black"/>
<path d="M503.77 113.872H504.861V112.685H505.721V111.723H504.861V107.504H503.254C502.129 109.198 501.233 110.615 500.659 111.67V112.685H503.77V113.872ZM501.714 111.683C502.455 110.377 503.117 109.331 503.726 108.43H503.788V111.749H501.714V111.683Z" fill="black"/>
<path d="M508.149 113.872H509.287V107.504H508.153L506.489 108.669V109.763L508.074 108.651H508.149V113.872Z" fill="black"/>
</g>
<rect x="544.627" y="577.981" width="80.7469" height="3.01294" rx="1.50647" fill="black"/>
</g>
<defs>
<filter id="filter0_f_1331_125155" x="220.962" y="-24.8416" width="395.327" height="429.462" filterUnits="userSpaceOnUse" color-interpolation-filters="sRGB">
<feFlood flood-opacity="0" result="BackgroundImageFix"/>
<feBlend mode="normal" in="SourceGraphic" in2="BackgroundImageFix" result="shape"/>
<feGaussianBlur stdDeviation="51.2147" result="effect1_foregroundBlur_1331_125155"/>
</filter>
<filter id="filter1_f_1331_125155" x="73.2551" y="208.611" width="368.004" height="364.17" filterUnits="userSpaceOnUse" color-interpolation-filters="sRGB">
<feFlood flood-opacity="0" result="BackgroundImageFix"/>
<feBlend mode="normal" in="SourceGraphic" in2="BackgroundImageFix" result="shape"/>
<feGaussianBlur stdDeviation="51.2147" result="effect1_foregroundBlur_1331_125155"/>
</filter>
<filter id="filter2_f_1331_125155" x="291.554" y="242.548" width="223.074" height="217.287" filterUnits="userSpaceOnUse" color-interpolation-filters="sRGB">
<feFlood flood-opacity="0" result="BackgroundImageFix"/>
<feBlend mode="normal" in="SourceGraphic" in2="BackgroundImageFix" result="shape"/>
<feGaussianBlur stdDeviation="35.4564" result="effect1_foregroundBlur_1331_125155"/>
</filter>
<filter id="filter3_f_1331_125155" x="478.96" y="3.49141" width="395.327" height="429.462" filterUnits="userSpaceOnUse" color-interpolation-filters="sRGB">
<feFlood flood-opacity="0" result="BackgroundImageFix"/>
<feBlend mode="normal" in="SourceGraphic" in2="BackgroundImageFix" result="shape"/>
<feGaussianBlur stdDeviation="51.2147" result="effect1_foregroundBlur_1331_125155"/>
</filter>
<filter id="filter4_f_1331_125155" x="331.252" y="236.944" width="368.004" height="364.17" filterUnits="userSpaceOnUse" color-interpolation-filters="sRGB">
<feFlood flood-opacity="0" result="BackgroundImageFix"/>
<feBlend mode="normal" in="SourceGraphic" in2="BackgroundImageFix" result="shape"/>
<feGaussianBlur stdDeviation="51.2147" result="effect1_foregroundBlur_1331_125155"/>
</filter>
<filter id="filter5_f_1331_125155" x="549.553" y="270.881" width="223.074" height="217.287" filterUnits="userSpaceOnUse" color-interpolation-filters="sRGB">
<feFlood flood-opacity="0" result="BackgroundImageFix"/>
<feBlend mode="normal" in="SourceGraphic" in2="BackgroundImageFix" result="shape"/>
<feGaussianBlur stdDeviation="35.4564" result="effect1_foregroundBlur_1331_125155"/>
</filter>
<radialGradient id="paint0_radial_1331_125155" cx="0" cy="0" r="1" gradientUnits="userSpaceOnUse" gradientTransform="translate(396.546 185.924) rotate(53.3953) scale(118.569 89.2922)">
<stop stop-color="#BC52FD" stop-opacity="0.67"/>
<stop offset="1" stop-color="#B336FF" stop-opacity="0"/>
</radialGradient>
<radialGradient id="paint1_radial_1331_125155" cx="0" cy="0" r="1" gradientUnits="userSpaceOnUse" gradientTransform="translate(276.317 416.864) rotate(-137.678) scale(117.17 82.9825)">
<stop stop-color="#0500FD"/>
<stop offset="1" stop-color="#B336FF" stop-opacity="0"/>
</radialGradient>
<radialGradient id="paint2_radial_1331_125155" cx="0" cy="0" r="1" gradientUnits="userSpaceOnUse" gradientTransform="translate(411.222 362.372) rotate(-140.156) scale(54.3432 43.1598)">
<stop stop-color="#0066FF"/>
<stop offset="1" stop-color="#B336FF" stop-opacity="0"/>
</radialGradient>
<linearGradient id="paint3_linear_1331_125155" x1="257.687" y1="431.425" x2="257.687" y2="475.414" gradientUnits="userSpaceOnUse">
<stop stop-color="#D16FFF"/>
<stop offset="1" stop-color="#A455C9" stop-opacity="0.17"/>
</linearGradient>
<radialGradient id="paint4_radial_1331_125155" cx="0" cy="0" r="1" gradientUnits="userSpaceOnUse" gradientTransform="translate(654.544 214.257) rotate(53.3953) scale(118.569 89.2922)">
<stop stop-color="#BC52FD" stop-opacity="0.67"/>
<stop offset="1" stop-color="#B336FF" stop-opacity="0"/>
</radialGradient>
<radialGradient id="paint5_radial_1331_125155" cx="0" cy="0" r="1" gradientUnits="userSpaceOnUse" gradientTransform="translate(534.314 445.197) rotate(-137.678) scale(117.17 82.9825)">
<stop stop-color="#0500FD"/>
<stop offset="1" stop-color="#B336FF" stop-opacity="0"/>
</radialGradient>
<radialGradient id="paint6_radial_1331_125155" cx="0" cy="0" r="1" gradientUnits="userSpaceOnUse" gradientTransform="translate(669.221 390.705) rotate(-140.156) scale(54.3432 43.1598)">
<stop stop-color="#0066FF"/>
<stop offset="1" stop-color="#B336FF" stop-opacity="0"/>
</radialGradient>
<clipPath id="clip0_1331_125155">
<rect x="214" y="53" width="225.971" height="489.302" rx="30.7561" fill="white"/>
</clipPath>
<clipPath id="clip1_1331_125155">
<rect width="225.971" height="26.5139" fill="white" transform="translate(214 53)"/>
</clipPath>
<clipPath id="clip2_1331_125155">
<rect x="472" y="97" width="225.971" height="489.302" rx="30.7561" fill="white"/>
</clipPath>
<clipPath id="clip3_1331_125155">
<rect width="225.971" height="26.5139" fill="white" transform="translate(472 97)"/>
</clipPath>
</defs>
</svg>
