<svg width="34" height="26" viewBox="0 0 34 26" fill="none" xmlns="http://www.w3.org/2000/svg">
<path d="M13.7487 15.0121C13.7487 15.2932 13.6654 15.568 13.5092 15.8017C13.353 16.0354 13.1311 16.2176 12.8713 16.3252C12.6116 16.4328 12.3259 16.4609 12.0502 16.4061C11.7744 16.3512 11.5212 16.2159 11.3224 16.0171C11.1236 15.8183 10.9883 15.5651 10.9334 15.2894C10.8786 15.0136 10.9067 14.7279 11.0143 14.4682C11.1219 14.2085 11.3041 13.9865 11.5378 13.8303C11.7715 13.6741 12.0463 13.5908 12.3274 13.5908C12.7044 13.5908 13.0659 13.7405 13.3324 14.0071C13.599 14.2736 13.7487 14.6351 13.7487 15.0121ZM21.4238 13.5908C21.1427 13.5908 20.8679 13.6741 20.6341 13.8303C20.4004 13.9865 20.2182 14.2085 20.1106 14.4682C20.0031 14.7279 19.9749 15.0136 20.0298 15.2894C20.0846 15.5651 20.22 15.8183 20.4187 16.0171C20.6175 16.2159 20.8708 16.3512 21.1465 16.4061C21.4222 16.4609 21.708 16.4328 21.9677 16.3252C22.2274 16.2176 22.4494 16.0354 22.6055 15.8017C22.7617 15.568 22.8451 15.2932 22.8451 15.0121C22.8451 14.6351 22.6953 14.2736 22.4288 14.0071C22.1622 13.7405 21.8007 13.5908 21.4238 13.5908ZM32.9505 20.8394C30.6338 22.8577 27.5069 24.3927 23.911 25.2739C23.7567 25.3068 23.5997 25.3258 23.442 25.3307C23.0717 25.331 22.7088 25.2272 22.3947 25.0312C22.0806 24.8352 21.8279 24.5548 21.6654 24.2221L20.2299 21.3511C19.1166 21.4823 17.9966 21.5488 16.8756 21.5501C15.7546 21.5488 14.6346 21.4823 13.5213 21.3511L12.0858 24.2221C11.9233 24.5548 11.6706 24.8352 11.3565 25.0312C11.0423 25.2272 10.6795 25.331 10.3092 25.3307C10.1515 25.3258 9.99449 25.3068 9.84016 25.2739C6.24427 24.3927 3.1174 22.8577 0.800685 20.8394C0.509531 20.5893 0.296923 20.2603 0.188486 19.8922C0.0800479 19.524 0.080409 19.1323 0.189525 18.7643L5.02195 2.66097C5.10772 2.37779 5.25557 2.11731 5.45472 1.89848C5.65388 1.67966 5.89933 1.508 6.1732 1.39601C7.58298 0.812524 9.04365 0.360525 10.5366 0.0457748C11.016 -0.0592553 11.5173 0.0179165 11.943 0.26226C12.3686 0.506604 12.6881 0.900625 12.8391 1.36758L13.7629 4.09648C15.8318 3.86903 17.9194 3.86903 19.9882 4.09648L20.9121 1.36758C21.0631 0.900625 21.3826 0.506604 21.8082 0.26226C22.2338 0.0179165 22.7352 -0.0592553 23.2146 0.0457748C24.7075 0.360525 26.1682 0.812524 27.578 1.39601C27.8519 1.508 28.0973 1.67966 28.2965 1.89848C28.4956 2.11731 28.6435 2.37779 28.7292 2.66097L33.5617 18.7643C33.6708 19.1323 33.6711 19.524 33.5627 19.8922C33.4543 20.2603 33.2417 20.5893 32.9505 20.8394ZM31.9272 19.2475L27.0947 3.15842C27.0824 3.11661 27.0606 3.07819 27.031 3.04615C27.0014 3.01412 26.9649 2.98931 26.9242 2.97365C25.609 2.43343 24.2488 2.01014 22.8593 1.7087C22.7882 1.69756 22.7155 1.71128 22.6533 1.74752C22.5912 1.78377 22.5435 1.84033 22.5182 1.90768L21.708 4.35232C22.7388 4.52951 23.7553 4.78127 24.7496 5.10561C24.9415 5.16862 25.1047 5.29766 25.2103 5.46977C25.316 5.64189 25.3571 5.84589 25.3264 6.04548C25.2957 6.24507 25.1951 6.42728 25.0427 6.55969C24.8902 6.69209 24.6957 6.7661 24.4938 6.76853L24.2237 6.72589C21.845 5.98624 19.3666 5.61711 16.8756 5.63149C14.3846 5.61711 11.9062 5.98624 9.52747 6.72589C9.41948 6.76693 9.30427 6.7856 9.18884 6.78076C9.07342 6.77592 8.96017 6.74768 8.85599 6.69776C8.75181 6.64783 8.65886 6.57725 8.58278 6.49031C8.5067 6.40337 8.44908 6.30187 8.41341 6.19199C8.37775 6.0821 8.36478 5.96611 8.3753 5.85107C8.38583 5.73602 8.41961 5.62431 8.47462 5.52271C8.52962 5.42112 8.6047 5.33176 8.69528 5.26006C8.78587 5.18836 8.89008 5.13581 9.00159 5.10561C9.99589 4.78127 11.0124 4.52951 12.0432 4.35232L11.233 1.90768C11.2077 1.84033 11.16 1.78377 11.0979 1.74752C11.0357 1.71128 10.963 1.69756 10.8919 1.7087C9.50242 2.01014 8.14219 2.43343 6.827 2.97365C6.7863 2.98931 6.74976 3.01412 6.72018 3.04615C6.69061 3.07819 6.6688 3.11661 6.65644 3.15842L1.82402 19.2475C1.80825 19.3037 1.80926 19.3632 1.82694 19.4188C1.84462 19.4744 1.8782 19.5235 1.92351 19.5602C4.04125 21.3937 6.91228 22.8008 10.2523 23.6109C10.3128 23.6246 10.3761 23.6181 10.4326 23.5924C10.489 23.5668 10.5355 23.5234 10.565 23.4688L11.7589 21.081C10.8256 20.9031 9.90463 20.6657 9.00159 20.3704C8.89008 20.3402 8.78587 20.2876 8.69528 20.2159C8.6047 20.1442 8.52962 20.0549 8.47462 19.9533C8.41961 19.8517 8.38583 19.74 8.3753 19.6249C8.36478 19.5099 8.37775 19.3939 8.41341 19.284C8.44908 19.1741 8.5067 19.0726 8.58278 18.9857C8.65886 18.8987 8.75181 18.8282 8.85599 18.7782C8.96017 18.7283 9.07342 18.7001 9.18884 18.6952C9.30427 18.6904 9.41948 18.7091 9.52747 18.7501C11.9062 19.4897 14.3846 19.8589 16.8756 19.8445C19.3666 19.8589 21.845 19.4897 24.2237 18.7501C24.3317 18.7091 24.4469 18.6904 24.5623 18.6952C24.6778 18.7001 24.791 18.7283 24.8952 18.7782C24.9994 18.8282 25.0923 18.8987 25.1684 18.9857C25.2445 19.0726 25.3021 19.1741 25.3378 19.284C25.3734 19.3939 25.3864 19.5099 25.3759 19.6249C25.3654 19.74 25.3316 19.8517 25.2766 19.9533C25.2216 20.0549 25.1465 20.1442 25.0559 20.2159C24.9653 20.2876 24.8611 20.3402 24.7496 20.3704C23.8466 20.6657 22.9256 20.9031 21.9923 21.081L23.1862 23.4688C23.2157 23.5234 23.2622 23.5668 23.3186 23.5924C23.3751 23.6181 23.4384 23.6246 23.4989 23.6109C26.8389 22.8008 29.7099 21.3937 31.8277 19.5602C31.873 19.5235 31.9066 19.4744 31.9242 19.4188C31.9419 19.3632 31.9429 19.3037 31.9272 19.2475Z" fill="white"/>
</svg>
