<svg width="30" height="22" viewBox="0 0 30 22" fill="none" xmlns="http://www.w3.org/2000/svg">
<path d="M12.4792 12.7025C12.4792 12.9404 12.4086 13.1729 12.2765 13.3707C12.1443 13.5684 11.9565 13.7226 11.7368 13.8136C11.517 13.9046 11.2752 13.9285 11.0419 13.8821C10.8086 13.8356 10.5943 13.7211 10.4261 13.5529C10.2579 13.3847 10.1434 13.1704 10.097 12.9371C10.0506 12.7039 10.0744 12.462 10.1654 12.2423C10.2565 12.0225 10.4106 11.8347 10.6084 11.7026C10.8062 11.5704 11.0387 11.4999 11.2765 11.4999C11.5955 11.4999 11.9014 11.6266 12.1269 11.8521C12.3525 12.0777 12.4792 12.3836 12.4792 12.7025ZM18.9734 11.4999C18.7356 11.4999 18.503 11.5704 18.3053 11.7026C18.1075 11.8347 17.9534 12.0225 17.8623 12.2423C17.7713 12.462 17.7475 12.7039 17.7939 12.9371C17.8403 13.1704 17.9548 13.3847 18.123 13.5529C18.2912 13.7211 18.5055 13.8356 18.7388 13.8821C18.9721 13.9285 19.2139 13.9046 19.4337 13.8136C19.6534 13.7226 19.8412 13.5684 19.9734 13.3707C20.1055 13.1729 20.1761 12.9404 20.1761 12.7025C20.1761 12.3836 20.0494 12.0777 19.8238 11.8521C19.5983 11.6266 19.2924 11.4999 18.9734 11.4999ZM28.7268 17.6333C26.7665 19.3411 24.1207 20.6399 21.078 21.3856C20.9475 21.4134 20.8146 21.4295 20.6812 21.4337C20.3679 21.4339 20.0608 21.3461 19.795 21.1802C19.5292 21.0144 19.3154 20.7771 19.1779 20.4956L17.9632 18.0663C17.0212 18.1774 16.0735 18.2336 15.125 18.2347C14.1764 18.2336 13.2288 18.1774 12.2868 18.0663L11.0721 20.4956C10.9346 20.7771 10.7208 21.0144 10.455 21.1802C10.1891 21.3461 9.88209 21.4339 9.56879 21.4337C9.43532 21.4295 9.3025 21.4134 9.17192 21.3856C6.12924 20.6399 3.48343 19.3411 1.52313 17.6333C1.27677 17.4217 1.09687 17.1434 1.00512 16.8318C0.913361 16.5203 0.913666 16.1889 1.006 15.8775L5.09497 2.25159C5.16755 2.01198 5.29265 1.79157 5.46116 1.60641C5.62968 1.42125 5.83737 1.276 6.06911 1.18124C7.262 0.68752 8.49795 0.305059 9.76121 0.0387325C10.1669 -0.0501391 10.5911 0.0151602 10.9512 0.221913C11.3114 0.428665 11.5817 0.762068 11.7095 1.15719L12.4912 3.46625C14.2418 3.2738 16.0082 3.2738 17.7588 3.46625L18.5405 1.15719C18.6683 0.762068 18.9386 0.428665 19.2987 0.221913C19.6589 0.0151602 20.0831 -0.0501391 20.4888 0.0387325C21.752 0.305059 22.988 0.68752 24.1809 1.18124C24.4126 1.276 24.6203 1.42125 24.7888 1.60641C24.9573 1.79157 25.0824 2.01198 25.155 2.25159L29.244 15.8775C29.3363 16.1889 29.3366 16.5203 29.2448 16.8318C29.1531 17.1434 28.9732 17.4217 28.7268 17.6333ZM27.8609 16.2864L23.772 2.67251C23.7615 2.63713 23.743 2.60463 23.718 2.57752C23.693 2.55041 23.6621 2.52942 23.6276 2.51617C22.5148 2.05906 21.3638 1.70089 20.1881 1.44582C20.128 1.4364 20.0664 1.448 20.0138 1.47867C19.9613 1.50934 19.9209 1.55721 19.8995 1.61419L19.214 3.68273C20.0861 3.83266 20.9463 4.04569 21.7876 4.32013C21.9499 4.37344 22.0881 4.48264 22.1775 4.62827C22.2668 4.7739 22.3016 4.94653 22.2756 5.11541C22.2497 5.28429 22.1646 5.43847 22.0356 5.55051C21.9066 5.66254 21.742 5.72516 21.5711 5.72722L21.3426 5.69114C19.3299 5.06528 17.2328 4.75294 15.125 4.7651C13.0172 4.75294 10.9201 5.06528 8.90733 5.69114C8.81596 5.72586 8.71847 5.74166 8.6208 5.73757C8.52313 5.73347 8.42731 5.70958 8.33916 5.66733C8.25101 5.62508 8.17235 5.56537 8.10798 5.4918C8.0436 5.41823 7.99485 5.33235 7.96467 5.23937C7.93449 5.14639 7.92352 5.04825 7.93242 4.9509C7.94133 4.85355 7.96992 4.75903 8.01646 4.67306C8.063 4.5871 8.12652 4.51149 8.20317 4.45082C8.27982 4.39015 8.368 4.34569 8.46236 4.32013C9.30369 4.04569 10.1638 3.83266 11.036 3.68273L10.3505 1.61419C10.3291 1.55721 10.2887 1.50934 10.2361 1.47867C10.1835 1.448 10.122 1.4364 10.0619 1.44582C8.88614 1.70089 7.73517 2.05906 6.62232 2.51617C6.58789 2.52942 6.55696 2.55041 6.53193 2.57752C6.50691 2.60463 6.48846 2.63713 6.478 2.67251L2.38903 16.2864C2.37568 16.3339 2.37654 16.3843 2.3915 16.4313C2.40646 16.4783 2.43487 16.5199 2.47322 16.551C4.26515 18.1024 6.69448 19.293 9.52068 19.9785C9.57186 19.99 9.62542 19.9845 9.67319 19.9628C9.72096 19.9411 9.76031 19.9044 9.78526 19.8582L10.7955 17.8378C10.0058 17.6872 9.22647 17.4864 8.46236 17.2365C8.368 17.2109 8.27982 17.1665 8.20317 17.1058C8.12652 17.0451 8.063 16.9695 8.01646 16.8835C7.96992 16.7976 7.94133 16.703 7.93242 16.6057C7.92352 16.5084 7.93449 16.4102 7.96467 16.3172C7.99485 16.2242 8.0436 16.1384 8.10798 16.0648C8.17235 15.9912 8.25101 15.9315 8.33916 15.8893C8.42731 15.847 8.52313 15.8231 8.6208 15.819C8.71847 15.8149 8.81596 15.8307 8.90733 15.8655C10.9201 16.4913 13.0172 16.8037 15.125 16.7915C17.2328 16.8037 19.3299 16.4913 21.3426 15.8655C21.434 15.8307 21.5315 15.8149 21.6292 15.819C21.7268 15.8231 21.8226 15.847 21.9108 15.8893C21.999 15.9315 22.0776 15.9912 22.142 16.0648C22.2064 16.1384 22.2551 16.2242 22.2853 16.3172C22.3155 16.4102 22.3264 16.5084 22.3175 16.6057C22.3086 16.703 22.28 16.7976 22.2335 16.8835C22.187 16.9695 22.1234 17.0451 22.0468 17.1058C21.9701 17.1665 21.882 17.2109 21.7876 17.2365C21.0235 17.4864 20.2442 17.6872 19.4545 17.8378L20.4647 19.8582C20.4896 19.9044 20.529 19.9411 20.5768 19.9628C20.6245 19.9845 20.6781 19.99 20.7293 19.9785C23.5555 19.293 25.9848 18.1024 27.7767 16.551C27.8151 16.5199 27.8435 16.4783 27.8585 16.4313C27.8734 16.3843 27.8743 16.3339 27.8609 16.2864Z" fill="#3CA1FF"/>
</svg>
