<svg width="24" height="24" viewBox="0 0 24 24" fill="none" xmlns="http://www.w3.org/2000/svg">
<path fill-rule="evenodd" clip-rule="evenodd" d="M3.5219 3H20.6501C22.179 3 23.4218 4.24762 23.4172 5.77647V18.2283C23.4172 19.7572 22.1743 21 20.6453 21H3.5219C1.99281 21 0.75 19.7572 0.75 18.2283V5.7719C0.75 4.24281 1.99281 3 3.5219 3ZM22.1554 17.4783C22.1554 17.4849 22.1553 17.4915 22.1552 17.4982L22.1554 17.4783ZM22.1506 17.6044C22.0888 18.4448 21.4394 19.7338 20.6499 19.7338H3.52168C2.69154 19.7338 2.01622 19.0584 2.01622 18.2283V5.77643C2.01622 4.94629 2.69154 4.27098 3.52168 4.27098H20.645C21.4753 4.27098 22.1506 4.94629 22.1506 5.77643V17.6044ZM22.1506 17.6044C22.1532 17.5681 22.1548 17.5327 22.1552 17.4982L22.1506 18.2283V17.6044ZM19.171 8.67621L15.0454 12.2297L14.1028 13.0786L12.5222 14.495C12.405 14.6029 12.2501 14.659 12.1002 14.659C11.9499 14.659 11.7999 14.6075 11.6778 14.4996L10.1396 13.1256L9.18762 12.2718L4.99606 8.67621C4.73365 8.44171 4.71003 8.04299 4.94453 7.78035C5.17903 7.51764 5.57775 7.49431 5.84045 7.72881L10.4913 11.7419C10.5289 11.7701 10.5616 11.7983 10.5946 11.831C10.5946 11.8358 10.5992 11.8404 10.6038 11.845L12.0953 13.1771L18.3223 7.73362C18.5847 7.49912 18.9834 7.52245 19.2179 7.78035C19.4524 8.04299 19.4291 8.44171 19.171 8.67621Z" fill="black"/>
</svg>
