<svg width="20" height="20" viewBox="0 0 20 20" fill="none" xmlns="http://www.w3.org/2000/svg">
<path fill-rule="evenodd" clip-rule="evenodd" d="M2.7138 9.375L10.0221 2.225C10.2437 2.00286 10.1187 1.63875 9.8971 1.41661C9.67554 1.19446 9.2571 1.19446 9.03554 1.41661L0.875765 9.6013C0.654209 9.82344 0.654209 10.1797 0.875765 10.4018L9.03554 18.5823C9.14423 18.6913 9.24292 18.75 9.43267 18.75C9.62241 18.75 9.83698 18.5946 9.94567 18.4814C10.1672 18.2593 10.1672 17.903 9.94567 17.6809L2.71639 10.625H18.75C19.0952 10.625 19.375 10.3452 19.375 10C19.375 9.65482 19.0952 9.375 18.75 9.375H2.7138Z" fill="black"/>
</svg>
