<svg width="18" height="18" viewBox="0 0 18 18" fill="none" xmlns="http://www.w3.org/2000/svg">
<path fill-rule="evenodd" clip-rule="evenodd" d="M0.75 2.31129C0.75 1.03535 1.7902 0 3.07212 0C4.35323 0 5.39343 1.03535 5.39423 2.31129C5.39423 3.58723 4.35403 4.64423 3.07212 4.64423C1.7902 4.64423 0.75 3.58723 0.75 2.31129ZM0.75 5.30764H4.73077V17.2499H0.75V5.30764ZM17.9958 17.2499V17.2492H18.0002V10.8498C18.0002 7.71922 17.3261 5.30764 13.6656 5.30764C11.9059 5.30764 10.725 6.27314 10.2429 7.18848H10.192V5.59991H6.7213V17.2492H10.3352V11.4809C10.3352 9.96213 10.6232 8.49351 12.5043 8.49351C14.3578 8.49351 14.3855 10.2268 14.3855 11.5783V17.2499H17.9958Z" fill="black"/>
</svg>
