<svg width="47" height="34" viewBox="0 0 47 34" fill="none" xmlns="http://www.w3.org/2000/svg">
<path fill-rule="evenodd" clip-rule="evenodd" d="M36.5964 33.9057C39.3308 33.9057 41.592 33.1752 43.3799 31.7142C45.1679 30.2532 46.0618 28.2704 46.0618 25.7659C46.0618 23.0526 45.2467 20.9134 43.6166 19.348C41.9864 17.7827 39.8041 17.2609 37.0696 17.7827C36.8593 15.0694 37.5429 12.7736 39.1205 10.8952C40.6981 9.01678 42.7489 7.50361 45.273 6.3557L41.0136 0.0943451C39.6463 0.511769 38.0688 1.24226 36.2808 2.28582C34.4929 3.32938 32.8102 4.71209 31.2326 6.43397C29.655 8.15584 28.3141 10.3212 27.2098 12.9301C26.1055 15.539 25.5533 18.6175 25.5533 22.1656C25.5533 26.0268 26.5525 28.9488 28.5507 30.9315C30.549 32.9143 33.2309 33.9057 36.5964 33.9057ZM11.0997 33.9057C13.8341 33.9057 16.0953 33.1752 17.8833 31.7142C19.6712 30.2532 20.5651 28.2704 20.5651 25.7659C20.5651 23.0526 19.7501 20.9134 18.1199 19.348C16.4897 17.7827 14.3074 17.2609 11.573 17.7827C11.3626 15.0694 12.0462 12.7736 13.6238 10.8952C15.2014 9.01678 17.2522 7.50361 19.7764 6.3557L15.5169 0.0943451C14.1497 0.511769 12.5721 1.24226 10.7842 2.28582C8.99625 3.32938 7.3135 4.71209 5.73592 6.43397C4.15834 8.15584 2.8174 10.3212 1.7131 12.9301C0.608793 15.539 0.0566406 18.6175 0.0566406 22.1656C0.0566406 26.0268 1.05577 28.9488 3.05404 30.9315C5.0523 32.9143 7.73418 33.9057 11.0997 33.9057Z" fill="#487EFB"/>
</svg>
