<svg width="19" height="16" viewBox="0 0 19 16" fill="none" xmlns="http://www.w3.org/2000/svg">
<path fill-rule="evenodd" clip-rule="evenodd" d="M18.75 2.32333C18.0527 2.63255 17.3098 2.83752 16.5352 2.93704C17.332 2.45603 17.9402 1.70015 18.2262 0.78908C17.4832 1.23692 16.6629 1.55325 15.7887 1.72977C15.0832 0.970347 14.0777 0.5 12.9809 0.5C10.8527 0.5 9.13945 2.24633 9.13945 4.38717C9.13945 4.69521 9.16523 4.9914 9.22852 5.27337C6.03281 5.1158 3.20508 3.56732 1.30547 1.20848C0.973828 1.7902 0.779297 2.45603 0.779297 3.1728C0.779297 4.51868 1.46484 5.71173 2.48672 6.40244C1.86914 6.39059 1.26328 6.20932 0.75 5.9238C0.75 5.93565 0.75 5.95105 0.75 5.96645C0.75 7.85495 2.08242 9.42356 3.82969 9.78491C3.5168 9.87139 3.17578 9.91286 2.82188 9.91286C2.57578 9.91286 2.32734 9.89864 2.09414 9.84651C2.59219 11.3855 4.00547 12.5169 5.68594 12.5537C4.37813 13.588 2.71758 14.2111 0.919922 14.2111C0.604688 14.2111 0.302344 14.1969 0 14.1578C1.70273 15.2679 3.7207 15.9018 5.89688 15.9018C12.9703 15.9018 16.8375 9.97802 16.8375 4.8433C16.8375 4.67151 16.8316 4.50565 16.8234 4.34097C17.5863 3.79361 18.2273 3.11001 18.75 2.32333Z" fill="black"/>
</svg>
