<svg width="18" height="21" viewBox="0 0 18 21" fill="none" xmlns="http://www.w3.org/2000/svg">
<path fill-rule="evenodd" clip-rule="evenodd" d="M9.27628 0.25C3.70915 0.250831 0.75 3.7524 0.75 7.57049C0.75 9.3408 1.75782 11.5497 3.37152 12.2501C3.83185 12.4536 3.77092 12.2052 4.16694 10.7182C4.19825 10.5944 4.18218 10.4872 4.08063 10.3717C1.7739 7.75242 3.63046 2.36756 8.94711 2.36756C16.6416 2.36756 15.2039 12.8199 10.2858 12.8199C9.01819 12.8199 8.07384 11.843 8.37254 10.6343C8.73472 9.19459 9.44383 7.64692 9.44383 6.60932C9.44383 3.99415 5.47517 4.38211 5.47517 7.84713C5.47517 8.91795 5.86103 9.6407 5.86103 9.6407C5.86103 9.6407 4.58412 14.7049 4.34718 15.6511C3.94609 17.2528 4.40134 19.8455 4.44111 20.069C4.46565 20.1919 4.60612 20.231 4.68482 20.1296C4.8109 19.9676 6.35436 17.806 6.78677 16.2434C6.94416 15.6744 7.58981 13.3649 7.58981 13.3649C8.01545 14.1192 9.24244 14.7506 10.5498 14.7506C14.4389 14.7506 17.25 11.3944 17.25 7.22989C17.2365 3.23734 13.7561 0.25 9.27628 0.25Z" fill="black"/>
</svg>
