<svg width="32" height="22" viewBox="0 0 32 22" fill="none" xmlns="http://www.w3.org/2000/svg">
<path d="M0.313477 2.90153C0.313477 1.71596 1.12466 1.24797 2.12303 1.18557L6.77171 1.21677C7.05251 1.21677 7.3021 1.40396 7.3957 1.68476C8.45647 5.11667 9.76684 7.23822 11.3268 9.64056C11.4204 9.82775 11.5764 9.92135 11.7324 9.92135C11.8572 9.92135 11.982 9.85895 12.0756 9.70296L12.1692 9.35977L12.2004 3.9623C12.2004 3.18232 11.826 3.05752 10.9524 2.93273C10.6092 2.87033 10.3908 2.55834 10.3908 2.24634C10.3908 2.18395 10.3908 2.12155 10.422 2.05915C10.8588 0.717582 12.2316 0.0311992 14.1659 0.0311992L15.9131 0C17.3482 0 18.6586 0.623984 18.6586 2.46474V9.54696C18.7834 9.64056 18.9082 9.70296 19.0642 9.70296C19.3138 9.70296 19.6258 9.54696 19.8754 9.14137C21.4977 6.86383 23.3385 4.1495 23.5881 2.71433C23.5881 2.65193 23.6193 2.62073 23.6505 2.55834C23.9937 1.87195 24.8673 1.40396 25.2416 1.27917C25.304 1.24797 25.3976 1.21677 25.5224 1.21677H30.3583L30.6703 1.24797C31.1383 1.24797 31.4815 1.55996 31.6375 1.84075C31.9183 2.27754 31.8559 2.74553 31.8871 2.93273V3.15112C31.4191 5.99025 28.1744 9.17257 26.8016 11.2317C26.6144 11.4813 26.5208 11.6997 26.5208 11.9181C26.5208 12.1053 26.6144 12.2925 26.7704 12.4797L31.3255 18.2203C31.5751 18.5635 31.6999 18.9691 31.6999 19.3123C31.6999 20.3419 30.7327 20.9347 29.7967 21.0283L29.2663 21.0595H24.5241C24.4305 21.0595 24.3681 21.0907 24.2745 21.0907C23.7441 21.0907 23.3073 20.8099 22.9953 20.4979C21.9969 19.2811 21.0298 18.0331 20.0626 16.8164C19.8754 16.5668 19.813 16.5356 19.6258 16.4108C19.4074 17.3156 19.2202 18.2515 19.0018 19.1875L18.9082 19.7179C18.7522 20.2795 18.3466 20.8723 17.5978 21.0283L17.1611 21.0595H14.1035C8.70607 21.0595 3.87019 13.3845 0.469473 3.8063C0.375875 3.55671 0.313477 3.21352 0.313477 2.90153ZM19.0642 10.9821C18.253 10.9821 17.3482 10.5141 17.3482 9.64056V2.46474C17.3482 1.62236 16.9739 1.31037 15.9443 1.31037L14.1659 1.37277C13.1676 1.37277 12.606 1.52876 12.138 1.84075C12.8556 2.18395 13.5107 2.65193 13.5107 3.9623V9.45336C13.4171 10.5453 12.5124 11.2629 11.6388 11.2629C11.046 11.2629 10.5156 10.9197 10.2036 10.3581C8.79966 8.23659 7.61409 6.23984 6.58452 3.36952L6.30373 2.55834L2.15423 2.52714C1.59264 2.52714 1.65504 2.55834 1.65504 2.83913C1.65504 3.02632 1.68624 3.27592 1.71744 3.43191L2.37262 5.17907C5.77334 13.9773 10.0476 19.7491 14.1035 19.7491H17.2234C17.6602 19.7491 17.629 19.2187 17.7226 18.9067L18.3154 16.1612C18.4402 15.8804 18.5338 15.6308 18.7522 15.4124C19.0018 15.1628 19.2826 15.0692 19.5634 15.0692C20.1562 15.0692 20.7178 15.5372 21.0922 15.974L23.7441 19.3435C23.9625 19.6867 24.1497 19.7491 24.2745 19.7491H29.4223C29.9215 19.7491 30.3583 19.5931 30.3583 19.2811C30.3583 19.1875 30.3271 19.0627 30.2647 18.9691L25.7408 13.3221C25.3664 12.8541 25.2104 12.3861 25.2104 11.9181C25.2104 11.4189 25.3976 10.9197 25.7096 10.4829C27.02 8.51739 29.8279 5.70946 30.4831 3.40071L30.5767 2.99513C30.5455 2.83913 30.5455 2.71433 30.5143 2.55834H25.616C25.304 2.68313 25.0545 2.87033 24.8673 3.11992L24.6801 3.71271C23.9625 5.70946 21.9969 8.45499 20.593 10.3581C20.125 10.7949 19.5946 10.9821 19.0642 10.9821Z" fill="#3CA1FF"/>
</svg>
