<svg width="38" height="25" viewBox="0 0 38 25" fill="none" xmlns="http://www.w3.org/2000/svg">
<path d="M0.643555 3.42908C0.643555 2.02795 1.60222 1.47487 2.78212 1.40113L8.27602 1.438C8.60786 1.438 8.90284 1.65923 9.01345 1.99108C10.2671 6.04698 11.8157 8.55426 13.6593 11.3934C13.7699 11.6146 13.9543 11.7252 14.1386 11.7252C14.2861 11.7252 14.4336 11.6515 14.5442 11.4671L14.6548 11.0615L14.6917 4.68272C14.6917 3.76092 14.2492 3.61344 13.2168 3.46595C12.8112 3.39221 12.5531 3.02349 12.5531 2.65477C12.5531 2.58103 12.5531 2.50728 12.59 2.43354C13.1062 0.848051 14.7286 0.0368718 17.0146 0.0368718L19.0795 0C20.7756 0 22.3242 0.737436 22.3242 2.91287V11.2828C22.4717 11.3934 22.6191 11.4671 22.8035 11.4671C23.0985 11.4671 23.4672 11.2828 23.7622 10.8034C25.6795 8.1118 27.8549 4.90395 28.1499 3.20785C28.1499 3.1341 28.1868 3.09723 28.2237 3.02349C28.6292 2.21231 29.6617 1.65923 30.1041 1.51174C30.1779 1.47487 30.2885 1.438 30.436 1.438H36.1511L36.5198 1.47487C37.0729 1.47487 37.4785 1.84359 37.6628 2.17544C37.9947 2.69164 37.9209 3.24472 37.9578 3.46595V3.72405C37.4047 7.07939 33.5701 10.8403 31.9477 13.2738C31.7265 13.5688 31.6159 13.8269 31.6159 14.085C31.6159 14.3063 31.7265 14.5275 31.9108 14.7487L37.2941 21.5331C37.5891 21.9387 37.7366 22.4181 37.7366 22.8236C37.7366 24.0404 36.5936 24.741 35.4874 24.8516L34.8606 24.8885H29.2561C29.1455 24.8885 29.0717 24.9253 28.9611 24.9253C28.3343 24.9253 27.8181 24.5935 27.4494 24.2248C26.2695 22.7868 25.1264 21.3119 23.9834 19.8739C23.7622 19.5789 23.6884 19.5421 23.4672 19.3946C23.2091 20.4639 22.9879 21.57 22.7298 22.6762L22.6191 23.303C22.4348 23.9667 21.9555 24.6672 21.0705 24.8516L20.5543 24.8885H16.9409C10.5621 24.8885 4.84694 15.818 0.827914 4.49836C0.717298 4.20339 0.643555 3.7978 0.643555 3.42908ZM22.8035 12.9789C21.8448 12.9789 20.7756 12.4258 20.7756 11.3934V2.91287C20.7756 1.91733 20.3331 1.54862 19.1163 1.54862L17.0146 1.62236C15.8347 1.62236 15.171 1.80672 14.618 2.17544C15.466 2.58103 16.2403 3.1341 16.2403 4.68272V11.1722C16.1297 12.4627 15.0604 13.3107 14.028 13.3107C13.3275 13.3107 12.7006 12.9051 12.3319 12.2414C10.6727 9.73416 9.27156 7.37436 8.05479 3.98215L7.72294 3.02349L2.81899 2.98662C2.1553 2.98662 2.22904 3.02349 2.22904 3.35533C2.22904 3.57656 2.26591 3.87154 2.30279 4.0559L3.07709 6.12072C7.09612 16.5186 12.1476 23.3399 16.9409 23.3399H20.6281C21.1443 23.3399 21.1074 22.713 21.218 22.3443L21.9186 19.0996C22.0661 18.7677 22.1767 18.4728 22.4348 18.2147C22.7298 17.9197 23.0616 17.8091 23.3935 17.8091C24.094 17.8091 24.7577 18.3622 25.2002 18.8784L28.3343 22.8605C28.5924 23.2661 28.8136 23.3399 28.9611 23.3399H35.0449C35.6349 23.3399 36.1511 23.1555 36.1511 22.7868C36.1511 22.6762 36.1142 22.5287 36.0405 22.4181L30.6941 15.7443C30.2516 15.1912 30.0672 14.6381 30.0672 14.085C30.0672 13.4951 30.2885 12.9051 30.6572 12.3889C32.2058 10.066 35.5243 6.74754 36.2986 4.01903L36.4092 3.53969C36.3723 3.35533 36.3723 3.20785 36.3355 3.02349H30.5466C30.1779 3.17097 29.8829 3.39221 29.6617 3.68718L29.4404 4.38774C28.5924 6.74754 26.2695 9.99226 24.6102 12.2414C24.0571 12.7576 23.4303 12.9789 22.8035 12.9789Z" fill="white"/>
</svg>
