<svg width="27" height="15" viewBox="0 0 27 15" fill="none" xmlns="http://www.w3.org/2000/svg">
<path fill-rule="evenodd" clip-rule="evenodd" d="M24.1342 10.5419C24.1342 10.5419 26.2426 12.6242 26.7641 13.5878C26.7743 13.6017 26.7822 13.6171 26.7876 13.6334C27.0001 13.9894 27.0523 14.2685 26.948 14.4745C26.772 14.8148 26.1761 14.9856 25.974 14.9999H22.2474C21.9879 14.9999 21.4481 14.9321 20.7909 14.4784C20.2889 14.1276 19.7895 13.55 19.3058 12.9854C18.5834 12.147 17.9588 11.4194 17.3265 11.4194C17.2466 11.4192 17.1672 11.4325 17.0918 11.4585C16.6132 11.6098 16.0056 12.2917 16.0056 14.1081C16.0056 14.6766 15.5571 14.9999 15.2428 14.9999H13.536C12.9545 14.9999 9.92678 14.7965 7.24203 11.9658C3.95227 8.49997 0.997619 1.54753 0.968933 1.48625C0.785082 1.0364 1.17104 0.791263 1.58829 0.791263H5.35137C5.85598 0.791263 6.02027 1.09638 6.13502 1.3702C6.26801 1.68444 6.76089 2.94141 7.56931 4.35354C8.87844 6.65102 9.68295 7.58593 10.3258 7.58593C10.4465 7.58628 10.5653 7.5548 10.67 7.49465C11.5097 7.03307 11.3533 4.03408 11.3141 3.41603C11.3141 3.29607 11.3128 2.07692 10.8825 1.48755C10.5748 1.06508 10.0506 0.900791 9.7338 0.840811C9.81855 0.718244 9.99849 0.530481 10.2293 0.419649C10.8043 0.132789 11.8435 0.0910645 12.8749 0.0910645H13.4473C14.5661 0.106711 14.8555 0.178426 15.2624 0.281435C16.0812 0.477021 16.0969 1.00771 16.0252 2.81493C16.0043 3.33128 15.9821 3.91282 15.9821 4.59737C15.9821 4.74341 15.9756 4.90639 15.9756 5.07199C15.9508 5.99907 15.9182 7.0435 16.5728 7.47249C16.6577 7.52537 16.7557 7.55338 16.8557 7.55333C17.0826 7.55333 17.762 7.55333 19.6044 4.39135C20.4128 2.99487 21.0387 1.34803 21.0817 1.22416C21.1182 1.15505 21.2277 0.960771 21.3607 0.882536C21.4554 0.832199 21.5613 0.807054 21.6685 0.809518H26.0952C26.5777 0.809518 26.905 0.882537 26.9689 1.06508C27.0758 1.36107 26.948 2.26468 24.9269 4.99767C24.5866 5.45273 24.288 5.84651 24.0259 6.19074C22.1939 8.59515 22.1939 8.71641 24.1342 10.5419V10.5419Z" fill="black"/>
</svg>
