<svg width="24" height="16" viewBox="0 0 24 16" fill="none" xmlns="http://www.w3.org/2000/svg">
<path fill-rule="evenodd" clip-rule="evenodd" d="M12.75 11.145C12.75 9.26197 11.8435 7.87008 9.97064 7.34838C11.3371 6.70542 12.0497 5.7313 12.0497 4.21612C12.0497 1.22855 9.78913 0.5 7.18096 0.5H0V15.5H7.38207C10.1501 15.5 12.75 14.1927 12.75 11.145ZM3.34776 3.06065H6.48911C7.69676 3.06065 8.78376 3.39487 8.78376 4.77453C8.78376 6.04822 7.93809 6.56076 6.74178 6.56076H3.34776V3.06065ZM3.34638 8.82179V12.9526H6.92603C8.28839 12.9526 9.40116 12.4788 9.40116 10.9636C9.40116 9.42705 8.46886 8.82179 6.99513 8.82179H3.34638ZM23.8073 11.9112C23.0241 14.3518 21.3967 15.5 18.8839 15.5C15.5622 15.5 13.5 13.2206 13.5 9.89702C13.5 6.69461 15.6764 4.25 18.8829 4.25C22.3462 4.25 24.2195 7.16611 23.9795 10.5878H16.3907C16.3907 12.2976 17.2801 13.3037 18.9734 13.3037C19.851 13.3037 20.9825 12.8221 21.257 11.9112H23.8073ZM21.0967 8.74376C20.9747 7.32925 20.2446 6.46432 18.7934 6.46432C17.4081 6.46432 16.4901 7.34126 16.3946 8.74376H21.0967ZM21.75 1.25H15.75V2.75H21.75V1.25Z" fill="black"/>
</svg>
