<svg width="22" height="22" viewBox="0 0 22 22" fill="none" xmlns="http://www.w3.org/2000/svg">
<path d="M11.1511 5.72311C10.1498 5.72311 9.17095 6.02004 8.33838 6.57634C7.50582 7.13264 6.85691 7.92334 6.47372 8.84843C6.09054 9.77353 5.99028 10.7915 6.18563 11.7736C6.38097 12.7556 6.86315 13.6577 7.57119 14.3658C8.27923 15.0738 9.18133 15.556 10.1634 15.7513C11.1455 15.9467 12.1634 15.8464 13.0885 15.4632C14.0136 15.08 14.8043 14.4311 15.3606 13.5986C15.9169 12.766 16.2139 11.7872 16.2139 10.7859C16.2139 9.44314 15.6805 8.15541 14.731 7.20596C13.7816 6.25651 12.4938 5.72311 11.1511 5.72311ZM11.1511 14.5279C10.411 14.5279 9.68751 14.3084 9.07213 13.8973C8.45676 13.4861 7.97714 12.9016 7.69391 12.2179C7.41068 11.5341 7.33658 10.7817 7.48097 10.0558C7.62535 9.32995 7.98175 8.66318 8.50508 8.13985C9.02841 7.61651 9.69518 7.26012 10.4211 7.11573C11.1469 6.97134 11.8993 7.04545 12.5831 7.32867C13.2669 7.6119 13.8513 8.09153 14.2625 8.7069C14.6737 9.32228 14.8931 10.0458 14.8931 10.7859C14.8902 11.7774 14.495 12.7275 13.7939 13.4287C13.0928 14.1298 12.1427 14.525 11.1511 14.5279ZM15.9937 0H6.30847C4.73222 0 3.22054 0.62616 2.10597 1.74073C0.991395 2.8553 0.365234 4.36699 0.365234 5.94323V15.6285C0.365234 17.2047 0.991395 18.7164 2.10597 19.831C3.22054 20.9456 4.73222 21.5717 6.30847 21.5717H15.9937C17.57 21.5717 19.0817 20.9456 20.1962 19.831C21.3108 18.7164 21.937 17.2047 21.937 15.6285V5.94323C21.937 4.36699 21.3108 2.8553 20.1962 1.74073C19.0817 0.62616 17.57 0 15.9937 0ZM20.6162 15.6285C20.6162 16.8545 20.1292 18.0302 19.2623 18.8971C18.3955 19.764 17.2197 20.251 15.9937 20.251H6.30847C5.0825 20.251 3.90674 19.764 3.03986 18.8971C2.17297 18.0302 1.68595 16.8545 1.68595 15.6285V5.94323C1.68595 4.71726 2.17297 3.54151 3.03986 2.67462C3.90674 1.80773 5.0825 1.32072 6.30847 1.32072H15.9937C17.2197 1.32072 18.3955 1.80773 19.2623 2.67462C20.1292 3.54151 20.6162 4.71726 20.6162 5.94323V15.6285ZM17.9748 5.06275C17.9748 5.28043 17.9103 5.49322 17.7893 5.67421C17.6684 5.8552 17.4965 5.99627 17.2954 6.07957C17.0943 6.16287 16.873 6.18467 16.6595 6.1422C16.446 6.09974 16.2499 5.99491 16.096 5.84099C15.942 5.68707 15.8372 5.49096 15.7948 5.27747C15.7523 5.06397 15.7741 4.84268 15.8574 4.64157C15.9407 4.44046 16.0818 4.26857 16.2627 4.14764C16.4437 4.0267 16.6565 3.96215 16.8742 3.96215C17.1661 3.96215 17.446 4.07811 17.6525 4.28451C17.8589 4.49091 17.9748 4.77086 17.9748 5.06275Z" fill="#3CA1FF"/>
</svg>
