<svg width="28" height="25" viewBox="0 0 28 25" fill="none" xmlns="http://www.w3.org/2000/svg">
<path d="M26.9839 0.446921C26.733 0.229555 26.4276 0.0845232 26.1006 0.02735C25.7736 -0.0298231 25.4372 0.00301488 25.1273 0.122349L1.16099 9.53493C0.793259 9.67739 0.481839 9.93559 0.27372 10.2706C0.0655998 10.6055 -0.0279287 10.9991 0.00724657 11.3919C0.0424218 11.7847 0.204392 12.1554 0.468718 12.448C0.733044 12.7407 1.08539 12.9395 1.47258 13.0143L7.76926 14.2737V22.0894C7.76969 22.4475 7.87589 22.7975 8.07453 23.0954C8.27317 23.3934 8.5554 23.626 8.88579 23.7641C9.10857 23.8549 9.34633 23.9034 9.58687 23.907C9.82577 23.9084 10.0626 23.8621 10.2833 23.7707C10.504 23.6792 10.7042 23.5446 10.8722 23.3747L14.4165 19.8303L19.7135 24.4912C20.0416 24.7854 20.4672 24.9473 20.9079 24.9456C21.0978 24.9472 21.2866 24.9164 21.4662 24.8547C21.766 24.7594 22.0354 24.5868 22.2473 24.3544C22.4593 24.1219 22.6063 23.8378 22.6736 23.5305L27.5681 2.22557C27.6413 1.90399 27.6255 1.56857 27.5226 1.25524C27.4197 0.941917 27.2335 0.662497 26.9839 0.446921ZM1.57644 11.2487C1.56736 11.1939 1.57805 11.1378 1.60659 11.0902C1.63514 11.0426 1.67967 11.0068 1.73223 10.989L21.7908 3.10841L8.36648 12.8066L1.78417 11.4824C1.72679 11.4759 1.67382 11.4485 1.63546 11.4054C1.59711 11.3622 1.57608 11.3064 1.57644 11.2487ZM9.76863 22.2711C9.73262 22.3089 9.68558 22.3342 9.63426 22.3435C9.58294 22.3529 9.52999 22.3457 9.483 22.323C9.43736 22.3031 9.3984 22.2705 9.37078 22.2291C9.34316 22.1876 9.32803 22.1391 9.32721 22.0894V15.3512L13.235 18.8047L9.76863 22.2711ZM21.1676 23.1799C21.1587 23.2249 21.138 23.2668 21.1077 23.3013C21.0774 23.3357 21.0385 23.3615 20.9949 23.376C20.9514 23.3906 20.9048 23.3933 20.8598 23.3839C20.8149 23.3745 20.7733 23.3534 20.7391 23.3227L9.79459 13.6894L26.0232 1.9789L21.1676 23.1799Z" fill="white"/>
</svg>
