<svg width="20" height="14" viewBox="0 0 20 14" fill="none" xmlns="http://www.w3.org/2000/svg">
<path fill-rule="evenodd" clip-rule="evenodd" d="M19.3482 2.38589C19.1234 1.55069 18.4648 0.892314 17.6295 0.667421C16.1036 0.25 9.99974 0.25 9.99974 0.25C9.99974 0.25 3.89613 0.25 2.37019 0.651595C1.55099 0.87625 0.876274 1.55081 0.651568 2.38589C0.25 3.91136 0.25 7.07497 0.25 7.07497C0.25 7.07497 0.25 10.2545 0.651568 11.7641C0.876512 12.5991 1.53492 13.2575 2.37031 13.4824C3.91219 13.8999 9.99998 13.8999 9.99998 13.8999C9.99998 13.8999 16.1036 13.8999 17.6295 13.4984C18.4649 13.2736 19.1234 12.6152 19.3484 11.7801C19.7498 10.2545 19.7498 7.09104 19.7498 7.09104C19.7498 7.09104 19.7659 3.91136 19.3482 2.38589ZM8.04986 9.9999V4.14993L13.2498 7.07492L8.04986 9.9999Z" fill="black"/>
</svg>
